<svg width="72" height="72" viewBox="0 0 72 72" fill="none" xmlns="http://www.w3.org/2000/svg">
<path d="M16 8C11.5817 8 8 11.5817 8 16V56C8 60.4183 11.5817 64 16 64H31V36.5458L24.1641 43.3817C22.2965 45.2493 19.2684 45.2493 17.4007 43.3817C15.5331 41.514 15.5331 38.486 17.4007 36.6183L32.6183 21.4007C34.486 19.5331 37.514 19.5331 39.3817 21.4007L54.5993 36.6183C56.4669 38.486 56.4669 41.514 54.5993 43.3817C52.7316 45.2493 49.7035 45.2493 47.8359 43.3817L41 36.5458V64H56C60.4183 64 64 60.4183 64 56V16C64 11.5817 60.4183 8 56 8H16Z" fill="#3F4549"/>
</svg>
