<svg width="72" height="72" viewBox="0 0 72 72" fill="none" xmlns="http://www.w3.org/2000/svg">
<path fill-rule="evenodd" clip-rule="evenodd" d="M24.8284 8.17157L36.8284 20.1716C38.3905 21.7337 38.3905 24.2663 36.8284 25.8284C35.2663 27.3905 32.7337 27.3905 31.1716 25.8284L26 20.6569V47C26 49.2091 24.2091 51 22 51C19.7909 51 18 49.2091 18 47V20.6569L12.8284 25.8284C11.2663 27.3905 8.73367 27.3905 7.17157 25.8284C5.60948 24.2663 5.60948 21.7337 7.17157 20.1716L19.1714 8.17171C19.5549 7.7882 19.9971 7.49871 20.4689 7.30351C20.9405 7.10794 21.4576 7 22 7C22.5424 7 23.0595 7.10794 23.5311 7.30351C24.0029 7.49871 24.4449 7.78807 24.8284 8.17157Z" fill="#3F4549"/>
<path fill-rule="evenodd" clip-rule="evenodd" d="M47.1716 63.8284L35.1716 51.8284C33.6095 50.2663 33.6095 47.7337 35.1716 46.1716C36.7337 44.6095 39.2663 44.6095 40.8284 46.1716L46 51.3431V25C46 22.7909 47.7909 21 50 21C52.2091 21 54 22.7909 54 25V51.3431L59.1716 46.1716C60.7337 44.6095 63.2663 44.6095 64.8284 46.1716C66.3905 47.7337 66.3905 50.2663 64.8284 51.8284L52.8286 63.8283C52.4451 64.2118 52.0029 64.5013 51.5311 64.6965C51.0595 64.8921 50.5424 65 50 65C49.4576 65 48.9405 64.8921 48.4689 64.6965C47.9971 64.5013 47.5551 64.2119 47.1716 63.8284Z" fill="#3F4549"/>
</svg>
