<svg width="72" height="72" viewBox="0 0 72 72" fill="none" xmlns="http://www.w3.org/2000/svg">
<path d="M8.136 36.7114C8.30321 37.1328 8.70894 37.497 9.5204 38.2254L28.1146 54.9158C29.6094 56.2575 30.3568 56.9284 30.9863 56.9906C31.6652 57.0577 32.3291 56.7618 32.7328 56.2121C33.1071 55.7024 33.1071 54.6984 33.1071 52.6904V47.8248C36.1984 46.427 39.6302 45.6488 43.2438 45.6488C51.9179 45.6488 59.5442 50.1325 63.9291 56.9076C63.9761 56.2162 64 55.5185 64 54.8152C64 38.0292 50.3849 24.4214 33.5898 24.4214C33.4286 24.4214 33.2677 24.4227 33.1071 24.4252V19.3096C33.1071 17.3016 33.1071 16.2976 32.7328 15.7879C32.3291 15.2382 31.6652 14.9423 30.9863 15.0094C30.3568 15.0716 29.6094 15.7425 28.1146 17.0842L9.5204 33.7746C8.70894 34.503 8.30321 34.8672 8.136 35.2886C7.95467 35.7455 7.95467 36.2545 8.136 36.7114Z" fill="#3F4549"/>
</svg>
