<svg width="72" height="72" viewBox="0 0 72 72" fill="none" xmlns="http://www.w3.org/2000/svg">
<path d="M16.5343 37.3504L35.0013 9.79128C36.8704 7.00194 37.805 5.60727 38.4147 5.51473C38.9386 5.43521 39.4625 5.65829 39.7682 6.09108C40.124 6.59473 39.7663 8.235 39.0507 11.5155L35.0259 29.9691C34.9958 30.1072 34.9807 30.1763 34.9991 30.2295C35.0153 30.2761 35.0481 30.3151 35.0913 30.3389C35.1405 30.3662 35.2112 30.3631 35.3524 30.357L51.4674 29.6582C53.5638 29.5673 54.612 29.5219 55.1757 29.9295C55.666 30.284 55.9694 30.8415 56.001 31.4458C56.0373 32.1404 55.4301 32.996 54.2157 34.7072L34.1052 63.0447C32.281 65.6151 31.369 66.9004 30.7643 66.9805C30.2444 67.0495 29.7295 66.8221 29.4303 66.3913C29.0824 65.8903 29.4183 64.3505 30.0899 61.271L34.286 42.0323C34.3162 41.8938 34.3314 41.8245 34.3128 41.7712C34.2966 41.7245 34.2636 41.6855 34.2203 41.6617C34.1709 41.6345 34.1001 41.6378 33.9584 41.6445L19.3422 42.3283C17.2986 42.4239 16.2769 42.4717 15.7154 42.0746C15.2268 41.7289 14.9186 41.1826 14.8755 40.5856C14.8261 39.8997 15.3955 39.0499 16.5343 37.3504Z" fill="#3F4549"/>
</svg>
