<svg width="72" height="72" viewBox="0 0 72 72" fill="none" xmlns="http://www.w3.org/2000/svg">
<path fill-rule="evenodd" clip-rule="evenodd" d="M47.9799 43.4945L26.6862 22.2008L35.0016 9.79134C36.8707 7.002 37.8053 5.60733 38.415 5.51479C38.9389 5.43527 39.4628 5.65835 39.7685 6.09114C40.1243 6.59479 39.7666 8.23506 39.051 11.5156L35.0262 29.9692C34.9961 30.1073 34.981 30.1764 34.9995 30.2295C35.0156 30.2761 35.0484 30.3151 35.0916 30.339C35.1408 30.3662 35.2115 30.3632 35.3527 30.3571L51.4678 29.6583C53.5641 29.5674 54.6123 29.522 55.176 29.9295C55.6663 30.2841 55.9697 30.8416 56.0013 31.4458C56.0376 32.1405 55.4304 32.9961 54.216 34.7073L47.9799 43.4945ZM16.5346 37.3505L22.1468 28.9751L43.2837 50.1119L34.1055 63.0448C32.2814 65.6152 31.3693 66.9004 30.7646 66.9806C30.2447 67.0496 29.7298 66.8221 29.4306 66.3913C29.0827 65.8904 29.4186 64.3506 30.0902 61.2711L34.2863 42.0324C34.3166 41.8938 34.3317 41.8245 34.3131 41.7713C34.2969 41.7246 34.2639 41.6856 34.2206 41.6618C34.1712 41.6346 34.1004 41.6379 33.9587 41.6445L19.3425 42.3283C17.2989 42.4239 16.2772 42.4717 15.7157 42.0746C15.2271 41.729 14.9189 41.1827 14.8758 40.5857C14.8264 39.8998 15.3958 39.05 16.5345 37.3506L16.5345 37.3506L16.5346 37.3505ZM13.2428 11.5858C12.4618 10.8048 11.1954 10.8048 10.4144 11.5858C9.63335 12.3669 9.63335 13.6332 10.4144 14.4143L58.4977 62.4975C59.2787 63.2786 60.545 63.2786 61.3261 62.4975C62.1071 61.7165 62.1071 60.4502 61.3261 59.6691L13.2428 11.5858Z" fill="#3F4549"/>
</svg>
