<svg width="73" height="72" viewBox="0 0 73 72" fill="none" xmlns="http://www.w3.org/2000/svg">
<path fill-rule="evenodd" clip-rule="evenodd" d="M48.4799 43.4945L27.1862 22.2008L35.5016 9.79134C37.3707 7.002 38.3053 5.60733 38.915 5.51479C39.4389 5.43527 39.9628 5.65835 40.2685 6.09114C40.6243 6.59479 40.2666 8.23506 39.551 11.5156L35.5262 29.9692C35.4961 30.1073 35.481 30.1764 35.4995 30.2295C35.5156 30.2761 35.5484 30.3151 35.5916 30.339C35.6408 30.3662 35.7115 30.3632 35.8527 30.3571L51.9678 29.6583C54.0641 29.5674 55.1123 29.522 55.676 29.9295C56.1663 30.2841 56.4697 30.8416 56.5013 31.4458C56.5376 32.1405 55.9304 32.9961 54.716 34.7073L48.4799 43.4945ZM17.0346 37.3505L22.6468 28.9751L43.7837 50.1119L34.6055 63.0448C32.7814 65.6152 31.8693 66.9004 31.2646 66.9806C30.7447 67.0496 30.2298 66.8221 29.9306 66.3913C29.5827 65.8904 29.9186 64.3506 30.5902 61.2711L34.7863 42.0324C34.8166 41.8938 34.8317 41.8245 34.8131 41.7713C34.7969 41.7246 34.7639 41.6856 34.7206 41.6618C34.6712 41.6346 34.6004 41.6379 34.4587 41.6445L19.8425 42.3283C17.7989 42.4239 16.7772 42.4717 16.2157 42.0746C15.7271 41.729 15.4189 41.1827 15.3758 40.5857C15.3264 39.8998 15.8958 39.05 17.0345 37.3506L17.0345 37.3506L17.0346 37.3505ZM13.7428 11.5858C12.9618 10.8048 11.6954 10.8048 10.9144 11.5858C10.1334 12.3669 10.1334 13.6332 10.9144 14.4143L58.9977 62.4975C59.7787 63.2786 61.045 63.2786 61.8261 62.4975C62.6071 61.7165 62.6071 60.4502 61.8261 59.6691L13.7428 11.5858Z" fill="#3F4549"/>
</svg>
