<svg width="73" height="72" viewBox="0 0 73 72" fill="none" xmlns="http://www.w3.org/2000/svg">
<path d="M17.0343 37.3504L35.5013 9.79128C37.3704 7.00195 38.305 5.60728 38.9147 5.51474C39.4386 5.43522 39.9625 5.6583 40.2682 6.09109C40.624 6.59474 40.2663 8.235 39.5507 11.5155L35.5259 29.9691C35.4958 30.1072 35.4807 30.1763 35.4991 30.2295C35.5153 30.2761 35.5481 30.3151 35.5913 30.3389C35.6405 30.3662 35.7112 30.3631 35.8524 30.357L51.9674 29.6582C54.0638 29.5673 55.112 29.5219 55.6757 29.9295C56.166 30.284 56.4694 30.8415 56.501 31.4458C56.5373 32.1404 55.9301 32.996 54.7157 34.7072L34.6052 63.0447C32.781 65.6152 31.869 66.9004 31.2643 66.9806C30.7444 67.0495 30.2295 66.8221 29.9303 66.3913C29.5824 65.8903 29.9183 64.3505 30.5899 61.271L34.786 42.0323C34.8162 41.8938 34.8314 41.8245 34.8128 41.7712C34.7966 41.7245 34.7636 41.6855 34.7203 41.6617C34.6709 41.6345 34.6001 41.6379 34.4584 41.6445L19.8422 42.3283C17.7986 42.4239 16.7769 42.4717 16.2154 42.0746C15.7268 41.7289 15.4186 41.1826 15.3755 40.5856C15.3261 39.8997 15.8955 39.05 17.0343 37.3504Z" fill="#3F4549"/>
</svg>
