<svg width="72" height="72" viewBox="0 0 72 72" fill="none" xmlns="http://www.w3.org/2000/svg">
<path d="M26.7998 29.6001C26.7998 27.7145 26.7998 26.7717 27.3856 26.1859C27.9714 25.6001 28.9142 25.6001 30.7998 25.6001C32.6854 25.6001 33.6282 25.6001 34.214 26.1859C34.7998 26.7717 34.7998 27.7145 34.7998 29.6001C34.7998 31.4857 34.7998 32.4285 34.214 33.0143C33.6282 33.6001 32.6854 33.6001 30.7998 33.6001C28.9142 33.6001 27.9714 33.6001 27.3856 33.0143C26.7998 32.4285 26.7998 31.4857 26.7998 29.6001Z" fill="#3F4549"/>
<path d="M37.1997 29.6001C37.1997 27.7145 37.1997 26.7717 37.7855 26.1859C38.3713 25.6001 39.3141 25.6001 41.1997 25.6001C43.0853 25.6001 44.0281 25.6001 44.6139 26.1859C45.1997 26.7717 45.1997 27.7145 45.1997 29.6001C45.1997 31.4857 45.1997 32.4285 44.6139 33.0143C44.0281 33.6001 43.0853 33.6001 41.1997 33.6001C39.3141 33.6001 38.3713 33.6001 37.7855 33.0143C37.1997 32.4285 37.1997 31.4857 37.1997 29.6001Z" fill="#3F4549"/>
<path d="M48.1854 26.1859C47.5996 26.7717 47.5996 27.7145 47.5996 29.6001C47.5996 31.4857 47.5996 32.4285 48.1854 33.0143C48.7712 33.6001 49.714 33.6001 51.5996 33.6001C53.4852 33.6001 54.428 33.6001 55.0138 33.0143C55.5996 32.4285 55.5996 31.4857 55.5996 29.6001C55.5996 27.7145 55.5996 26.7717 55.0138 26.1859C54.428 25.6001 53.4852 25.6001 51.5996 25.6001C49.714 25.6001 48.7712 25.6001 48.1854 26.1859Z" fill="#3F4549"/>
<path d="M16.3999 40.6001C16.3999 38.7145 16.3999 37.7717 16.9857 37.1859C17.5715 36.6001 18.5143 36.6001 20.3999 36.6001C22.2855 36.6001 23.2283 36.6001 23.8141 37.1859C24.3999 37.7717 24.3999 38.7145 24.3999 40.6001C24.3999 42.4857 24.3999 43.4285 23.8141 44.0143C23.2283 44.6001 22.2855 44.6001 20.3999 44.6001C18.5143 44.6001 17.5715 44.6001 16.9857 44.0143C16.3999 43.4285 16.3999 42.4857 16.3999 40.6001Z" fill="#3F4549"/>
<path d="M27.3856 37.1859C26.7998 37.7717 26.7998 38.7145 26.7998 40.6001C26.7998 42.4857 26.7998 43.4285 27.3856 44.0143C27.9714 44.6001 28.9142 44.6001 30.7998 44.6001C32.6854 44.6001 33.6282 44.6001 34.214 44.0143C34.7998 43.4285 34.7998 42.4857 34.7998 40.6001C34.7998 38.7145 34.7998 37.7717 34.214 37.1859C33.6282 36.6001 32.6854 36.6001 30.7998 36.6001C28.9142 36.6001 27.9714 36.6001 27.3856 37.1859Z" fill="#3F4549"/>
<path d="M37.1997 40.6001C37.1997 38.7145 37.1997 37.7717 37.7855 37.1859C38.3713 36.6001 39.3141 36.6001 41.1997 36.6001C43.0853 36.6001 44.0281 36.6001 44.6139 37.1859C45.1997 37.7717 45.1997 38.7145 45.1997 40.6001C45.1997 42.4857 45.1997 43.4285 44.6139 44.0143C44.0281 44.6001 43.0853 44.6001 41.1997 44.6001C39.3141 44.6001 38.3713 44.6001 37.7855 44.0143C37.1997 43.4285 37.1997 42.4857 37.1997 40.6001Z" fill="#3F4549"/>
<path d="M48.1854 37.1859C47.5996 37.7717 47.5996 38.7145 47.5996 40.6001C47.5996 42.4857 47.5996 43.4285 48.1854 44.0143C48.7712 44.6001 49.714 44.6001 51.5996 44.6001C53.4852 44.6001 54.428 44.6001 55.0138 44.0143C55.5996 43.4285 55.5996 42.4857 55.5996 40.6001C55.5996 38.7145 55.5996 37.7717 55.0138 37.1859C54.428 36.6001 53.4852 36.6001 51.5996 36.6001C49.714 36.6001 48.7712 36.6001 48.1854 37.1859Z" fill="#3F4549"/>
<path d="M16.3999 51.6001C16.3999 49.7145 16.3999 48.7717 16.9857 48.1859C17.5715 47.6001 18.5143 47.6001 20.3999 47.6001C22.2855 47.6001 23.2283 47.6001 23.8141 48.1859C24.3999 48.7717 24.3999 49.7145 24.3999 51.6001C24.3999 53.4857 24.3999 54.4285 23.8141 55.0143C23.2283 55.6001 22.2855 55.6001 20.3999 55.6001C18.5143 55.6001 17.5715 55.6001 16.9857 55.0143C16.3999 54.4285 16.3999 53.4857 16.3999 51.6001Z" fill="#3F4549"/>
<path d="M27.3856 48.1859C26.7998 48.7717 26.7998 49.7145 26.7998 51.6001C26.7998 53.4857 26.7998 54.4285 27.3856 55.0143C27.9714 55.6001 28.9142 55.6001 30.7998 55.6001C32.6854 55.6001 33.6282 55.6001 34.214 55.0143C34.7998 54.4285 34.7998 53.4857 34.7998 51.6001C34.7998 49.7145 34.7998 48.7717 34.214 48.1859C33.6282 47.6001 32.6854 47.6001 30.7998 47.6001C28.9142 47.6001 27.9714 47.6001 27.3856 48.1859Z" fill="#3F4549"/>
<path d="M37.1997 51.6001C37.1997 49.7145 37.1997 48.7717 37.7855 48.1859C38.3713 47.6001 39.3141 47.6001 41.1997 47.6001C43.0853 47.6001 44.0281 47.6001 44.6139 48.1859C45.1997 48.7717 45.1997 49.7145 45.1997 51.6001C45.1997 53.4857 45.1997 54.4285 44.6139 55.0143C44.0281 55.6001 43.0853 55.6001 41.1997 55.6001C39.3141 55.6001 38.3713 55.6001 37.7855 55.0143C37.1997 54.4285 37.1997 53.4857 37.1997 51.6001Z" fill="#3F4549"/>
<path fill-rule="evenodd" clip-rule="evenodd" d="M8 21.12C8 16.3373 8 13.9459 8.98955 12.146C9.72089 10.8157 10.8157 9.72089 12.146 8.98955C13.9459 8 16.3373 8 21.12 8H50.88C55.6627 8 58.0541 8 59.854 8.98955C61.1843 9.72089 62.2791 10.8157 63.0105 12.146C64 13.9459 64 16.3373 64 21.12V50.88C64 55.6627 64 58.0541 63.0105 59.854C62.2791 61.1843 61.1843 62.2791 59.854 63.0105C58.0541 64 55.6627 64 50.88 64H21.12C16.3373 64 13.9459 64 12.146 63.0105C10.8157 62.2791 9.72089 61.1843 8.98955 59.854C8 58.0541 8 55.6627 8 50.88V21.12ZM15.6388 21.7685C14.8859 21.8341 14.4914 21.9535 14.2102 22.1081C13.6615 22.4098 13.2099 22.8614 12.9082 23.4102C12.7536 23.6914 12.6341 24.0858 12.5686 24.8387C12.5013 25.611 12.5 26.6107 12.5 28.0719V51.16C12.5 52.9799 12.5013 54.2486 12.5871 55.234C12.6712 56.2 12.8278 56.7516 13.0566 57.1678C13.468 57.9161 14.0838 58.5319 14.8321 58.9433C15.2483 59.1722 15.7999 59.3287 16.766 59.4128C17.7513 59.4986 19.02 59.5 20.84 59.5H51.16C52.98 59.5 54.2487 59.4986 55.234 59.4128C56.2001 59.3287 56.7517 59.1722 57.1679 58.9433C57.9162 58.5319 58.532 57.9161 58.9434 57.1678C59.1722 56.7516 59.3288 56.2 59.4129 55.234C59.4987 54.2486 59.5 52.9799 59.5 51.16V28.072C59.5 26.6107 59.4987 25.611 59.4314 24.8387C59.3659 24.0858 59.2464 23.6914 59.0918 23.4102C58.7901 22.8614 58.3385 22.4098 57.7898 22.1081C57.5086 21.9535 57.1141 21.8341 56.3612 21.7685C55.589 21.7013 54.5893 21.7 53.128 21.7H18.872C17.4107 21.7 16.411 21.7013 15.6388 21.7685Z" fill="#3F4549"/>
</svg>
