<svg width="72" height="72" viewBox="0 0 72 72" fill="none" xmlns="http://www.w3.org/2000/svg">
<path fill-rule="evenodd" clip-rule="evenodd" d="M8.98955 12.146C8 13.9459 8 16.3373 8 21.12V50.88C8 55.6627 8 58.0541 8.98955 59.854C9.72089 61.1843 10.8157 62.2791 12.146 63.0105C13.9459 64 16.3373 64 21.12 64H50.88C55.6627 64 58.0541 64 59.854 63.0105C61.1843 62.2791 62.2791 61.1843 63.0105 59.854C64 58.0541 64 55.6627 64 50.88V21.12C64 16.3373 64 13.9459 63.0105 12.146C62.2791 10.8157 61.1843 9.72089 59.854 8.98955C58.0541 8 55.6627 8 50.88 8H21.12C16.3373 8 13.9459 8 12.146 8.98955C10.8157 9.72089 9.72089 10.8157 8.98955 12.146ZM14.2102 22.1081C14.4914 21.9535 14.8859 21.8341 15.6388 21.7685C16.411 21.7013 17.4107 21.7 18.872 21.7H53.128C54.5893 21.7 55.589 21.7013 56.3612 21.7685C57.1141 21.8341 57.5086 21.9535 57.7898 22.1081C58.3385 22.4098 58.7901 22.8614 59.0918 23.4102C59.2464 23.6914 59.3659 24.0858 59.4314 24.8387C59.4987 25.611 59.5 26.6107 59.5 28.072V51.16C59.5 52.9799 59.4987 54.2486 59.4129 55.234C59.3288 56.2 59.1722 56.7516 58.9434 57.1678C58.532 57.9161 57.9162 58.5319 57.1679 58.9433C56.7517 59.1722 56.2001 59.3287 55.234 59.4128C54.2487 59.4986 52.98 59.5 51.16 59.5H20.84C19.02 59.5 17.7513 59.4986 16.766 59.4128C15.7999 59.3287 15.2483 59.1722 14.8321 58.9433C14.0838 58.5319 13.468 57.9161 13.0566 57.1678C12.8278 56.7516 12.6712 56.2 12.5871 55.234C12.5013 54.2486 12.5 52.9799 12.5 51.16V28.0719C12.5 26.6107 12.5013 25.611 12.5686 24.8387C12.6341 24.0858 12.7536 23.6914 12.9082 23.4102C13.2099 22.8614 13.6615 22.4098 14.2102 22.1081ZM47.9739 51.9999V30.3679H43.4619L36.1659 34.7839L38.3739 38.1439L43.0139 35.2959V51.9999H47.9739ZM31.5919 39.4239V34.4319H27.3999V39.4239H22.5359V43.3279H27.3999V48.3199H31.5919V43.3279H36.4239V39.4239H31.5919Z" fill="#3F4549"/>
</svg>
