<svg width="72" height="72" viewBox="0 0 72 72" fill="none" xmlns="http://www.w3.org/2000/svg">
<path d="M46 36.75C46 42.2728 41.5228 46.75 36 46.75C30.4772 46.75 26 42.2728 26 36.75C26 31.2272 30.4772 26.75 36 26.75C41.5228 26.75 46 31.2272 46 36.75Z" fill="#3F4549"/>
<path fill-rule="evenodd" clip-rule="evenodd" d="M25.1562 15.35L23.5 18H18.3C13.8162 18 11.5743 18 9.88685 18.9277C8.63968 19.6133 7.61334 20.6397 6.9277 21.8868C6 23.5743 6 25.8162 6 30.3V45.7C6 50.1838 6 52.4257 6.9277 54.1131C7.61334 55.3603 8.63968 56.3867 9.88685 57.0723C11.5743 58 13.8162 58 18.3 58H53.7C58.1838 58 60.4257 58 62.1131 57.0723C63.3603 56.3867 64.3867 55.3603 65.0723 54.1131C66 52.4257 66 50.1838 66 45.7V30.3C66 25.8162 66 23.5743 65.0723 21.8868C64.3867 20.6397 63.3603 19.6133 62.1131 18.9277C60.4257 18 58.1838 18 53.7 18H48.5L46.8438 15.35C46.1257 14.2012 45.7667 13.6268 45.2013 13.3134C44.6359 13 43.9585 13 42.6038 13H29.3962C28.0415 13 27.3641 13 26.7987 13.3134C26.2333 13.6268 25.8742 14.2012 25.1562 15.35ZM48.5 36.75C48.5 43.6536 42.9036 49.25 36 49.25C29.0964 49.25 23.5 43.6536 23.5 36.75C23.5 29.8464 29.0964 24.25 36 24.25C42.9036 24.25 48.5 29.8464 48.5 36.75ZM58.5 27.375C58.5 28.4105 57.6605 29.25 56.625 29.25C55.5895 29.25 54.75 28.4105 54.75 27.375C54.75 26.3395 55.5895 25.5 56.625 25.5C57.6605 25.5 58.5 26.3395 58.5 27.375Z" fill="#3F4549"/>
</svg>
