<svg width="72" height="72" viewBox="0 0 72 72" fill="none" xmlns="http://www.w3.org/2000/svg">
<path d="M19.7381 13.2322C20.7144 14.2085 20.7144 15.7915 19.7381 16.7678C17.7417 18.7642 16.158 21.1344 15.0775 23.7429C13.997 26.3514 13.4409 29.1471 13.4409 31.9706C13.4409 34.794 13.997 37.5898 15.0775 40.1983C16.158 42.8068 17.7417 45.1769 19.7381 47.1734C20.7144 48.1497 20.7144 49.7326 19.7381 50.7089C18.7618 51.6852 17.1789 51.6852 16.2026 50.7089C13.7418 48.2481 11.7899 45.3268 10.4581 42.1117C9.12636 38.8965 8.44092 35.4506 8.44092 31.9706C8.44092 28.4905 9.12636 25.0446 10.4581 21.8295C11.7899 18.6143 13.7418 15.693 16.2026 13.2322C17.1789 12.2559 18.7618 12.2559 19.7381 13.2322Z" fill="#3F4549"/>
<path d="M38.4998 36.3311C39.9943 35.4666 40.9998 33.8507 40.9998 32C40.9998 29.2386 38.7612 27 35.9998 27C33.2384 27 30.9998 29.2386 30.9998 32C30.9998 33.8507 32.0053 35.4666 33.4998 36.3311V59.5C33.4998 60.8807 34.6191 62 35.9998 62C37.3805 62 38.4998 60.8807 38.4998 59.5V36.3311Z" fill="#3F4549"/>
<path d="M27.8092 23.8388C28.7855 22.8625 28.7855 21.2796 27.8092 20.3033C26.8329 19.327 25.2499 19.327 24.2736 20.3033C22.7415 21.8354 21.5261 23.6544 20.6969 25.6563C19.8677 27.6581 19.4409 29.8037 19.4409 31.9705C19.4409 34.1374 19.8677 36.2829 20.6969 38.2848C21.5261 40.2867 22.7415 42.1056 24.2736 43.6378C25.2499 44.6141 26.8329 44.6141 27.8092 43.6378C28.7855 42.6615 28.7855 41.0786 27.8092 40.1023C26.7413 39.0344 25.8942 37.7666 25.3163 36.3714C24.7384 34.9762 24.4409 33.4807 24.4409 31.9705C24.4409 30.4603 24.7384 28.9649 25.3163 27.5697C25.8942 26.1744 26.7413 24.9067 27.8092 23.8388Z" fill="#3F4549"/>
<path d="M52.2026 13.2322C51.2263 14.2085 51.2263 15.7915 52.2026 16.7678C54.1991 18.7642 55.7827 21.1344 56.8632 23.7429C57.9437 26.3514 58.4998 29.1471 58.4998 31.9706C58.4998 34.794 57.9437 37.5898 56.8632 40.1983C55.7827 42.8068 54.1991 45.1769 52.2026 47.1734C51.2263 48.1497 51.2263 49.7326 52.2026 50.7089C53.1789 51.6852 54.7618 51.6852 55.7381 50.7089C58.1989 48.2481 60.1509 45.3268 61.4826 42.1117C62.8144 38.8965 63.4998 35.4506 63.4998 31.9706C63.4998 28.4905 62.8144 25.0446 61.4826 21.8295C60.1509 18.6143 58.1989 15.693 55.7381 13.2322C54.7618 12.2559 53.1789 12.2559 52.2026 13.2322Z" fill="#3F4549"/>
<path d="M44.1315 23.8388C43.1552 22.8625 43.1552 21.2796 44.1315 20.3033C45.1079 19.327 46.6908 19.327 47.6671 20.3033C49.1992 21.8354 50.4146 23.6544 51.2438 25.6563C52.073 27.6581 52.4998 29.8037 52.4998 31.9705C52.4998 34.1374 52.073 36.2829 51.2438 38.2848C50.4146 40.2867 49.1992 42.1056 47.6671 43.6378C46.6908 44.6141 45.1079 44.6141 44.1315 43.6378C43.1552 42.6615 43.1552 41.0786 44.1315 40.1023C45.1994 39.0344 46.0465 37.7666 46.6244 36.3714C47.2024 34.9762 47.4998 33.4807 47.4998 31.9705C47.4998 30.4603 47.2024 28.9649 46.6244 27.5697C46.0465 26.1744 45.1994 24.9067 44.1315 23.8388Z" fill="#3F4549"/>
</svg>
