<svg width="73" height="72" viewBox="0 0 73 72" fill="none" xmlns="http://www.w3.org/2000/svg">
<path d="M20.2381 13.2322C21.2144 14.2085 21.2144 15.7915 20.2381 16.7678C18.2417 18.7642 16.658 21.1344 15.5775 23.7429C14.497 26.3514 13.9409 29.1471 13.9409 31.9706C13.9409 34.794 14.497 37.5898 15.5775 40.1983C16.658 42.8068 18.2417 45.1769 20.2381 47.1734C21.2144 48.1497 21.2144 49.7326 20.2381 50.7089C19.2618 51.6852 17.6789 51.6852 16.7026 50.7089C14.2418 48.2481 12.2899 45.3268 10.9581 42.1117C9.62636 38.8965 8.94092 35.4506 8.94092 31.9706C8.94092 28.4905 9.62636 25.0446 10.9581 21.8295C12.2899 18.6143 14.2418 15.693 16.7026 13.2322C17.6789 12.2559 19.2618 12.2559 20.2381 13.2322Z" fill="#3F4549"/>
<path d="M38.9998 36.3311C40.4943 35.4666 41.4998 33.8507 41.4998 32C41.4998 29.2386 39.2612 27 36.4998 27C33.7384 27 31.4998 29.2386 31.4998 32C31.4998 33.8507 32.5053 35.4666 33.9998 36.3311V59.5C33.9998 60.8807 35.1191 62 36.4998 62C37.8805 62 38.9998 60.8807 38.9998 59.5V36.3311Z" fill="#3F4549"/>
<path d="M28.3092 23.8388C29.2855 22.8625 29.2855 21.2796 28.3092 20.3033C27.3329 19.327 25.7499 19.327 24.7736 20.3033C23.2415 21.8354 22.0261 23.6544 21.1969 25.6563C20.3677 27.6581 19.9409 29.8037 19.9409 31.9705C19.9409 34.1374 20.3677 36.2829 21.1969 38.2848C22.0261 40.2867 23.2415 42.1056 24.7736 43.6378C25.7499 44.6141 27.3329 44.6141 28.3092 43.6378C29.2855 42.6615 29.2855 41.0786 28.3092 40.1023C27.2413 39.0344 26.3942 37.7666 25.8163 36.3714C25.2384 34.9762 24.9409 33.4807 24.9409 31.9705C24.9409 30.4603 25.2384 28.9649 25.8163 27.5697C26.3942 26.1744 27.2413 24.9067 28.3092 23.8388Z" fill="#3F4549"/>
<path d="M52.7026 13.2322C51.7263 14.2085 51.7263 15.7915 52.7026 16.7678C54.6991 18.7642 56.2827 21.1344 57.3632 23.7429C58.4437 26.3514 58.9998 29.1471 58.9998 31.9706C58.9998 34.794 58.4437 37.5898 57.3632 40.1983C56.2827 42.8068 54.6991 45.1769 52.7026 47.1734C51.7263 48.1497 51.7263 49.7326 52.7026 50.7089C53.6789 51.6852 55.2618 51.6852 56.2381 50.7089C58.6989 48.2481 60.6509 45.3268 61.9826 42.1117C63.3144 38.8965 63.9998 35.4506 63.9998 31.9706C63.9998 28.4905 63.3144 25.0446 61.9826 21.8295C60.6509 18.6143 58.6989 15.693 56.2381 13.2322C55.2618 12.2559 53.6789 12.2559 52.7026 13.2322Z" fill="#3F4549"/>
<path d="M44.6315 23.8388C43.6552 22.8625 43.6552 21.2796 44.6315 20.3033C45.6079 19.327 47.1908 19.327 48.1671 20.3033C49.6992 21.8354 50.9146 23.6544 51.7438 25.6563C52.573 27.6581 52.9998 29.8037 52.9998 31.9705C52.9998 34.1374 52.573 36.2829 51.7438 38.2848C50.9146 40.2867 49.6992 42.1056 48.1671 43.6378C47.1908 44.6141 45.6079 44.6141 44.6315 43.6378C43.6552 42.6615 43.6552 41.0786 44.6315 40.1023C45.6994 39.0344 46.5465 37.7666 47.1244 36.3714C47.7024 34.9762 47.9998 33.4807 47.9998 31.9705C47.9998 30.4603 47.7024 28.9649 47.1244 27.5697C46.5465 26.1744 45.6994 24.9067 44.6315 23.8388Z" fill="#3F4549"/>
</svg>
