<svg width="72" height="72" viewBox="0 0 72 72" fill="none" xmlns="http://www.w3.org/2000/svg">
<path fill-rule="evenodd" clip-rule="evenodd" d="M54.5723 12.6379C52.429 11.4917 50.2905 10.8571 43.6078 10.8571H28.3922C21.7096 10.8571 19.571 11.4917 17.4277 12.6379C15.3543 13.7468 13.7468 15.3543 12.6379 17.4277C11.4917 19.571 10.8571 21.7096 10.8571 28.3922V43.6078C10.8571 50.2905 11.4917 52.429 12.6379 54.5723C13.7468 56.6457 15.3543 58.2532 17.4277 59.3621C19.571 60.5083 21.7096 61.1429 28.3922 61.1429H43.6078C50.2905 61.1429 52.429 60.5083 54.5723 59.3621C56.6457 58.2532 58.2532 56.6457 59.3621 54.5723C60.5083 52.429 61.1429 50.2905 61.1429 43.6078V28.3922C61.1429 21.7096 60.5083 19.571 59.3621 17.4277C58.2532 15.3543 56.6457 13.7468 54.5723 12.6379ZM43.6078 4C50.7503 4 54.2103 4.66816 57.8061 6.5912C61.0745 8.33917 63.6608 10.9255 65.4088 14.1939C67.3318 17.7897 68 21.2497 68 28.3922V43.6078C68 50.7503 67.3318 54.2103 65.4088 57.8061C63.6608 61.0745 61.0745 63.6608 57.8061 65.4088C54.2103 67.3318 50.7503 68 43.6078 68H28.3922C21.2497 68 17.7897 67.3318 14.1939 65.4088C10.9255 63.6608 8.33917 61.0745 6.5912 57.8061C4.66816 54.2103 4 50.7503 4 43.6078V28.3922C4 21.2497 4.66816 17.7897 6.5912 14.1939C8.33917 10.9255 10.9255 8.33917 14.1939 6.5912C17.7897 4.66816 21.2497 4 28.3922 4H43.6078Z" fill="#3F4549"/>
</svg>
