<svg width="72" height="72" viewBox="0 0 72 72" fill="none" xmlns="http://www.w3.org/2000/svg">
<path fill-rule="evenodd" clip-rule="evenodd" d="M36 64C51.464 64 64 51.464 64 36C64 20.536 51.464 8 36 8C20.536 8 8 20.536 8 36C8 51.464 20.536 64 36 64ZM51.7264 28.5197C52.5657 27.5662 52.4732 26.1129 51.5197 25.2736C50.5662 24.4343 49.1129 24.5268 48.2736 25.4803C41.9443 32.6707 35.9517 39.5746 33.0618 42.9122C32.9845 43.0015 32.8493 43.002 32.768 42.9164L25.1675 34.9159C24.2926 33.9949 22.8368 33.9576 21.9159 34.8325C20.9949 35.7074 20.9576 37.1632 21.8325 38.0841L29.873 46.5478C30.1712 46.8623 30.5383 47.2492 30.9002 47.5377C31.3387 47.8872 32.0572 48.3328 33.0411 48.31C34.0247 48.2872 34.7217 47.8092 35.1437 47.4396C35.4918 47.1348 35.8404 46.7314 36.1235 46.4038L36.1823 46.3358C38.9078 43.1867 45.1352 36.0077 51.7264 28.5197Z" fill="#3F4549"/>
</svg>
