<svg width="72" height="72" viewBox="0 0 72 72" fill="none" xmlns="http://www.w3.org/2000/svg">
<path d="M52.2363 7.99986C53.4355 7.9991 54.8633 7.99821 56.0913 8.1633C57.5735 8.36258 59.624 8.89604 61.3639 10.636C63.1039 12.376 63.6373 14.4264 63.8366 15.9087C64.0017 17.1366 64.0008 18.5644 64.0001 19.7636V37.2363C64.0008 38.4355 64.0017 39.8633 63.8366 41.0913C63.6806 42.2514 63.3199 43.7597 62.3363 45.1946L58 35.2631V20C58 17.1715 58 15.7573 57.1213 14.8786C56.2426 14 54.8284 14 52 14H20C17.1715 14 15.7573 14 14.8786 14.8786C14 15.7573 14 17.1715 14 20V35.2637L9.6638 45.1949C8.68001 43.7598 8.31929 42.2515 8.1633 41.0913C7.99821 39.8633 7.9991 38.4355 7.99986 37.2363V19.7637C7.9991 18.5644 7.99821 17.1366 8.1633 15.9087C8.36258 14.4264 8.89604 12.376 10.636 10.636C12.376 8.89604 14.4264 8.36258 15.9087 8.1633C17.1366 7.99821 18.5644 7.9991 19.7637 7.99986H52.2363Z" fill="black"/>
<path fill-rule="evenodd" clip-rule="evenodd" d="M21.972 32H50.0283L60.0876 55.0391C61.3928 58.0282 62.0453 59.5229 61.8222 60.7282C61.6271 61.7817 61.0176 62.7129 60.1302 63.3132C59.1149 64 57.484 64 54.2223 64H17.778C14.5163 64 12.8855 64 11.8701 63.3132C10.9827 62.7129 10.3732 61.7817 10.1781 60.7282C9.95497 59.5228 10.6075 58.0283 11.9127 55.0391L21.972 32ZM32.8347 35C32.3514 35 31.9373 35.3456 31.8508 35.8211L30.0001 46H26.0746C24.8058 46 24.1714 46 23.8888 46.2469C23.6438 46.4609 23.5182 46.7807 23.5521 47.1043C23.5912 47.4775 24.0561 47.9091 24.9858 48.7725L34.9114 57.989C35.2951 58.3454 35.487 58.5235 35.7052 58.5909C35.8973 58.6502 36.1029 58.6502 36.295 58.5909C36.5132 58.5235 36.7051 58.3454 37.0888 57.9891L47.0144 48.7725C47.9441 47.9091 48.409 47.4775 48.4481 47.1043C48.482 46.7807 48.3564 46.4609 48.1114 46.2469C47.8288 46 47.1944 46 45.9256 46H42.0001L40.1494 35.8211C40.0629 35.3456 39.6488 35 39.1655 35H32.8347Z" fill="black"/>
</svg>
