<svg width="72" height="72" viewBox="0 0 72 72" fill="none" xmlns="http://www.w3.org/2000/svg">
<path d="M8 31C8 43.7025 18.2975 54 31 54C31.1406 54 31.281 53.9987 31.421 53.9962C31.1452 52.7077 31 51.3708 31 50C31 49.8956 31.0008 49.7915 31.0025 49.6875H31C20.6792 49.6875 12.3125 41.3208 12.3125 31C12.3125 20.6792 20.6792 12.3125 31 12.3125C41.3208 12.3125 49.6875 20.6792 49.6875 31V31.0025C49.7915 31.0008 49.8956 31 50 31C51.3708 31 52.7077 31.1452 53.9962 31.421C53.9987 31.281 54 31.1406 54 31C54 18.2975 43.7025 8 31 8C18.2975 8 8 18.2975 8 31Z" fill="#3F4549"/>
<path d="M30.5625 21.6562C30.5625 20.4654 31.5279 19.5 32.7188 19.5C33.9096 19.5 34.875 20.4654 34.875 21.6562V31.7188C34.875 31.8241 34.8675 31.9277 34.8528 32.029C34.8726 32.7935 34.484 33.5448 33.775 33.9541L24.5236 40.1254C23.4923 40.7208 22.1735 40.3674 21.5781 39.3362C20.9826 38.3048 21.3361 36.9861 22.3673 36.3906L30.5625 30.8293V21.6562Z" fill="#3F4549"/>
<path fill-rule="evenodd" clip-rule="evenodd" d="M66 50C66 58.8366 58.8366 66 50 66C41.1634 66 34 58.8366 34 50C34 41.1634 41.1634 34 50 34C58.8366 34 66 41.1634 66 50ZM42 50C42 48.8954 42.8954 48 44 48H56C57.1046 48 58 48.8954 58 50C58 51.1046 57.1046 52 56 52H44C42.8954 52 42 51.1046 42 50Z" fill="#3F4549"/>
</svg>
