<svg width="72" height="72" viewBox="0 0 72 72" fill="none" xmlns="http://www.w3.org/2000/svg">
<path d="M36 9C51.464 9 64 14.5079 64 21.3023V21.3616C64 22.1845 63.6013 23.3044 62.273 24.6203C60.9679 25.9132 58.9848 27.1614 56.3998 28.2446C51.2466 30.4039 44.034 31.7712 35.9999 31.7712C27.9658 31.7712 20.7532 30.4039 15.6001 28.2446C13.0151 27.1614 11.0319 25.9132 9.72684 24.6203C8.40976 23.3155 8.00669 22.2034 8 21.3824V21.3023C8 14.5079 20.536 9 36 9Z" fill="#3F4549"/>
<path d="M8 27.8149V31.792C8.00669 32.613 8.40976 33.7251 9.72684 35.0299C11.0319 36.3228 13.0151 37.571 15.6001 38.6542C20.7532 40.8135 27.9658 42.1808 35.9999 42.1808C44.034 42.1808 51.2466 40.8135 56.3998 38.6542C58.9848 37.571 60.9679 36.3228 62.273 35.0299C63.6013 33.714 63.9999 32.5941 63.9999 31.7712L64 27.8148C62.3266 29.4412 60.0238 30.827 57.3194 31.9603C51.7956 34.2749 44.2582 35.6748 35.9999 35.6748C27.7416 35.6748 20.2042 34.2749 14.6805 31.9603C11.9761 30.8271 9.67342 29.4413 8 27.8149Z" fill="#3F4549"/>
<path d="M64 38.2244C62.3266 39.8508 60.0238 41.2366 57.3194 42.3699C51.7956 44.6845 44.2582 46.0844 35.9999 46.0844C27.7416 46.0844 20.2042 44.6845 14.6805 42.3699C11.9761 41.2367 9.67342 39.8509 8 38.2245V42.2016C8.00669 43.0226 8.40976 44.1347 9.72684 45.4395C11.0319 46.7324 13.0151 47.9806 15.6001 49.0638C20.7532 51.2231 27.9658 52.5904 35.9999 52.5904C44.034 52.5904 51.2466 51.2231 56.3998 49.0638C58.9848 47.9806 60.9679 46.7324 62.273 45.4395C63.6013 44.1236 63.9999 43.0037 63.9999 42.1808L64 38.2244Z" fill="#3F4549"/>
<path d="M64 48.634C62.3266 50.2605 60.0238 51.6462 57.3194 52.7795C51.7956 55.0941 44.2582 56.494 35.9999 56.494C27.7416 56.494 20.2042 55.0941 14.6805 52.7795C11.9761 51.6463 9.67342 50.2606 8 48.6341V52.6112C8.00669 53.4322 8.40976 54.5443 9.72684 55.8491C11.0319 57.1421 13.0151 58.3902 15.6001 59.4734C20.7532 61.6327 27.9658 63 35.9999 63C44.034 63 51.2466 61.6327 56.3998 59.4734C58.9848 58.3902 60.9679 57.1421 62.273 55.8491C63.6013 54.5332 63.9999 53.4133 63.9999 52.5904L64 48.634Z" fill="#3F4549"/>
</svg>
