<svg width="72" height="72" viewBox="0 0 72 72" fill="none" xmlns="http://www.w3.org/2000/svg">
<path d="M14.6401 20.7983H60.3211C61.056 20.7983 61.4235 20.7983 61.6911 20.968C61.8267 21.0539 61.9416 21.1688 62.0276 21.3042C62.1975 21.5716 62.1975 21.9387 62.1975 22.673V48.6947C63.7761 48.6793 64.6835 48.5967 65.3796 48.1553C65.8135 47.8802 66.1812 47.5128 66.4566 47.0793C67 46.2238 67 45.0489 67 42.6992V21.999C67 19.6494 67 18.4745 66.4566 17.619C66.1812 17.1855 65.8135 16.8181 65.3796 16.543C64.5233 16 63.3474 16 60.9957 16H20.6409C18.2891 16 17.1132 16 16.2569 16.543C15.823 16.8181 15.4553 17.1855 15.1799 17.619C14.7382 18.3145 14.6555 19.221 14.6401 20.7983Z" fill="#3F4549"/>
<path d="M33.1817 48.6983C38.0017 48.6983 41.909 44.7944 41.909 39.9787C41.909 35.1631 38.0017 31.2592 33.1817 31.2592C28.3618 31.2592 24.4545 35.1631 24.4545 39.9787C24.4545 44.7944 28.3618 48.6983 33.1817 48.6983Z" fill="#3F4549"/>
<path fill-rule="evenodd" clip-rule="evenodd" d="M7.40481 25.3242C7 26.0599 7 27.0373 7 28.9921V50.9654C7 52.9202 7 53.8976 7.40481 54.6333C7.704 55.177 8.15186 55.6245 8.69607 55.9234C9.43243 56.3279 10.4107 56.3279 12.3673 56.3279H53.9962C55.9528 56.3279 56.9311 56.3279 57.6674 55.9234C58.2116 55.6245 58.6595 55.177 58.9587 54.6333C59.3635 53.8976 59.3635 52.9202 59.3635 50.9654V28.9921C59.3635 27.0373 59.3635 26.0599 58.9587 25.3242C58.6595 24.7804 58.2116 24.333 57.6674 24.0341C56.9311 23.6296 55.9528 23.6296 53.9962 23.6296H12.3673C10.4107 23.6296 9.43243 23.6296 8.69607 24.0341C8.15186 24.333 7.704 24.7804 7.40481 25.3242ZM53.9962 28.4253H12.3673C12.0538 28.4253 11.8 28.6789 11.8 28.9921V50.9654C11.8 51.2786 12.0538 51.5321 12.3673 51.5321H53.9962C54.3097 51.5321 54.5635 51.2786 54.5635 50.9654V28.9921C54.5635 28.6789 54.3097 28.4253 53.9962 28.4253Z" fill="#3F4549"/>
</svg>
