<svg width="72" height="72" viewBox="0 0 72 72" fill="none" xmlns="http://www.w3.org/2000/svg">
<path d="M41.759 10C42.8227 10 43.2084 10.1108 43.5973 10.3187C43.9862 10.5267 44.2914 10.8319 44.4994 11.2208C44.7074 11.6097 44.8181 11.9954 44.8181 13.0592V13.1818H45.3087C49.5636 13.1818 51.1066 13.6248 52.6621 14.4568C54.2177 15.2887 55.4385 16.5095 56.2704 18.065C57.1023 19.6206 57.5454 21.1635 57.5454 25.4185V40.8133C55.9275 40.2439 54.1711 40.4786 52.7727 41.365V22.0334C52.7727 20.6151 52.625 20.1008 52.3477 19.5823C52.0704 19.0638 51.6634 18.6568 51.1449 18.3795C50.6264 18.1022 50.1121 17.9545 48.6938 17.9545H21.8516C20.4333 17.9545 19.919 18.1022 19.4005 18.3795C18.8819 18.6568 18.475 19.0638 18.1977 19.5823C17.9204 20.1008 17.7727 20.6151 17.7727 22.0334V52.0574C17.7727 53.4757 17.9204 53.99 18.1977 54.5085C18.475 55.0271 18.8819 55.434 19.4005 55.7113C19.919 55.9886 20.4333 56.1363 21.8516 56.1363H43.5884L40.8605 60.909H25.2367C20.9817 60.909 19.4388 60.466 17.8832 59.6341C16.3277 58.8021 15.1069 57.5813 14.2749 56.0258C13.443 54.4702 13 52.9273 13 48.6723V25.4185C13 21.1635 13.443 19.6206 14.2749 18.065C15.1069 16.5095 16.3277 15.2887 17.8832 14.4568C19.4388 13.6248 20.9817 13.1818 25.2367 13.1818L25.7273 13.1802V13.0592C25.7273 11.9954 25.838 11.6097 26.046 11.2208C26.254 10.8319 26.5592 10.5267 26.9481 10.3187C27.3369 10.1108 27.7227 10 28.7864 10H41.759Z" fill="#3F4549"/>
<path d="M45.6217 30.5853C46.4954 31.459 46.55 32.8416 45.7855 33.7789L45.6217 33.9601L34.4854 45.0964C33.6117 45.9701 32.2291 46.0247 31.2918 45.2603L31.1105 45.0964L24.9237 38.9096C23.9917 37.9777 23.9917 36.4667 24.9237 35.5348C25.7974 34.6611 27.18 34.6065 28.1173 35.3709L28.2985 35.5348L32.7979 40.0342L42.2469 30.5853C43.1788 29.6534 44.6898 29.6534 45.6217 30.5853Z" fill="#3F4549"/>
<path fill-rule="evenodd" clip-rule="evenodd" d="M69.3573 64.2429L58.1645 44.6603C57.9188 44.2305 57.5678 43.873 57.1458 43.6228C55.7995 42.8247 54.0728 43.2892 53.2891 44.6603L42.0963 64.2429C41.7619 64.8279 41.5857 65.4928 41.5857 66.1698C41.5857 68.2852 43.2695 70 45.3465 70H66.1071C66.7718 70 67.4246 69.8206 67.9991 69.48C69.7941 68.4158 70.4022 66.0711 69.3573 64.2429ZM54.6741 59.6384L54.3167 51.7439C54.3167 50.9263 54.948 50.2636 55.7268 50.2636C56.5056 50.2636 57.1369 50.9263 57.1369 51.7439L56.7801 59.6384C56.7801 60.4559 56.4291 61.0629 55.7271 61.0629C55.0251 61.0629 54.6741 60.4559 54.6741 59.6384ZM57.6069 65.0659C57.6069 66.1559 56.7652 67.0395 55.7268 67.0395C54.6884 67.0395 53.8467 66.1559 53.8467 65.0659C53.8467 63.9759 54.6884 63.0923 55.7268 63.0923C56.7652 63.0923 57.6069 63.9759 57.6069 65.0659Z" fill="#3F4549"/>
</svg>
