<svg width="73" height="72" viewBox="0 0 73 72" fill="none" xmlns="http://www.w3.org/2000/svg">
<path fill-rule="evenodd" clip-rule="evenodd" d="M8.05922 36.9386C8.36419 38.8641 9.95507 40.455 13.1368 43.6367L28.976 59.4759C32.1578 62.6577 33.7486 64.2486 35.6742 64.5535C36.296 64.652 36.9295 64.652 37.5514 64.5535C39.4769 64.2486 41.0678 62.6577 44.2495 59.4759L60.0887 43.6367C63.2705 40.455 64.8613 38.8641 65.1663 36.9386C65.2648 36.3167 65.2648 35.6832 65.1663 35.0614C64.8613 33.1359 63.2705 31.545 60.0887 28.3632L44.2495 12.524C41.0678 9.34228 39.4769 7.7514 37.5514 7.44643C36.9295 7.34794 36.296 7.34794 35.6742 7.44643C33.7486 7.7514 32.1578 9.34228 28.976 12.524L13.1368 28.3632C9.95507 31.545 8.36419 33.1359 8.05922 35.0614C7.96073 35.6832 7.96073 36.3167 8.05922 36.9386ZM33.2742 30.6603C34.7053 30.5015 36.5002 30.5015 38.7365 30.5015H39.9777V27.2697C39.9777 26.2564 39.9777 25.7498 40.1574 25.4569C40.3142 25.2014 40.5552 25.0367 40.8205 25.0037C41.1246 24.9658 41.4952 25.2192 42.2364 25.7258L49.0124 30.3576C49.7536 30.8642 50.1242 31.1176 50.2486 31.4483C50.3571 31.7368 50.3571 32.0662 50.2486 32.3547C50.1242 32.6854 49.7536 32.9387 49.0124 33.4454L42.2364 38.0772C41.4952 38.5838 41.1246 38.8371 40.8205 38.7993C40.5552 38.7663 40.3142 38.6016 40.1575 38.3461C39.9777 38.0532 39.9777 37.5465 39.9777 36.5332V33.3015H38.8201C36.4808 33.3015 34.8417 33.3035 33.5831 33.4432C32.3519 33.5799 31.6565 33.8338 31.1381 34.223C30.7909 34.4837 30.4823 34.7923 30.2215 35.1396C29.8323 35.6579 29.5784 36.3534 29.4418 37.5845C29.3021 38.8431 29.3001 40.4823 29.3001 42.8215V47.4299H26.5001L26.5001 42.7379C26.5 40.5016 26.5 38.7068 26.6589 37.2757C26.8227 35.7994 27.1697 34.5409 27.9824 33.4584C28.4019 32.8998 28.8983 32.4033 29.457 31.9839C30.5394 31.1711 31.798 30.8241 33.2742 30.6603Z" fill="#3F4549"/>
</svg>
