<svg width="72" height="72" viewBox="0 0 72 72" fill="none" xmlns="http://www.w3.org/2000/svg">
<path fill-rule="evenodd" clip-rule="evenodd" d="M7.55922 36.9386C7.86419 38.8641 9.45507 40.455 12.6368 43.6367L28.476 59.4759C31.6578 62.6577 33.2486 64.2486 35.1742 64.5535C35.796 64.652 36.4295 64.652 37.0514 64.5535C38.9769 64.2486 40.5678 62.6577 43.7495 59.4759L59.5887 43.6367C62.7705 40.455 64.3613 38.8641 64.6663 36.9386C64.7648 36.3167 64.7648 35.6832 64.6663 35.0614C64.3613 33.1359 62.7705 31.545 59.5887 28.3632L43.7495 12.524C40.5678 9.34228 38.9769 7.7514 37.0514 7.44643C36.4295 7.34794 35.796 7.34794 35.1742 7.44643C33.2486 7.7514 31.6578 9.34228 28.476 12.524L12.6368 28.3632C9.45507 31.545 7.86419 33.1359 7.55922 35.0614C7.46073 35.6832 7.46073 36.3167 7.55922 36.9386ZM32.7742 30.6603C34.2053 30.5015 36.0002 30.5015 38.2365 30.5015H39.4777V27.2697C39.4777 26.2564 39.4777 25.7498 39.6574 25.4569C39.8142 25.2014 40.0552 25.0367 40.3205 25.0037C40.6246 24.9658 40.9952 25.2192 41.7364 25.7258L48.5124 30.3576C49.2536 30.8642 49.6242 31.1176 49.7486 31.4483C49.8571 31.7368 49.8571 32.0662 49.7486 32.3547C49.6242 32.6854 49.2536 32.9387 48.5124 33.4454L41.7364 38.0772C40.9952 38.5838 40.6246 38.8371 40.3205 38.7993C40.0552 38.7663 39.8142 38.6016 39.6575 38.3461C39.4777 38.0532 39.4777 37.5465 39.4777 36.5332V33.3015H38.3201C35.9808 33.3015 34.3417 33.3035 33.0831 33.4432C31.8519 33.5799 31.1565 33.8338 30.6381 34.223C30.2909 34.4837 29.9823 34.7923 29.7215 35.1396C29.3323 35.6579 29.0784 36.3534 28.9418 37.5845C28.8021 38.8431 28.8001 40.4823 28.8001 42.8215V47.4299H26.0001L26.0001 42.7379C26 40.5016 26 38.7068 26.1589 37.2757C26.3227 35.7994 26.6697 34.5409 27.4824 33.4584C27.9019 32.8998 28.3983 32.4033 28.957 31.9839C30.0394 31.1711 31.298 30.8241 32.7742 30.6603Z" fill="#3F4549"/>
</svg>
