<svg width="72" height="72" viewBox="0 0 72 72" fill="none" xmlns="http://www.w3.org/2000/svg">
<path fill-rule="evenodd" clip-rule="evenodd" d="M34.7082 11.8011C29.036 11.8106 23.6229 11.8794 20.1742 11.9335C18.3417 11.9622 17.4255 11.9766 16.6905 12.4673C15.9555 12.958 15.5944 13.7906 14.8722 15.456C13.8862 17.7295 12.6363 20.6989 11.8 23.0001C10.6204 26.2459 9.03922 30.9104 8.34788 32.9634C8.17424 33.479 8.08738 33.7369 8.03547 34.0215C7.98356 34.306 7.97408 34.5687 7.95512 35.094C7.89617 36.7275 7.7998 40.141 7.7998 45.0001C7.7998 49.1834 7.87123 52.2953 7.92872 54.1223C7.95644 55.0035 7.97031 55.4441 8.25739 55.7253C8.54447 56.0066 8.98669 56.0114 9.87111 56.021C14.5969 56.0722 27.2577 56.2 35.9998 56.2C44.742 56.2 57.4028 56.0722 62.1285 56.021C63.013 56.0114 63.4552 56.0066 63.7422 55.7253C64.0293 55.4441 64.0432 55.0035 64.071 54.1224C64.1285 52.2954 64.2 49.1835 64.2 45.0001C64.2 40.1397 64.1035 36.7256 64.0445 35.0926C64.0255 34.568 64.016 34.3057 63.9642 34.0214C63.9124 33.7371 63.8257 33.4796 63.6525 32.9648C62.9632 30.9165 61.3866 26.2632 60.2 23.0001C59.3673 20.7102 58.1153 17.7361 57.1276 15.4577C56.4052 13.7914 56.044 12.9582 55.309 12.4674C54.5739 11.9766 53.6573 11.9622 51.8241 11.9335C48.8652 11.8871 44.4608 11.8298 39.6876 11.8085C39.759 12.0807 39.7678 12.308 39.77 12.4263C39.7754 12.7037 39.7424 12.9737 39.7103 13.1843C39.6481 13.593 39.5319 14.1256 39.4042 14.7109L39.3396 15.0074C43.96 15.0276 47.8707 15.0851 50.3368 15.1298C51.6958 15.1544 52.3753 15.1668 52.9173 15.5354C53.4594 15.9041 53.7186 16.5271 54.2371 17.7732C54.837 19.2147 55.6098 21.1097 56.3615 23.0625C57.235 25.3314 58.1941 28.3442 58.8401 30.4554C59.1939 31.6114 59.3707 32.1895 59.0709 32.5947C58.7711 33 58.1616 33 56.9426 33H38.9942L37.0992 35.6702C36.7761 36.1255 36.4765 36.5478 36.2264 36.8549C36.0966 37.0142 35.9217 37.2163 35.7128 37.3967C35.5408 37.5453 35.1089 37.8926 34.4652 37.9779C33.5195 38.1034 32.583 37.6897 32.0389 36.9061C31.6685 36.3728 31.6344 35.8197 31.6284 35.5924C31.6211 35.3165 31.6527 35.0511 31.6831 34.8479C31.7416 34.4561 31.852 33.9504 31.971 33.4048L32.0593 33H15.0532C13.8358 33 13.2272 33 12.9274 32.5952C12.6275 32.1904 12.8034 31.613 13.1553 30.4583C13.7986 28.3469 14.7548 25.3325 15.6287 23.0625C16.3818 21.1061 17.1583 19.2078 17.7609 17.7652C18.2797 16.5234 18.5391 15.9025 19.0807 15.5346C19.6223 15.1668 20.3003 15.1545 21.6564 15.1299C24.1034 15.0856 27.9765 15.0285 32.5555 15.0079L34.2307 12.5079C34.3984 12.2576 34.5585 12.0186 34.7082 11.8011ZM16 47C18.7614 47 21 44.7614 21 42C21 39.2386 18.7614 37 16 37C13.2386 37 11 39.2386 11 42C11 44.7614 13.2386 47 16 47ZM56 47C58.7614 47 61 44.7614 61 42C61 39.2386 58.7614 37 56 37C53.2386 37 51 39.2386 51 42C51 44.7614 53.2386 47 56 47Z" fill="#3F4549"/>
<path d="M65.5479 32.3267L65.5498 32.3321L65.576 32.41C65.6447 32.6138 65.7101 32.8077 65.7681 33C67.0699 32.9999 67.7276 32.9939 68.1719 32.6081C68.1964 32.5868 68.2203 32.5648 68.2435 32.542C68.6701 32.1234 68.7237 31.4541 68.8308 30.1154C68.9082 29.1473 68.9469 28.6632 68.674 28.3469C68.6593 28.3298 68.6441 28.3133 68.6283 28.2973C68.3346 28 67.8491 28 66.8779 28H64.077C64.6791 29.7521 65.2168 31.3428 65.5479 32.3267Z" fill="#3F4549"/>
<path d="M6.42433 32.4085C6.35533 32.6131 6.28986 32.8071 6.23169 33C4.93006 32.9999 4.27239 32.9939 3.8281 32.6081C3.80356 32.5868 3.77968 32.5648 3.75648 32.542C3.32987 32.1234 3.27632 31.4541 3.16923 30.1154C3.09178 29.1473 3.05306 28.6632 3.32597 28.3469C3.34066 28.3298 3.35592 28.3133 3.37173 28.2973C3.66535 28 4.15094 28 5.12212 28H7.92342C7.32201 29.75 6.78395 31.3407 6.45247 32.3251L6.42433 32.4085Z" fill="#3F4549"/>
<path d="M9 57.9984L9.01298 57.9992C9.27533 58.015 9.54047 58.0177 9.7737 58.0201L9.84946 58.0208C11.5348 58.0391 14.2311 58.0672 17.4001 58.0957C17.3986 58.7436 17.3827 59.4841 17.3604 60.2165C17.3066 61.9863 17.2797 62.8711 16.6978 63.4356C16.1159 64 15.215 64 13.413 64H12.9872C11.1852 64 10.2841 64 9.70226 63.4355C9.12038 62.8711 9.09349 61.9862 9.03971 60.2163C9.01636 59.4476 9 58.6701 9 58L9 57.9984Z" fill="#3F4549"/>
<path d="M54.8395 60.2163C54.8172 59.4832 54.8013 58.7421 54.7999 58.0938L54.9427 58.0926C57.9629 58.0651 60.526 58.0385 62.1502 58.0208L62.2966 58.0193C62.5772 58.0163 62.8971 58.0111 63.2 57.9832V58C63.2 58.6702 63.1836 59.4478 63.1602 60.2165C63.1064 61.9863 63.0795 62.8711 62.4976 63.4356C61.9157 64 61.0148 64 59.2128 64H58.787C56.985 64 56.084 64 55.5021 63.4355C54.9202 62.8711 54.8933 61.9862 54.8395 60.2163Z" fill="#3F4549"/>
<path d="M35.8559 13.6753L28.6485 24.4312C28.2041 25.0945 27.9818 25.4261 28.0012 25.6938C28.018 25.9268 28.1382 26.14 28.3289 26.2749C28.5481 26.4299 28.9469 26.4113 29.7444 26.374L35.4489 26.1071C35.5042 26.1045 35.5318 26.1032 35.5511 26.1138C35.568 26.1231 35.5809 26.1383 35.5872 26.1565C35.5944 26.1773 35.5885 26.2044 35.5767 26.2585L33.9391 33.767C33.6769 34.9689 33.5459 35.5698 33.6817 35.7653C33.7984 35.9335 33.9994 36.0222 34.2023 35.9953C34.4383 35.964 34.7942 35.4624 35.5062 34.4592L43.3549 23.3996C43.8289 22.7317 44.0659 22.3978 44.0517 22.1267C44.0394 21.8909 43.921 21.6733 43.7296 21.5349C43.5096 21.3758 43.1005 21.3936 42.2824 21.4291L35.9929 21.7018C35.9378 21.7042 35.9102 21.7054 35.891 21.6947C35.8742 21.6854 35.8614 21.6702 35.8551 21.652C35.8479 21.6313 35.8537 21.6043 35.8655 21.5504L37.4363 14.3483C37.7156 13.0679 37.8552 12.4278 37.7163 12.2312C37.597 12.0623 37.3925 11.9752 37.1881 12.0063C36.9501 12.0424 36.5854 12.5867 35.8559 13.6753Z" fill="#3F4549"/>
</svg>
