<svg width="72" height="72" viewBox="0 0 72 72" fill="none" xmlns="http://www.w3.org/2000/svg">
<path fill-rule="evenodd" clip-rule="evenodd" d="M14.4511 15.6655C15.2435 15.5998 16.1751 15.5999 17.109 15.6H54.8912C55.8251 15.5999 56.7567 15.5998 57.5491 15.6655C58.4279 15.7383 59.4931 15.9128 60.5579 16.4703C61.7872 17.1139 62.8018 18.0789 63.4807 19.255C64.0697 20.2755 64.2542 21.2973 64.3311 22.1388C64.4003 22.8959 64.4002 23.7851 64.4001 24.6732V47.3269C64.4002 48.215 64.4003 49.1041 64.3311 49.8611C64.2542 50.7027 64.0697 51.7245 63.4807 52.745C62.8018 53.921 61.7872 54.8861 60.5579 55.5297C59.4931 56.0872 58.4279 56.2616 57.5491 56.3345C56.7568 56.4002 55.8253 56.4001 54.8915 56.4H17.1088C16.175 56.4001 15.2434 56.4002 14.4511 56.3345C13.5723 56.2616 12.5071 56.0872 11.4423 55.5297C10.213 54.8861 9.19843 53.921 8.51955 52.745C7.93048 51.7245 7.74602 50.7027 7.66909 49.8611C7.59987 49.104 7.59999 48.2147 7.60011 47.3265V24.6734C7.59999 23.7852 7.59987 22.896 7.66909 22.1388C7.74602 21.2973 7.93048 20.2755 8.51955 19.255C9.19843 18.0789 10.213 17.1139 11.4423 16.4703C12.5071 15.9128 13.5723 15.7383 14.4511 15.6655ZM12.2794 21.2608C12.1688 21.4524 12.0884 21.6709 12.0311 21.9467L33.5302 38.583C34.0388 38.9766 34.4026 39.2577 34.7091 39.459C35.0109 39.6571 35.2343 39.7621 35.4546 39.8147C35.8126 39.9001 36.1875 39.9001 36.5455 39.8147C36.7659 39.7621 36.9893 39.6571 37.291 39.459C37.5976 39.2577 37.9613 38.9766 38.47 38.5829L59.9691 21.9467C59.9118 21.6709 59.8313 21.4524 59.7207 21.2608C59.4397 20.774 59.0174 20.3705 58.5007 20.1C58.1743 19.9291 57.7761 19.833 57.1794 19.7835C56.5783 19.7336 55.813 19.7333 54.7601 19.7333H17.2401C16.1872 19.7333 15.4219 19.7336 14.8207 19.7835C14.2241 19.833 13.8259 19.9291 13.4995 20.1C12.9828 20.3705 12.5605 20.774 12.2794 21.2608ZM60.1 45.2692L48.1643 36.388L60.1 27.152V45.2692ZM11.9001 27.1517V45.2692L23.8361 36.3879L11.9001 27.1517ZM41.0891 41.8629L44.7205 39.0528L59.8939 50.343C59.8468 50.49 59.7897 50.6197 59.7207 50.7392C59.4397 51.226 59.0174 51.6294 58.5007 51.9C58.1743 52.0709 57.7761 52.167 57.1795 52.2165C56.5783 52.2663 55.813 52.2667 54.7601 52.2667H17.2401C16.1872 52.2667 15.4219 52.2663 14.8207 52.2165C14.2241 52.167 13.8259 52.0709 13.4995 51.9C12.9828 51.6294 12.5605 51.226 12.2795 50.7392C12.2105 50.6197 12.1534 50.49 12.1063 50.343L27.2799 39.0527L30.912 41.8633C31.3483 42.2011 31.8318 42.5754 32.2835 42.872C32.8063 43.2153 33.5098 43.6093 34.4179 43.8261C35.4568 44.0741 36.5437 44.0741 37.5826 43.8261C38.4908 43.6093 39.1942 43.2153 39.7171 42.872C40.1688 42.5753 40.6526 42.2008 41.0891 41.8629Z" fill="#3F4549"/>
</svg>
