<svg width="72" height="72" viewBox="0 0 72 72" fill="none" xmlns="http://www.w3.org/2000/svg">
<path d="M63.8912 19.3384L39.1025 39.4792C37.951 40.4149 37.3752 40.8827 36.7295 41.0445C36.2506 41.1646 35.7494 41.1646 35.2705 41.0445C34.6248 40.8827 34.0491 40.4149 32.8975 39.4792L8.10884 19.3384C8.1803 18.8328 8.29868 18.4297 8.49477 18.073C8.86045 17.4078 9.40783 16.8604 10.073 16.4948C10.973 16 12.1686 16 14.56 16H57.44C59.8314 16 61.027 16 61.927 16.4948C62.5922 16.8604 63.1396 17.4078 63.5052 18.073C63.7013 18.4297 63.8197 18.8328 63.8912 19.3384Z" fill="#3F4549"/>
<path d="M64 24.4041L49.1458 36.4732L64 48.0785V24.4041Z" fill="#3F4549"/>
<path d="M8 24.4037V48.0786L22.8545 36.473L8 24.4037Z" fill="#3F4549"/>
<path d="M41.5441 42.6495L45.9608 39.0609L63.8287 53.0208C63.756 53.3649 63.6526 53.6591 63.5052 53.9271C63.1396 54.5922 62.5922 55.1396 61.927 55.5053C61.0271 56.0001 59.8314 56.0001 57.44 56.0001H14.56C12.1687 56.0001 10.973 56.0001 10.073 55.5053C9.40785 55.1396 8.86047 54.5922 8.4948 53.9271C8.34749 53.6591 8.24404 53.365 8.17139 53.0208L26.0394 39.0608L30.4564 42.6495C30.9608 43.0595 31.502 43.4995 32.0034 43.8452C32.577 44.2407 33.3309 44.6821 34.298 44.9245C35.4155 45.2047 36.5849 45.2046 37.7024 44.9245C38.6695 44.6821 39.4234 44.2407 39.9971 43.8452C40.4984 43.4995 41.0397 43.0595 41.5441 42.6495Z" fill="#3F4549"/>
</svg>
