<svg width="73" height="72" viewBox="0 0 73 72" fill="none" xmlns="http://www.w3.org/2000/svg">
<path d="M16.8974 8C18.6647 8 20.0974 9.43269 20.0974 11.2V60.8C20.0974 62.5673 18.6647 64 16.8974 64C15.13 64 13.6974 62.5673 13.6974 60.8V11.2C13.6974 9.43269 15.13 8 16.8974 8Z" fill="#3F4549"/>
<path d="M58.3518 63.0159C59.6536 61.7037 59.6536 59.5763 58.3518 58.2641L36.2644 36L58.3518 13.7359C59.6536 12.4237 59.6536 10.2963 58.3518 8.98412C57.0501 7.67196 54.9395 7.67196 53.6378 8.98412L29.1933 33.6241C27.8916 34.9363 27.8916 37.0637 29.1933 38.3759L53.6378 63.0159C54.9395 64.328 57.0501 64.328 58.3518 63.0159Z" fill="#3F4549"/>
</svg>
