<svg width="72" height="72" viewBox="0 0 72 72" fill="none" xmlns="http://www.w3.org/2000/svg">
<path d="M16.3847 8C18.152 8 19.5847 9.43269 19.5847 11.2V60.8C19.5847 62.5673 18.152 64 16.3847 64C14.6173 64 13.1847 62.5673 13.1847 60.8V11.2C13.1847 9.43269 14.6173 8 16.3847 8Z" fill="#3F4549"/>
<path d="M57.8391 63.0159C59.1409 61.7037 59.1409 59.5763 57.8391 58.2641L35.7517 36L57.8391 13.7359C59.1409 12.4237 59.1409 10.2963 57.8391 8.98412C56.5374 7.67196 54.4268 7.67196 53.1251 8.98412L28.6806 33.6241C27.3789 34.9363 27.3789 37.0637 28.6806 38.3759L53.1251 63.0159C54.4268 64.328 56.5374 64.328 57.8391 63.0159Z" fill="#3F4549"/>
</svg>
