<svg width="72" height="72" viewBox="0 0 72 72" fill="none" xmlns="http://www.w3.org/2000/svg">
<path d="M7.13299 15.5301C7.27164 15.3914 7.49736 15.3923 7.63715 15.5322L20.3433 28.2428C20.7459 28.6456 21.396 28.6483 21.7953 28.2488C22.1947 27.8494 22.192 27.199 21.7894 26.7963L9.39641 14.3989C9.0385 14.0409 9.03612 13.4627 9.3911 13.1076C9.74609 12.7525 10.324 12.7549 10.6819 13.1129L23.0749 25.5103C23.4775 25.9131 24.1276 25.9157 24.5269 25.5163C24.9262 25.1168 24.9235 24.4665 24.5209 24.0637L12.1279 11.6663C11.77 11.3083 11.7676 10.7302 12.1226 10.3752C12.4775 10.0201 13.0553 10.0225 13.4132 10.3805L25.8062 22.778C26.2089 23.1807 26.859 23.1834 27.2583 22.7839C27.6576 22.3845 27.6549 21.7341 27.2523 21.3314L14.5629 8.63746C14.4231 8.49759 14.4222 8.27176 14.5608 8.13304C14.6839 8.00988 14.8635 7.96704 15.0284 8.02646C19.2055 9.53141 27.8067 14.4528 30.0172 20.2544C30.8923 22.5515 31.1608 24.5146 31.4104 26.34C31.8409 29.4876 32.9295 31.511 36.2619 34.8446C39.0207 37.6044 42.8668 40.834 46.6722 44.0295C50.1291 46.9322 53.5526 49.807 56.097 52.2758C60.6195 56.6638 62.9854 59.9545 62.9967 62.6982C62.9993 63.3206 62.5968 63.6 62.5968 63.6C62.5968 63.6 62.3176 64.0025 61.6954 64C58.9526 63.9887 55.6632 61.6219 51.2767 57.0978C48.8087 54.5525 45.9351 51.1278 43.0333 47.6697C39.839 43.8629 36.6106 40.0154 33.8518 37.2556C30.5193 33.922 28.4966 32.833 25.3502 32.4024C23.5254 32.1527 21.563 31.8841 19.2668 31.0086C13.4672 28.7974 8.53087 20.1764 7.02645 15.9978C6.96705 15.8328 7.00987 15.6532 7.13299 15.5301Z" fill="#3F4549"/>
<path d="M27.3645 43.603C29.1837 42.0621 31.0123 40.5134 32.7269 39.0142C33.5526 39.8542 34.4212 40.7907 35.3207 41.7949C33.849 43.4815 32.3306 45.2755 30.8198 47.0605C27.908 50.5007 25.0243 53.9078 22.5576 56.448C18.1732 60.9631 14.9105 63.3497 12.2382 63.4279C11.6319 63.4457 11.3003 63.1299 11.3003 63.1299C11.3003 63.1299 10.9846 62.7982 11.0024 62.1917C11.0806 59.5184 13.4663 56.2545 17.9798 51.8686C20.5191 49.401 23.9248 46.5165 27.3637 43.6037L27.3645 43.603Z" fill="#3F4549"/>
<path d="M38.2078 33.9031C38.9419 34.6188 39.7457 35.3655 40.6011 36.1357C43.6442 33.3748 46.757 32.7008 50.0014 31.9983C52.1724 31.5283 54.4022 31.0455 56.7095 29.9161C62.1416 27.2573 68.1045 16.2275 63.1452 11.2665C58.186 6.30549 47.1601 12.2705 44.5022 17.7045C43.3733 20.0126 42.8906 22.2433 42.4208 24.415C41.7121 27.6905 41.0323 30.8321 38.2078 33.9031Z" fill="#3F4549"/>
</svg>
