<svg width="72" height="72" viewBox="0 0 72 72" fill="none" xmlns="http://www.w3.org/2000/svg">
<path d="M36 7.20001C34.7291 7.20001 33.688 8.22374 33.688 9.50001L33.7305 13.9399L28.2244 10.096L28.2078 10.0847C27.1483 9.38395 25.7153 9.66575 25.0057 10.7217C24.2934 11.7816 24.5844 13.2121 25.6477 13.9154L33.7819 19.2949L33.9075 32.397L22.5209 25.7324L21.8919 16.0573C21.8091 14.7841 20.7042 13.8294 19.4363 13.9105C18.1677 13.9917 17.1946 15.0803 17.2774 16.3542L17.279 16.3745L17.8807 23.0166L14.0263 20.7605L14.0198 20.7568C12.9176 20.1255 11.5054 20.4976 10.8652 21.5976C10.2228 22.7014 10.6067 24.1099 11.7125 24.7433L15.6008 26.9217L9.50805 29.7228L9.48992 29.7314C8.34621 30.2924 7.87124 31.6728 8.441 32.8159C9.00895 33.9555 10.3947 34.4164 11.5349 33.8571L20.3033 29.5561L31.8016 35.9979L20.3015 42.4431L11.5349 38.1429C10.3947 37.5837 9.00895 38.0446 8.441 39.1841C7.87124 40.3272 8.34621 41.7077 9.48991 42.2687L9.50805 42.2773L15.6 45.078L11.719 47.2531L11.7125 47.2568C10.6067 47.8902 10.2229 49.2986 10.8653 50.4024C11.5054 51.5024 12.9177 51.8745 14.0198 51.2433L17.8807 48.9835L17.279 55.6255L17.2774 55.6458C17.1946 56.9197 18.1677 58.0084 19.4363 58.0895C20.7042 58.1707 21.8091 57.2159 21.8919 55.9427L22.5209 46.2676L33.9038 39.6052L33.7803 52.7061L25.6477 58.0847C24.5844 58.7879 24.2934 60.2184 25.0057 61.2783C25.7153 62.3343 27.1483 62.6161 28.2078 61.9154L28.2244 61.904L33.7298 58.0606L33.688 62.4925V62.5C33.688 63.7763 34.7291 64.8 36 64.8C37.2709 64.8 38.3121 63.7763 38.3121 62.5L38.2699 58.0603L43.7756 61.904L43.7922 61.9154C44.8517 62.6161 46.2847 62.3343 46.9944 61.2783C47.7066 60.2184 47.4156 58.7879 46.3523 58.0847L38.2189 52.7056L38.0944 39.6062L49.4792 46.2685L50.1082 55.9427C50.1909 57.2159 51.2958 58.1706 52.5638 58.0895C53.8324 58.0083 54.8054 56.9197 54.7226 55.6458L54.721 55.6255L54.1194 48.9839L57.9739 51.2396L57.9804 51.2433C59.0825 51.8745 60.4947 51.5024 61.1349 50.4024C61.7773 49.2986 61.3934 47.8901 60.2876 47.2568L56.3997 45.0782L62.492 42.2773L62.5101 42.2687C63.6538 41.7076 64.1288 40.3272 63.559 39.1841C62.9911 38.0446 61.6054 37.5836 60.4652 38.1429L51.6977 42.4435L40.1986 36L51.6977 29.5566L60.4652 33.8571C61.6054 34.4164 62.9911 33.9555 63.559 32.8159C64.1288 31.6728 63.6538 30.2924 62.5101 29.7314L62.492 29.7228L56.3997 26.9219L60.2811 24.747L60.2876 24.7433C61.3934 24.1099 61.7773 22.7014 61.1349 21.5976C60.4947 20.4976 59.0825 20.1255 57.9804 20.7568L54.1193 23.0171L54.721 16.3745L54.7226 16.3542C54.8054 15.0803 53.8324 13.9917 52.5638 13.9105C51.2958 13.8294 50.1909 14.7841 50.1082 16.0573L49.4791 25.7334L38.0943 32.3982L38.2189 19.2944L46.3523 13.9154C47.4156 13.2121 47.7066 11.7816 46.9944 10.7217C46.2847 9.66575 44.8517 9.38395 43.7922 10.0847L43.7756 10.096L38.2699 13.9397L38.3121 9.50762V9.50001C38.3121 8.22374 37.2709 7.20001 36 7.20001Z" fill="#3F4549"/>
</svg>
