<svg width="72" height="72" viewBox="0 0 72 72" fill="none" xmlns="http://www.w3.org/2000/svg">
<path fill-rule="evenodd" clip-rule="evenodd" d="M10.3884 16.6136C11.9449 14.9672 14.1024 14 16.4 14H55.6C57.8976 14 60.0551 14.9672 61.6116 16.6136C63.1617 18.2531 64 20.4359 64 22.6731V49.3269C64 51.5641 63.1617 53.7469 61.6116 55.3864C60.0551 57.0328 57.8976 58 55.6 58H16.4C14.1024 58 11.9449 57.0328 10.3884 55.3864C8.83832 53.7469 8 51.5641 8 49.3269V22.6731C8 20.4359 8.83832 18.2531 10.3884 16.6136ZM16.4 19.5C15.7272 19.5 15.0359 19.7808 14.492 20.3561C13.9417 20.9382 13.6 21.7685 13.6 22.6731V49.3269C13.6 50.2315 13.9417 51.0618 14.492 51.6439C15.0359 52.2192 15.7272 52.5 16.4 52.5H55.6C56.2728 52.5 56.9641 52.2192 57.508 51.6439C58.0583 51.0618 58.4 50.2315 58.4 49.3269V22.6731C58.4 21.7685 58.0583 20.9382 57.508 20.3561C56.9641 19.7808 56.2728 19.5 55.6 19.5H16.4Z" fill="#3F4549"/>
<path fill-rule="evenodd" clip-rule="evenodd" d="M38.8041 28.576C38.8041 27.0572 40.0577 25.826 41.6041 25.826L50.0041 25.826C51.5505 25.826 52.8041 27.0572 52.8041 28.576C52.8041 30.0948 51.5505 31.326 50.0041 31.326H41.6041C40.0577 31.326 38.8041 30.0948 38.8041 28.576Z" fill="#3F4549"/>
<path fill-rule="evenodd" clip-rule="evenodd" d="M41.6048 38.201C41.6048 36.6822 42.8584 35.451 44.4048 35.451H50.0048C51.5512 35.451 52.8048 36.6822 52.8048 38.201C52.8048 39.7198 51.5512 40.951 50.0048 40.951H44.4048C42.8584 40.951 41.6048 39.7198 41.6048 38.201Z" fill="#3F4549"/>
<path d="M28.5337 34.4849C26.0884 34.4849 24.1062 32.5668 24.1062 30.2007C24.1062 27.8347 26.0884 25.9166 28.5337 25.9166C30.9789 25.9166 32.9612 27.8347 32.9612 30.2007C32.9612 32.5668 30.9789 34.4849 28.5337 34.4849ZM37.979 43.5678C37.979 48.144 19.0883 48.144 19.0883 43.5678C19.0883 39.8288 22.9024 35.7089 28.5337 35.7089C34.165 35.7089 37.979 39.8122 37.979 43.5678Z" fill="#3F4549"/>
</svg>
