<svg width="72" height="72" viewBox="0 0 72 72" fill="none" xmlns="http://www.w3.org/2000/svg">
<path fill-rule="evenodd" clip-rule="evenodd" d="M36 59.8C49.1444 59.8 59.8 49.1444 59.8 36C59.8 22.8556 49.1444 12.2 36 12.2C22.8556 12.2 12.2 22.8556 12.2 36C12.2 49.1444 22.8556 59.8 36 59.8ZM36 64C51.464 64 64 51.464 64 36C64 20.536 51.464 8 36 8C20.536 8 8 20.536 8 36C8 51.464 20.536 64 36 64Z" fill="#3F4549"/>
<path d="M40.3556 22.9333C40.3556 25.3388 38.4055 27.2888 36 27.2888C33.5945 27.2888 31.6444 25.3388 31.6444 22.9333C31.6444 20.5278 33.5945 18.5777 36 18.5777C38.4055 18.5777 40.3556 20.5278 40.3556 22.9333Z" fill="#3F4549"/>
<path d="M32.5772 35.0667C32.5772 33.1767 34.1094 31.6445 35.9994 31.6445C37.8894 31.6445 39.4216 33.1767 39.4216 35.0667V50.6223C39.4216 52.5123 37.8894 54.0445 35.9994 54.0445C34.1094 54.0445 32.5772 52.5123 32.5772 50.6223V35.0667Z" fill="#3F4549"/>
</svg>
