<svg width="72" height="72" viewBox="0 0 72 72" fill="none" xmlns="http://www.w3.org/2000/svg">
<mask id="path-1-outside-1_2006_1249" maskUnits="userSpaceOnUse" x="-2.52366" y="-1.00155" width="61.6718" height="72.4415" fill="black">
<rect fill="white" x="-2.52366" y="-1.00155" width="61.6718" height="72.4415"/>
<path fill-rule="evenodd" clip-rule="evenodd" d="M31.1393 40.499C37.837 41.5142 44.7292 38.1504 47.9345 31.7215C51.9055 23.7568 48.7139 14.1039 40.8058 10.161C32.8976 6.21816 23.2676 9.4785 19.2966 17.4432C16.2747 23.5042 17.4007 30.5429 21.5966 35.2989C21.488 35.4596 21.3762 35.6838 21.2175 36.002L13.6176 51.245C13.5077 51.4656 13.4527 51.5759 13.4257 51.6925C13.4055 51.7797 13.397 51.8691 13.4003 51.9585C13.4048 52.0779 13.438 52.1962 13.5044 52.4326L15.3987 59.1801C15.5579 59.7472 15.6375 60.0307 15.8141 60.2125C15.9447 60.3469 16.1104 60.4415 16.2924 60.4857C16.5386 60.5454 16.823 60.4697 17.3917 60.3184L24.5208 58.4215C25.0168 58.2895 25.2648 58.2235 25.4391 58.0745C25.5683 57.964 25.6677 57.8226 25.7281 57.6635C25.8095 57.4488 25.788 57.1925 25.7452 56.68L25.3207 51.6024C25.2828 51.1484 25.2638 50.9213 25.3296 50.724C25.3785 50.5773 25.4603 50.4438 25.5687 50.3337C25.7146 50.1854 25.9253 50.0995 26.3467 49.9275L31.0191 48.0213C31.4702 47.8373 31.6959 47.7452 31.8466 47.5849C31.9584 47.4661 32.0399 47.3218 32.0841 47.1646C32.1436 46.9528 32.1061 46.7119 32.0311 46.2301L31.1393 40.499ZM40.7904 19.1565C39.7976 21.1476 37.3901 21.9627 35.4131 20.977C33.4361 19.9913 32.6382 17.5781 33.6309 15.5869C34.6237 13.5957 37.0312 12.7806 39.0082 13.7664C40.9852 14.7521 41.7832 17.1653 40.7904 19.1565Z"/>
</mask>
<path fill-rule="evenodd" clip-rule="evenodd" d="M31.1393 40.499C37.837 41.5142 44.7292 38.1504 47.9345 31.7215C51.9055 23.7568 48.7139 14.1039 40.8058 10.161C32.8976 6.21816 23.2676 9.4785 19.2966 17.4432C16.2747 23.5042 17.4007 30.5429 21.5966 35.2989C21.488 35.4596 21.3762 35.6838 21.2175 36.002L13.6176 51.245C13.5077 51.4656 13.4527 51.5759 13.4257 51.6925C13.4055 51.7797 13.397 51.8691 13.4003 51.9585C13.4048 52.0779 13.438 52.1962 13.5044 52.4326L15.3987 59.1801C15.5579 59.7472 15.6375 60.0307 15.8141 60.2125C15.9447 60.3469 16.1104 60.4415 16.2924 60.4857C16.5386 60.5454 16.823 60.4697 17.3917 60.3184L24.5208 58.4215C25.0168 58.2895 25.2648 58.2235 25.4391 58.0745C25.5683 57.964 25.6677 57.8226 25.7281 57.6635C25.8095 57.4488 25.788 57.1925 25.7452 56.68L25.3207 51.6024C25.2828 51.1484 25.2638 50.9213 25.3296 50.724C25.3785 50.5773 25.4603 50.4438 25.5687 50.3337C25.7146 50.1854 25.9253 50.0995 26.3467 49.9275L31.0191 48.0213C31.4702 47.8373 31.6959 47.7452 31.8466 47.5849C31.9584 47.4661 32.0399 47.3218 32.0841 47.1646C32.1436 46.9528 32.1061 46.7119 32.0311 46.2301L31.1393 40.499ZM40.7904 19.1565C39.7976 21.1476 37.3901 21.9627 35.4131 20.977C33.4361 19.9913 32.6382 17.5781 33.6309 15.5869C34.6237 13.5957 37.0312 12.7806 39.0082 13.7664C40.9852 14.7521 41.7832 17.1653 40.7904 19.1565Z" fill="black"/>
<path d="M31.1393 40.499L31.5889 37.5329L27.5463 36.9201L28.175 40.9603L31.1393 40.499ZM21.5966 35.2989L24.0823 36.9785L25.382 35.055L23.8462 33.3142L21.5966 35.2989ZM13.4257 51.6925L10.5029 51.0161L10.5029 51.0162L13.4257 51.6925ZM13.4003 51.9585L16.3982 51.846L16.3982 51.8459L13.4003 51.9585ZM13.5044 52.4326L16.3927 51.6218L16.3927 51.6217L13.5044 52.4326ZM15.3987 59.1801L12.5103 59.991L12.5103 59.991L15.3987 59.1801ZM15.8141 60.2125L13.6625 62.3031L13.6626 62.3032L15.8141 60.2125ZM16.2924 60.4857L16.9996 57.5702L16.9996 57.5702L16.2924 60.4857ZM17.3917 60.3184L16.6204 57.4192L16.6203 57.4193L17.3917 60.3184ZM24.5208 58.4215L23.7494 55.5224L23.7494 55.5224L24.5208 58.4215ZM25.4391 58.0745L27.3885 60.3548L27.3886 60.3547L25.4391 58.0745ZM25.7281 57.6635L22.9229 56.5999L22.9229 56.5999L25.7281 57.6635ZM25.7452 56.68L22.7556 56.9299L22.7556 56.9299L25.7452 56.68ZM25.3207 51.6024L22.3312 51.8524L25.3207 51.6024ZM25.3296 50.724L22.4838 49.7746L22.4838 49.7747L25.3296 50.724ZM25.5687 50.3337L27.7071 52.4378L27.7071 52.4378L25.5687 50.3337ZM26.3467 49.9275L25.2134 47.1498L25.2134 47.1498L26.3467 49.9275ZM31.0191 48.0213L32.1523 50.799L32.1524 50.799L31.0191 48.0213ZM31.8466 47.5849L29.6612 45.5297L29.6611 45.5298L31.8466 47.5849ZM32.0841 47.1646L29.1959 46.3531L29.1959 46.3532L32.0841 47.1646ZM32.0311 46.2301L34.9954 45.7688L34.9954 45.7688L32.0311 46.2301ZM30.6897 43.4651C38.6488 44.6715 46.8215 40.6774 50.6193 33.0601L45.2497 30.3829C42.6369 35.6233 37.0252 38.3569 31.5889 37.5329L30.6897 43.4651ZM50.6193 33.0601C55.3206 23.6307 51.5533 12.1673 42.1444 7.47621L39.4672 12.8458C45.8745 16.0404 48.4905 23.883 45.2497 30.3829L50.6193 33.0601ZM42.1444 7.47621C32.7354 2.7851 21.3131 6.6752 16.6118 16.1046L21.9814 18.7818C25.2222 12.2818 33.0598 9.65123 39.4672 12.8458L42.1444 7.47621ZM16.6118 16.1046C13.0309 23.2868 14.364 31.6355 19.3469 37.2836L23.8462 33.3142C20.4373 29.4502 19.5185 23.7215 21.9814 18.7818L16.6118 16.1046ZM19.1108 33.6192C18.8646 33.9836 18.6524 34.4234 18.5327 34.6634L23.9023 37.3406C23.9867 37.1713 24.0366 37.0717 24.0773 36.9948C24.1186 36.9169 24.1158 36.9289 24.0823 36.9785L19.1108 33.6192ZM18.5327 34.6634L10.9328 49.9064L16.3024 52.5836L23.9023 37.3406L18.5327 34.6634ZM10.9328 49.9064C10.886 50.0003 10.6283 50.4742 10.5029 51.0161L16.3485 52.3689C16.3047 52.5578 16.2483 52.6894 16.2337 52.7222C16.2281 52.735 16.2283 52.7337 16.2419 52.7058C16.2558 52.6773 16.2732 52.6422 16.3024 52.5836L10.9328 49.9064ZM10.5029 51.0162C10.423 51.3615 10.3891 51.7162 10.4025 52.071L16.3982 51.8459C16.4048 52.0221 16.388 52.1979 16.3485 52.3688L10.5029 51.0162ZM10.4025 52.0709C10.4234 52.6285 10.588 53.1436 10.6161 53.2435L16.3927 51.6217C16.3751 51.5588 16.3646 51.5214 16.3564 51.4911C16.3483 51.4614 16.3485 51.4604 16.3517 51.4745C16.3601 51.5105 16.3909 51.6513 16.3982 51.846L10.4025 52.0709ZM10.6161 53.2435L12.5103 59.991L18.287 58.3692L16.3927 51.6218L10.6161 53.2435ZM12.5103 59.991C12.5758 60.2241 12.6739 60.5832 12.792 60.897C12.9236 61.2471 13.1675 61.7937 13.6625 62.3031L17.9657 58.1219C18.2841 58.4495 18.3999 58.7635 18.4078 58.7845C18.4121 58.7962 18.4045 58.777 18.3804 58.6964C18.3564 58.616 18.3288 58.518 18.287 58.3692L12.5103 59.991ZM13.6626 62.3032C14.1871 62.8429 14.8534 63.2236 15.5853 63.4011L16.9996 57.5702C17.3674 57.6594 17.7023 57.8508 17.9656 58.1218L13.6626 62.3032ZM15.5852 63.4011C16.2761 63.5687 16.8713 63.5007 17.2399 63.436C17.5703 63.378 17.9295 63.2797 18.1632 63.2175L16.6203 57.4193C16.4711 57.4589 16.3729 57.485 16.2915 57.5052C16.21 57.5255 16.1898 57.5286 16.2023 57.5264C16.225 57.5224 16.5549 57.4623 16.9996 57.5702L15.5852 63.4011ZM18.1631 63.2175L25.2922 61.3206L23.7494 55.5224L16.6204 57.4192L18.1631 63.2175ZM25.2922 61.3206C25.4937 61.267 25.8161 61.1835 26.1019 61.0824C26.427 60.9672 26.9125 60.7618 27.3885 60.3548L23.4896 55.7942C23.7914 55.5363 24.0657 55.4383 24.0992 55.4265C24.1139 55.4212 24.1009 55.4265 24.0325 55.4458C23.9639 55.4652 23.8799 55.4876 23.7494 55.5224L25.2922 61.3206ZM27.3886 60.3547C27.901 59.9166 28.2945 59.3566 28.5332 58.727L22.9229 56.5999C23.041 56.2886 23.2356 56.0114 23.4896 55.7943L27.3886 60.3547ZM28.5332 58.7271C28.7548 58.1426 28.7844 57.6172 28.7832 57.273C28.7822 56.9702 28.7522 56.6387 28.7348 56.4301L22.7556 56.9299C22.7669 57.0648 22.7741 57.1517 22.779 57.2232C22.7838 57.2945 22.7833 57.3089 22.7832 57.2938C22.7831 57.2596 22.7827 56.9697 22.9229 56.5999L28.5332 58.7271ZM28.7348 56.4301L28.3103 51.3525L22.3312 51.8524L22.7556 56.9299L28.7348 56.4301ZM28.3103 51.3525C28.3003 51.2328 28.294 51.1569 28.2897 51.0948C28.2855 51.0331 28.286 51.023 28.2861 51.0396C28.2865 51.0796 28.2871 51.3386 28.1755 51.6732L22.4838 49.7747C22.1755 50.6988 22.3165 51.677 22.3312 51.8524L28.3103 51.3525ZM28.1755 51.6733C28.0798 51.9602 27.9197 52.2217 27.7071 52.4378L23.4303 48.2295C23.001 48.6658 22.6773 49.1944 22.4838 49.7746L28.1755 51.6733ZM27.7071 52.4378C27.4591 52.6898 27.2275 52.8071 27.1911 52.8252C27.176 52.8327 27.1846 52.8278 27.2413 52.8036C27.2985 52.7794 27.3687 52.7506 27.4799 52.7053L25.2134 47.1498C25.0512 47.216 24.1145 47.5343 23.4303 48.2295L27.7071 52.4378ZM27.4799 52.7053L32.1523 50.799L29.8859 45.2436L25.2134 47.1498L27.4799 52.7053ZM32.1524 50.799C32.3351 50.7245 32.6309 50.6061 32.8909 50.4756C33.188 50.3265 33.623 50.0751 34.0321 49.6401L29.6611 45.5298C29.9195 45.255 30.1663 45.1298 30.2001 45.1128C30.2145 45.1056 30.2039 45.1115 30.1424 45.1377C30.0806 45.1641 30.0047 45.1951 29.8858 45.2436L32.1524 50.799ZM34.032 49.6402C34.4749 49.1692 34.7975 48.5982 34.9722 47.976L29.1959 46.3532C29.2823 46.0454 29.4419 45.7629 29.6612 45.5297L34.032 49.6402ZM34.9722 47.976C35.1336 47.4017 35.1247 46.8997 35.0992 46.5684C35.0769 46.2784 35.0258 45.964 34.9954 45.7688L29.0668 46.6913C29.0865 46.8182 29.0991 46.8994 29.1084 46.966C29.1177 47.0324 29.1181 47.0447 29.1169 47.0287C29.114 46.9913 29.094 46.7157 29.1959 46.3531L34.9722 47.976ZM34.9954 45.7688L34.1036 40.0377L28.175 40.9603L29.0668 46.6913L34.9954 45.7688ZM34.0745 23.6618C37.5523 25.3958 41.7522 23.951 43.4752 20.4951L38.1056 17.8179C37.8431 18.3443 37.228 18.5297 36.7517 18.2922L34.0745 23.6618ZM30.9461 14.2483C29.2231 17.7042 30.5967 21.9278 34.0745 23.6618L36.7517 18.2922C36.2754 18.0548 36.0532 17.452 36.3157 16.9255L30.9461 14.2483ZM40.3468 11.0815C36.869 9.34757 32.6692 10.7924 30.9461 14.2483L36.3157 16.9255C36.5782 16.399 37.1934 16.2137 37.6696 16.4512L40.3468 11.0815ZM43.4752 20.4951C45.1982 17.0392 43.8246 12.8155 40.3468 11.0815L37.6696 16.4512C38.1459 16.6886 38.3681 17.2914 38.1056 17.8179L43.4752 20.4951Z" fill="white" mask="url(#path-1-outside-1_2006_1249)"/>
<mask id="path-3-outside-2_2006_1249" maskUnits="userSpaceOnUse" x="25.1329" y="3.0229" width="47.7118" height="67.4215" fill="black">
<rect fill="white" x="25.1329" y="3.0229" width="47.7118" height="67.4215"/>
<path fill-rule="evenodd" clip-rule="evenodd" d="M54.3794 39.3434C60.3946 36.2279 63.9933 29.4554 62.8077 22.3703C61.3388 13.5926 53.0829 7.65921 44.3675 9.11766C35.6521 10.5761 29.7777 18.8741 31.2466 27.6518C32.3644 34.3315 37.4125 39.3641 43.6026 40.7455C43.6092 40.9393 43.6505 41.1865 43.7092 41.5372L46.5204 58.3361C46.5611 58.5792 46.5814 58.7007 46.6281 58.8109C46.6631 58.8933 46.7087 58.9707 46.764 59.041C46.8378 59.135 46.9342 59.2112 47.1269 59.3634L52.6254 63.7088C53.0875 64.074 53.3186 64.2566 53.5683 64.2999C53.7529 64.3318 53.9427 64.311 54.1159 64.2397C54.3501 64.1433 54.5357 63.915 54.9069 63.4582L59.5594 57.7333C59.8831 57.335 60.045 57.1358 60.0984 56.9128C60.138 56.7475 60.1353 56.5746 60.0906 56.4104C60.0303 56.1889 59.8623 55.9941 59.5264 55.6047L56.1985 51.7464C55.9009 51.4013 55.7521 51.2288 55.6893 51.0304C55.6427 50.883 55.6304 50.7269 55.6533 50.5741C55.6842 50.3685 55.8041 50.1751 56.044 49.7883L58.7036 45.4997C58.9604 45.0857 59.0889 44.8785 59.1166 44.6603C59.1372 44.4984 59.1183 44.3338 59.0616 44.1807C58.9853 43.9743 58.8133 43.8014 58.4695 43.4557L54.3794 39.3434ZM49.6424 16.4042C50.0097 18.5986 48.5411 20.6731 46.3622 21.0377C44.1834 21.4023 42.1194 19.919 41.7522 17.7246C41.3849 15.5301 42.8536 13.4556 45.0324 13.091C47.2112 12.7264 49.2752 14.2098 49.6424 16.4042Z"/>
</mask>
<path fill-rule="evenodd" clip-rule="evenodd" d="M54.3794 39.3434C60.3946 36.2279 63.9933 29.4554 62.8077 22.3703C61.3388 13.5926 53.0829 7.65921 44.3675 9.11766C35.6521 10.5761 29.7777 18.8741 31.2466 27.6518C32.3644 34.3315 37.4125 39.3641 43.6026 40.7455C43.6092 40.9393 43.6505 41.1865 43.7092 41.5372L46.5204 58.3361C46.5611 58.5792 46.5814 58.7007 46.6281 58.8109C46.6631 58.8933 46.7087 58.9707 46.764 59.041C46.8378 59.135 46.9342 59.2112 47.1269 59.3634L52.6254 63.7088C53.0875 64.074 53.3186 64.2566 53.5683 64.2999C53.7529 64.3318 53.9427 64.311 54.1159 64.2397C54.3501 64.1433 54.5357 63.915 54.9069 63.4582L59.5594 57.7333C59.8831 57.335 60.045 57.1358 60.0984 56.9128C60.138 56.7475 60.1353 56.5746 60.0906 56.4104C60.0303 56.1889 59.8623 55.9941 59.5264 55.6047L56.1985 51.7464C55.9009 51.4013 55.7521 51.2288 55.6893 51.0304C55.6427 50.883 55.6304 50.7269 55.6533 50.5741C55.6842 50.3685 55.8041 50.1751 56.044 49.7883L58.7036 45.4997C58.9604 45.0857 59.0889 44.8785 59.1166 44.6603C59.1372 44.4984 59.1183 44.3338 59.0616 44.1807C58.9853 43.9743 58.8133 43.8014 58.4695 43.4557L54.3794 39.3434ZM49.6424 16.4042C50.0097 18.5986 48.5411 20.6731 46.3622 21.0377C44.1834 21.4023 42.1194 19.919 41.7522 17.7246C41.3849 15.5301 42.8536 13.4556 45.0324 13.091C47.2112 12.7264 49.2752 14.2098 49.6424 16.4042Z" fill="black"/>
<path d="M54.3794 39.3434L52.9997 36.6795L49.369 38.5599L52.2523 41.459L54.3794 39.3434ZM43.6026 40.7455L46.6008 40.6433L46.5217 38.3232L44.256 37.8175L43.6026 40.7455ZM46.6281 58.8109L43.866 59.9817L43.866 59.9817L46.6281 58.8109ZM46.764 59.041L49.1232 57.1879L49.1232 57.1878L46.764 59.041ZM47.1269 59.3634L48.987 57.0097L48.9869 57.0097L47.1269 59.3634ZM52.6254 63.7088L50.7653 66.0626L50.7653 66.0626L52.6254 63.7088ZM53.5683 64.2999L53.0565 67.2559L53.0566 67.2559L53.5683 64.2999ZM54.1159 64.2397L52.9743 61.4654L52.9743 61.4654L54.1159 64.2397ZM54.9069 63.4582L52.5788 61.5662L52.5787 61.5662L54.9069 63.4582ZM59.5594 57.7333L57.2313 55.8413L57.2313 55.8413L59.5594 57.7333ZM60.0984 56.9128L63.0159 57.6117L63.0159 57.6117L60.0984 56.9128ZM60.0906 56.4104L57.196 57.1987L57.1961 57.1988L60.0906 56.4104ZM59.5264 55.6047L57.2547 57.5641L57.2547 57.5641L59.5264 55.6047ZM56.1985 51.7464L53.9268 53.7058L56.1985 51.7464ZM55.6893 51.0304L52.829 51.9351L52.829 51.9352L55.6893 51.0304ZM55.6533 50.5741L58.6201 51.0195L58.6201 51.0195L55.6533 50.5741ZM56.044 49.7883L53.4945 48.2072L53.4945 48.2072L56.044 49.7883ZM58.7036 45.4997L61.2531 47.0809L61.2532 47.0808L58.7036 45.4997ZM59.1166 44.6603L56.1405 44.2822L56.1405 44.2822L59.1166 44.6603ZM59.0616 44.1807L56.2481 45.2218L56.2481 45.2219L59.0616 44.1807ZM58.4695 43.4557L60.5965 41.3402L60.5965 41.3402L58.4695 43.4557ZM55.7591 42.0073C62.9072 38.3051 67.1714 30.27 65.7666 21.8752L59.8488 22.8655C60.8153 28.6407 57.8821 34.1508 52.9997 36.6795L55.7591 42.0073ZM65.7666 21.8752C64.0275 11.4833 54.2417 4.42357 43.8723 6.15881L44.8626 12.0765C51.924 10.8948 58.6501 15.702 59.8488 22.8655L65.7666 21.8752ZM43.8723 6.15881C33.503 7.89404 26.5487 17.7551 28.2877 28.147L34.2054 27.1567C33.0067 19.9932 37.8012 13.2582 44.8626 12.0765L43.8723 6.15881ZM28.2877 28.147C29.6123 36.0624 35.5981 42.0329 42.9491 43.6735L44.256 37.8175C39.227 36.6952 35.1164 32.6007 34.2054 27.1567L28.2877 28.147ZM40.6043 40.8477C40.6193 41.2873 40.7061 41.7678 40.7504 42.0323L46.6681 41.042C46.6369 40.8554 46.6186 40.7455 46.6064 40.6594C46.5939 40.5721 46.5988 40.5834 46.6008 40.6433L40.6043 40.8477ZM40.7504 42.0323L43.5615 58.8312L49.4792 57.8409L46.6681 41.042L40.7504 42.0323ZM43.5615 58.8312C43.5789 58.9347 43.649 59.4696 43.866 59.9817L49.3903 57.6402C49.4659 57.8187 49.4976 57.9583 49.5051 57.9934C49.5081 58.0071 49.5075 58.0059 49.5021 57.9754C49.4966 57.9442 49.4901 57.9055 49.4792 57.8409L43.5615 58.8312ZM43.866 59.9817C44.0043 60.308 44.1854 60.6149 44.4048 60.8942L49.1232 57.1878C49.2321 57.3265 49.3218 57.4786 49.3902 57.6401L43.866 59.9817ZM44.4047 60.8941C44.7494 61.3329 45.1853 61.6528 45.2668 61.7172L48.9869 57.0097C48.9357 56.9692 48.9052 56.9451 48.8807 56.9254C48.8568 56.9061 48.8563 56.9052 48.8672 56.9147C48.8951 56.9389 49.0029 57.0347 49.1232 57.1879L44.4047 60.8941ZM45.2668 61.7172L50.7653 66.0626L54.4855 61.3551L48.987 57.0097L45.2668 61.7172ZM50.7653 66.0626C50.9553 66.2127 51.2458 66.4456 51.5257 66.6301C51.838 66.8358 52.3566 67.1347 53.0565 67.2559L54.0801 61.3439C54.5303 61.4218 54.8086 61.6078 54.8273 61.6201C54.8377 61.627 54.8202 61.616 54.7534 61.5649C54.6867 61.514 54.6067 61.4509 54.4855 61.3551L50.7653 66.0626ZM53.0566 67.2559C53.7981 67.3843 54.561 67.3006 55.2574 67.0141L52.9743 61.4654C53.3243 61.3214 53.7078 61.2794 54.08 61.3438L53.0566 67.2559ZM55.2574 67.0141C55.9148 66.7435 56.3564 66.3387 56.6165 66.0696C56.8497 65.8286 57.0825 65.5379 57.235 65.3502L52.5787 61.5662C52.4814 61.686 52.4172 61.7649 52.3632 61.829C52.3092 61.8933 52.2947 61.9077 52.3035 61.8986C52.3195 61.882 52.5511 61.6395 52.9743 61.4654L55.2574 67.0141ZM57.235 65.3503L61.8876 59.6253L57.2313 55.8413L52.5788 61.5662L57.235 65.3503ZM61.8876 59.6253C62.0191 59.4634 62.2309 59.2064 62.4026 58.9566C62.598 58.6724 62.8699 58.2208 63.0159 57.6117L57.181 56.2139C57.2735 55.8278 57.4378 55.5873 57.4579 55.558C57.4668 55.5452 57.4594 55.557 57.4154 55.6129C57.3713 55.6689 57.3165 55.7364 57.2313 55.8413L61.8876 59.6253ZM63.0159 57.6117C63.1729 56.956 63.1621 56.2717 62.9852 55.622L57.1961 57.1988C57.1086 56.8775 57.1031 56.5389 57.181 56.2139L63.0159 57.6117ZM62.9852 55.6221C62.8209 55.0189 62.5361 54.5765 62.3328 54.2988C62.1539 54.0543 61.9348 53.8038 61.7981 53.6453L57.2547 57.5641C57.3431 57.6666 57.4 57.7327 57.446 57.7877C57.4918 57.8425 57.4999 57.8545 57.4909 57.8423C57.4707 57.8146 57.3 57.5804 57.196 57.1987L62.9852 55.6221ZM61.7981 53.6453L58.4702 49.7869L53.9268 53.7058L57.2547 57.5641L61.7981 53.6453ZM58.4702 49.7869C58.3917 49.6959 58.3421 49.6383 58.3021 49.5906C58.2624 49.5431 58.2568 49.5346 58.2667 49.548C58.2905 49.5801 58.4432 49.7893 58.5496 50.1256L52.829 51.9352C53.1228 52.864 53.8118 53.5725 53.9268 53.7058L58.4702 49.7869ZM58.5496 50.1257C58.6409 50.4141 58.6651 50.7197 58.6201 51.0195L52.6866 50.1287C52.5957 50.7341 52.6445 51.352 52.829 51.9351L58.5496 50.1257ZM58.6201 51.0195C58.5676 51.3691 58.4492 51.6001 58.4304 51.6362C58.4226 51.6512 58.4266 51.6421 58.4583 51.5892C58.4903 51.536 58.5302 51.4715 58.5935 51.3694L53.4945 48.2072C53.4022 48.356 52.8314 49.1642 52.6866 50.1287L58.6201 51.0195ZM58.5935 51.3694L61.2531 47.0809L56.1541 43.9186L53.4945 48.2072L58.5935 51.3694ZM61.2532 47.0808C61.3572 46.9131 61.5269 46.6435 61.6605 46.3851C61.8133 46.0898 62.0174 45.6308 62.0927 45.0384L56.1405 44.2822C56.188 43.9081 56.3141 43.6617 56.3315 43.6281C56.3389 43.6137 56.3338 43.6248 56.2994 43.6822C56.2649 43.7398 56.2217 43.8095 56.1541 43.9186L61.2532 47.0808ZM62.0927 45.0385C62.1742 44.3971 62.0994 43.7455 61.8752 43.1395L56.2481 45.2219C56.1372 44.922 56.1002 44.5997 56.1405 44.2822L62.0927 45.0385ZM61.8752 43.1395C61.6681 42.58 61.3659 42.1792 61.1505 41.9261C60.962 41.7046 60.7359 41.4803 60.5965 41.3402L56.3424 45.5713C56.433 45.6624 56.4908 45.7206 56.5376 45.769C56.5841 45.8172 56.5916 45.827 56.5812 45.8148C56.5569 45.7862 56.3788 45.575 56.2481 45.2218L61.8752 43.1395ZM60.5965 41.3402L56.5064 37.2278L52.2523 41.459L56.3424 45.5713L60.5965 41.3402ZM46.8574 23.9966C50.6902 23.3552 53.2387 19.7177 52.6013 15.909L46.6836 16.8993C46.7807 17.4795 46.3919 17.991 45.8671 18.0789L46.8574 23.9966ZM38.7933 18.2197C39.4307 22.0283 43.0245 24.638 46.8574 23.9966L45.8671 18.0789C45.3422 18.1667 44.8081 17.8096 44.711 17.2294L38.7933 18.2197ZM44.5373 10.1322C40.7044 10.7736 38.156 14.4111 38.7933 18.2197L44.711 17.2294C44.6139 16.6492 45.0027 16.1377 45.5275 16.0499L44.5373 10.1322ZM52.6013 15.909C51.964 12.1004 48.3701 9.49076 44.5373 10.1322L45.5275 16.0499C46.0524 15.962 46.5865 16.3191 46.6836 16.8993L52.6013 15.909Z" fill="white" mask="url(#path-3-outside-2_2006_1249)"/>
</svg>
