<svg width="72" height="72" viewBox="0 0 72 72" fill="none" xmlns="http://www.w3.org/2000/svg">
<mask id="path-1-outside-1_761_23483" maskUnits="userSpaceOnUse" x="9" y="4" width="55" height="63" fill="black">
<rect fill="white" x="9" y="4" width="55" height="63"/>
<path fill-rule="evenodd" clip-rule="evenodd" d="M59.775 21.6147C60.9602 28.7743 57.3628 35.6181 51.3497 38.7663L55.4383 42.9219C55.782 43.2713 55.9539 43.4459 56.0303 43.6545C56.0869 43.8092 56.1058 43.9756 56.0852 44.1392C56.0575 44.3597 55.9291 44.569 55.6724 44.9874L53.0137 49.3211C52.7739 49.7119 52.654 49.9073 52.6231 50.1152C52.6002 50.2695 52.6125 50.4273 52.6591 50.5762C52.7219 50.7767 52.8706 50.951 53.1681 51.2997L56.4948 55.1986C56.8307 55.5922 56.9986 55.789 57.0589 56.0128C57.1036 56.1787 57.1063 56.3534 57.0667 56.5205C57.0133 56.7459 56.8515 56.9471 56.5279 57.3496L51.877 63.1348C51.5059 63.5963 51.3204 63.8271 51.0862 63.9245C50.9131 63.9965 50.7234 64.0176 50.5389 63.9853C50.2893 63.9416 50.0583 63.757 49.5963 63.388L44.0997 58.9969C43.9071 58.8431 43.8107 58.7661 43.7369 58.6711C43.6817 58.6 43.6361 58.5219 43.6011 58.4386C43.5544 58.3272 43.5341 58.2044 43.4934 57.9588L40.6833 40.9832C40.6246 40.6288 40.5833 40.379 40.5767 40.1832C34.3888 38.7872 29.3424 33.7017 28.225 26.9518C26.7566 18.0818 32.629 9.69651 41.3413 8.22272C50.0536 6.74893 58.3066 12.7447 59.775 21.6147ZM43.3353 20.2681C45.5134 19.8997 46.9815 17.8034 46.6144 15.5859C46.2473 13.3684 44.184 11.8694 42.006 12.2379C39.8279 12.6063 38.3598 14.7026 38.7269 16.9201C39.094 19.1376 41.1573 20.6366 43.3353 20.2681Z"/>
<path d="M16.3849 18.8214C19.244 12.2407 25.761 8.50918 32.3505 9.05209C27.8941 12.6198 25.04 18.1058 25.04 24.2584C25.04 31.6394 29.1476 38.0611 35.2015 41.3622C33.2746 41.9151 31.243 42.1008 29.2117 41.8776L30.3518 47.7005C30.4476 48.1899 30.4955 48.4347 30.4453 48.654C30.4081 48.8168 30.333 48.968 30.2266 49.0947C30.0832 49.2653 29.8619 49.3696 29.4196 49.578L24.8384 51.7367C24.4252 51.9314 24.2187 52.0287 24.0795 52.1869C23.9762 52.3044 23.9003 52.4446 23.8579 52.5968C23.8008 52.8017 23.8296 53.0331 23.8873 53.4959L24.5323 58.671C24.5974 59.1934 24.63 59.4546 24.5581 59.6778C24.5048 59.8433 24.4117 59.9924 24.2875 60.1112C24.12 60.2715 23.8753 60.3501 23.3859 60.5072L16.3521 62.766C15.7909 62.9463 15.5103 63.0364 15.262 62.9863C15.0784 62.9492 14.9088 62.8598 14.7726 62.7282C14.5884 62.5502 14.4966 62.2637 14.3129 61.6906L12.1279 54.8728C12.0513 54.6339 12.013 54.5145 12.0033 54.3925C11.9961 54.3012 12.0007 54.2093 12.017 54.1192C12.0389 53.9987 12.089 53.8835 12.1891 53.6529L19.1113 37.7205C19.2558 37.3879 19.3577 37.1535 19.4591 36.9843C15.0633 32.3065 13.6325 25.1565 16.3849 18.8214Z"/>
</mask>
<path fill-rule="evenodd" clip-rule="evenodd" d="M59.775 21.6147C60.9602 28.7743 57.3628 35.6181 51.3497 38.7663L55.4383 42.9219C55.782 43.2713 55.9539 43.4459 56.0303 43.6545C56.0869 43.8092 56.1058 43.9756 56.0852 44.1392C56.0575 44.3597 55.9291 44.569 55.6724 44.9874L53.0137 49.3211C52.7739 49.7119 52.654 49.9073 52.6231 50.1152C52.6002 50.2695 52.6125 50.4273 52.6591 50.5762C52.7219 50.7767 52.8706 50.951 53.1681 51.2997L56.4948 55.1986C56.8307 55.5922 56.9986 55.789 57.0589 56.0128C57.1036 56.1787 57.1063 56.3534 57.0667 56.5205C57.0133 56.7459 56.8515 56.9471 56.5279 57.3496L51.877 63.1348C51.5059 63.5963 51.3204 63.8271 51.0862 63.9245C50.9131 63.9965 50.7234 64.0176 50.5389 63.9853C50.2893 63.9416 50.0583 63.757 49.5963 63.388L44.0997 58.9969C43.9071 58.8431 43.8107 58.7661 43.7369 58.6711C43.6817 58.6 43.6361 58.5219 43.6011 58.4386C43.5544 58.3272 43.5341 58.2044 43.4934 57.9588L40.6833 40.9832C40.6246 40.6288 40.5833 40.379 40.5767 40.1832C34.3888 38.7872 29.3424 33.7017 28.225 26.9518C26.7566 18.0818 32.629 9.69651 41.3413 8.22272C50.0536 6.74893 58.3066 12.7447 59.775 21.6147ZM43.3353 20.2681C45.5134 19.8997 46.9815 17.8034 46.6144 15.5859C46.2473 13.3684 44.184 11.8694 42.006 12.2379C39.8279 12.6063 38.3598 14.7026 38.7269 16.9201C39.094 19.1376 41.1573 20.6366 43.3353 20.2681Z" fill="#3F4549"/>
<path d="M16.3849 18.8214C19.244 12.2407 25.761 8.50918 32.3505 9.05209C27.8941 12.6198 25.04 18.1058 25.04 24.2584C25.04 31.6394 29.1476 38.0611 35.2015 41.3622C33.2746 41.9151 31.243 42.1008 29.2117 41.8776L30.3518 47.7005C30.4476 48.1899 30.4955 48.4347 30.4453 48.654C30.4081 48.8168 30.333 48.968 30.2266 49.0947C30.0832 49.2653 29.8619 49.3696 29.4196 49.578L24.8384 51.7367C24.4252 51.9314 24.2187 52.0287 24.0795 52.1869C23.9762 52.3044 23.9003 52.4446 23.8579 52.5968C23.8008 52.8017 23.8296 53.0331 23.8873 53.4959L24.5323 58.671C24.5974 59.1934 24.63 59.4546 24.5581 59.6778C24.5048 59.8433 24.4117 59.9924 24.2875 60.1112C24.12 60.2715 23.8753 60.3501 23.3859 60.5072L16.3521 62.766C15.7909 62.9463 15.5103 63.0364 15.262 62.9863C15.0784 62.9492 14.9088 62.8598 14.7726 62.7282C14.5884 62.5502 14.4966 62.2637 14.3129 61.6906L12.1279 54.8728C12.0513 54.6339 12.013 54.5145 12.0033 54.3925C11.9961 54.3012 12.0007 54.2093 12.017 54.1192C12.0389 53.9987 12.089 53.8835 12.1891 53.6529L19.1113 37.7205C19.2558 37.3879 19.3577 37.1535 19.4591 36.9843C15.0633 32.3065 13.6325 25.1565 16.3849 18.8214Z" fill="#3F4549"/>
<path d="M51.3497 38.7663L49.9582 36.1086L46.3729 37.9856L49.2112 40.8704L51.3497 38.7663ZM59.775 21.6147L56.8153 22.1047V22.1047L59.775 21.6147ZM55.4383 42.9219L57.5768 40.8179V40.8179L55.4383 42.9219ZM56.0303 43.6545L53.2131 44.6858L53.2131 44.6858L56.0303 43.6545ZM56.0852 44.1392L53.1086 43.765L53.1086 43.7651L56.0852 44.1392ZM55.6724 44.9874L58.2295 46.5562L58.2295 46.5562L55.6724 44.9874ZM53.0137 49.3211L50.4565 47.7523L50.4565 47.7523L53.0137 49.3211ZM52.6231 50.1152L49.6557 49.6745L49.6557 49.6745L52.6231 50.1152ZM52.6591 50.5762L49.796 51.4721L49.796 51.4722L52.6591 50.5762ZM53.1681 51.2997L50.886 53.247L50.886 53.247L53.1681 51.2997ZM56.4948 55.1986L54.2127 57.1459L54.2127 57.1459L56.4948 55.1986ZM57.0589 56.0128L54.1622 56.7932L54.1622 56.7933L57.0589 56.0128ZM57.0667 56.5205L59.9858 57.2123L59.9858 57.2122L57.0667 56.5205ZM56.5279 57.3496L54.1898 55.4699L54.1898 55.4699L56.5279 57.3496ZM51.877 63.1348L54.2151 65.0145L51.877 63.1348ZM51.0862 63.9245L49.9341 61.1545L49.934 61.1546L51.0862 63.9245ZM50.5389 63.9853L50.0217 66.9403L50.0218 66.9404L50.5389 63.9853ZM49.5963 63.388L47.7238 65.7319L47.7238 65.7319L49.5963 63.388ZM44.0997 58.9969L45.9722 56.653L45.9721 56.653L44.0997 58.9969ZM43.7369 58.6711L46.1058 56.8304L46.1058 56.8303L43.7369 58.6711ZM43.6011 58.4386L40.8345 59.5986L40.8345 59.5987L43.6011 58.4386ZM43.4934 57.9588L40.5337 58.4487V58.4487L43.4934 57.9588ZM40.6833 40.9832L43.643 40.4932V40.4932L40.6833 40.9832ZM40.5767 40.1832L43.5749 40.0821L43.4969 37.7666L41.2368 37.2567L40.5767 40.1832ZM28.225 26.9518L25.2653 27.4418L28.225 26.9518ZM41.3413 8.22272L41.8417 11.1807L41.3413 8.22272ZM46.6144 15.5859L43.6547 16.0758L43.6547 16.0758L46.6144 15.5859ZM43.3353 20.2681L42.8349 17.3102L43.3353 20.2681ZM42.006 12.2379L42.5063 15.1958L42.006 12.2379ZM38.7269 16.9201L41.6866 16.4302L38.7269 16.9201ZM32.3505 9.05209L34.2254 11.394L40.112 6.68139L32.5968 6.06222L32.3505 9.05209ZM16.3849 18.8214L19.1364 20.0168L16.3849 18.8214ZM35.2015 41.3622L36.0288 44.2459L43.058 42.2293L36.6377 38.7284L35.2015 41.3622ZM29.2117 41.8776L29.5393 38.8955L25.4837 38.45L26.2676 42.454L29.2117 41.8776ZM30.3518 47.7005L33.2959 47.1241L33.2959 47.1241L30.3518 47.7005ZM30.4453 48.654L27.5209 47.985L27.5209 47.9851L30.4453 48.654ZM30.2266 49.0947L27.9301 47.1643L27.9301 47.1643L30.2266 49.0947ZM29.4196 49.578L30.6983 52.2918L30.6984 52.2918L29.4196 49.578ZM24.8384 51.7367L26.1172 54.4505L26.1172 54.4505L24.8384 51.7367ZM24.0795 52.1869L26.3319 54.1685L26.3319 54.1685L24.0795 52.1869ZM23.8579 52.5968L20.9681 51.791L20.9681 51.791L23.8579 52.5968ZM23.8873 53.4959L20.9103 53.8669L23.8873 53.4959ZM24.5323 58.671L21.5553 59.0421L21.5553 59.0421L24.5323 58.671ZM24.5581 59.6778L21.7025 58.7582L21.7025 58.7582L24.5581 59.6778ZM24.2875 60.1112L26.3612 62.2791L26.3612 62.2791L24.2875 60.1112ZM23.3859 60.5072L22.4687 57.6509L22.4687 57.6509L23.3859 60.5072ZM16.3521 62.766L15.4348 59.9097L15.4348 59.9097L16.3521 62.766ZM15.262 62.9863L15.8551 60.0455H15.8551L15.262 62.9863ZM14.7726 62.7282L12.6877 64.8854L12.6878 64.8855L14.7726 62.7282ZM14.3129 61.6906L11.456 62.6062L11.456 62.6062L14.3129 61.6906ZM12.1279 54.8728L14.9847 53.9572L14.9847 53.9572L12.1279 54.8728ZM12.0033 54.3925L14.9939 54.1552L14.9939 54.1551L12.0033 54.3925ZM12.017 54.1192L9.0652 53.5838L9.06519 53.5839L12.017 54.1192ZM12.1891 53.6529L9.43762 52.4575L9.43762 52.4575L12.1891 53.6529ZM19.1113 37.7205L21.8628 38.916L21.8628 38.916L19.1113 37.7205ZM19.4591 36.9843L22.0326 38.5261L23.1975 36.5817L21.6453 34.9299L19.4591 36.9843ZM52.7412 41.4241C59.8917 37.6803 64.1333 29.5732 62.7347 21.1248L56.8153 22.1047C57.7871 27.9755 54.8338 33.5559 49.9582 36.1086L52.7412 41.4241ZM57.5768 40.8179L53.4881 36.6623L49.2112 40.8704L53.2998 45.0259L57.5768 40.8179ZM58.8474 42.6232C58.6432 42.0652 58.3443 41.664 58.1295 41.4089C57.9417 41.1858 57.7163 40.9597 57.5768 40.8179L53.2998 45.0259C53.3904 45.1179 53.4483 45.1769 53.4951 45.2259C53.5417 45.2747 53.5495 45.2849 53.5396 45.2731C53.5157 45.2448 53.341 45.0352 53.2131 44.6858L58.8474 42.6232ZM59.0618 44.5134C59.1419 43.8756 59.0686 43.2273 58.8474 42.6231L53.2131 44.6858C53.1052 44.3911 53.0696 44.0755 53.1086 43.765L59.0618 44.5134ZM58.2295 46.5562C58.3338 46.3861 58.5025 46.1152 58.6352 45.8558C58.7869 45.5594 58.9878 45.102 59.0618 44.5132L53.1086 43.7651C53.1549 43.3969 53.2777 43.1543 53.2941 43.1223C53.3009 43.109 53.2954 43.121 53.2608 43.1792C53.2261 43.2378 53.1828 43.3085 53.1152 43.4186L58.2295 46.5562ZM55.5708 50.8899L58.2295 46.5562L53.1152 43.4186L50.4565 47.7523L55.5708 50.8899ZM55.5906 50.5559C55.5395 50.9 55.4241 51.1275 55.4063 51.1621C55.399 51.1761 55.4035 51.1662 55.4354 51.1125C55.4675 51.0584 55.5076 50.9929 55.5708 50.8899L50.4565 47.7523C50.3613 47.9076 49.7983 48.714 49.6557 49.6745L55.5906 50.5559ZM55.5222 49.6803C55.6108 49.9635 55.6341 50.2626 55.5906 50.5558L49.6557 49.6745C49.5663 50.2765 49.6142 50.8912 49.796 51.4721L55.5222 49.6803ZM55.4503 49.3525C55.3718 49.2606 55.3221 49.2021 55.282 49.1538C55.2422 49.1057 55.2363 49.0967 55.2457 49.1095C55.2688 49.141 55.4183 49.3481 55.5222 49.6803L49.796 51.4722C50.0861 52.3992 50.7679 53.1086 50.886 53.247L55.4503 49.3525ZM58.777 53.2514L55.4503 49.3525L50.886 53.247L54.2127 57.1459L58.777 53.2514ZM59.9556 55.2324C59.7938 54.6318 59.5127 54.1898 59.3102 53.9101C59.1322 53.6642 58.914 53.4119 58.777 53.2514L54.2127 57.1459C54.301 57.2494 54.3581 57.3164 54.4041 57.3721C54.4501 57.4276 54.4586 57.4402 54.4502 57.4286C54.4306 57.4017 54.2636 57.1699 54.1622 56.7932L59.9556 55.2324ZM59.9858 57.2122C60.1404 56.5598 60.1298 55.8791 59.9556 55.2323L54.1622 56.7933C54.0773 56.4783 54.0721 56.147 54.1475 55.8287L59.9858 57.2122ZM58.866 59.2293C58.9978 59.0653 59.2087 58.8066 59.3795 58.5554C59.574 58.2694 59.8422 57.8185 59.9858 57.2123L54.1475 55.8287C54.2378 55.4479 54.3984 55.2103 54.4177 55.1818C54.426 55.1696 54.4181 55.1822 54.374 55.2388C54.3298 55.2957 54.2749 55.364 54.1898 55.4699L58.866 59.2293ZM54.2151 65.0145L58.866 59.2293L54.1898 55.4699L49.5389 61.2551L54.2151 65.0145ZM52.2383 66.6944C52.8982 66.42 53.3396 66.0102 53.598 65.74C53.8304 65.4972 54.0625 65.2043 54.2151 65.0145L49.5389 61.2551C49.4416 61.3761 49.3773 61.456 49.3232 61.521C49.269 61.5861 49.2541 61.6011 49.2625 61.5923C49.2769 61.5773 49.5084 61.3316 49.9341 61.1545L52.2383 66.6944ZM50.0218 66.9404C50.7695 67.0712 51.5382 66.9857 52.2384 66.6944L49.934 61.1546C50.2879 61.0074 50.6774 60.9639 51.056 61.0302L50.0218 66.9404ZM47.7238 65.7319C47.9137 65.8836 48.2041 66.1189 48.484 66.3054C48.7956 66.5129 49.3166 66.8169 50.0217 66.9403L51.0561 61.0302C51.5116 61.1099 51.7923 61.2998 51.8105 61.3119C51.8209 61.3189 51.8035 61.3078 51.7366 61.2562C51.6699 61.2046 51.5899 61.1409 51.4688 61.0441L47.7238 65.7319ZM42.2272 61.3408L47.7238 65.7319L51.4688 61.0441L45.9722 56.653L42.2272 61.3408ZM41.368 60.5118C41.7107 60.9528 42.1449 61.2751 42.2272 61.3408L45.9721 56.653C45.9209 56.6121 45.8904 56.5877 45.866 56.5678C45.842 56.5483 45.8415 56.5473 45.8523 56.5568C45.88 56.5812 45.9868 56.6772 46.1058 56.8304L41.368 60.5118ZM40.8345 59.5987C40.9711 59.9244 41.1502 60.2316 41.3681 60.5119L46.1058 56.8303C46.2132 56.9685 46.301 57.1193 46.3678 57.2785L40.8345 59.5987ZM40.5337 58.4487C40.5514 58.5558 40.6205 59.0883 40.8345 59.5986L46.3678 57.2786C46.4417 57.4549 46.4725 57.5924 46.4795 57.6256C46.4823 57.6384 46.4815 57.6364 46.4761 57.6052C46.4705 57.5733 46.464 57.534 46.4532 57.4688L40.5337 58.4487ZM37.7235 41.4731L40.5337 58.4487L46.4532 57.4688L43.643 40.4932L37.7235 41.4731ZM37.5784 40.2842C37.5932 40.7233 37.679 41.204 37.7235 41.4731L43.643 40.4932C43.6118 40.3049 43.5935 40.193 43.5811 40.105C43.5685 40.016 43.573 40.0249 43.5749 40.0821L37.5784 40.2842ZM25.2653 27.4418C26.5846 35.4112 32.5528 41.4484 39.9165 43.1096L41.2368 37.2567C36.2248 36.126 32.1002 31.9922 31.1847 26.4618L25.2653 27.4418ZM40.8409 5.26474C30.4511 7.0223 23.535 16.9896 25.2653 27.4418L31.1847 26.4618C29.9783 19.174 34.8069 12.3707 41.8417 11.1807L40.8409 5.26474ZM62.7347 21.1248C61.0032 10.665 51.2393 3.50572 40.8409 5.26474L41.8417 11.1807C48.8678 9.99213 55.6101 14.8245 56.8153 22.1047L62.7347 21.1248ZM43.6547 16.0758C43.7598 16.7111 43.3355 17.2255 42.8349 17.3102L43.8357 23.2261C47.6913 22.5739 50.2031 18.8956 49.5741 15.0959L43.6547 16.0758ZM42.5063 15.1958C42.9983 15.1126 43.5508 15.4481 43.6547 16.0758L49.5741 15.0959C48.9438 11.2886 45.3698 8.6262 41.5056 9.27988L42.5063 15.1958ZM41.6866 16.4302C41.5814 15.7948 42.0058 15.2805 42.5063 15.1958L41.5056 9.27988C37.65 9.9321 35.1382 13.6104 35.7672 17.4101L41.6866 16.4302ZM42.8349 17.3102C42.343 17.3934 41.7905 17.0579 41.6866 16.4302L35.7672 17.4101C36.3974 21.2174 39.9715 23.8798 43.8357 23.2261L42.8349 17.3102ZM32.5968 6.06222C24.7199 5.41324 17.0017 9.87337 13.6334 17.6259L19.1364 20.0168C21.4864 14.6081 26.8021 11.6051 32.1042 12.042L32.5968 6.06222ZM28.04 24.2584C28.04 19.0552 30.4496 14.4169 34.2254 11.394L30.4756 6.71014C25.3386 10.8227 22.04 17.1563 22.04 24.2584H28.04ZM36.6377 38.7284C31.509 35.9317 28.04 30.498 28.04 24.2584H22.04C22.04 32.7808 26.7862 40.1904 33.7653 43.9961L36.6377 38.7284ZM28.8841 44.8597C31.3119 45.1264 33.7356 44.9038 36.0288 44.2459L34.3742 38.4786C32.8135 38.9263 31.1741 39.0751 29.5393 38.8955L28.8841 44.8597ZM33.2959 47.1241L32.1558 41.3012L26.2676 42.454L27.4077 48.2769L33.2959 47.1241ZM33.3698 49.3231C33.5009 48.7501 33.4714 48.2556 33.4326 47.9268C33.3985 47.6378 33.3351 47.3246 33.2959 47.1241L27.4077 48.2769C27.4328 48.4055 27.4491 48.489 27.4616 48.558C27.474 48.6266 27.4754 48.6424 27.474 48.6303C27.4705 48.6011 27.44 48.3387 27.5209 47.985L33.3698 49.3231ZM32.5231 51.025C32.939 50.5302 33.2274 49.9456 33.3698 49.323L27.5209 47.9851C27.5888 47.688 27.7271 47.4059 27.9301 47.1643L32.5231 51.025ZM30.6984 52.2918C30.8772 52.2075 31.1686 52.0726 31.4236 51.9269C31.7165 51.7595 32.1379 51.4832 32.5231 51.025L27.9301 47.1643C28.1718 46.8767 28.4108 46.7379 28.4467 46.7174C28.4615 46.709 28.4517 46.7153 28.3918 46.7447C28.3315 46.7743 28.2574 46.8093 28.1408 46.8642L30.6984 52.2918ZM26.1172 54.4505L30.6983 52.2918L28.1408 46.8642L23.5596 49.0229L26.1172 54.4505ZM26.3319 54.1685C26.099 54.4332 25.8744 54.5633 25.8361 54.585C25.8208 54.5938 25.8285 54.5886 25.8838 54.5615C25.9395 54.5343 26.0081 54.5019 26.1172 54.4505L23.5596 49.0229C23.3982 49.0989 22.4763 49.4675 21.8272 50.2052L26.3319 54.1685ZM26.7476 53.4026C26.67 53.681 26.5297 53.9437 26.3319 54.1685L21.8272 50.2052C21.4226 50.6651 21.1306 51.2082 20.9681 51.791L26.7476 53.4026ZM26.8643 53.1248C26.8491 53.003 26.8394 52.9246 26.8322 52.8601C26.8252 52.7959 26.8249 52.7824 26.8256 52.7952C26.8272 52.8272 26.839 53.0749 26.7476 53.4026L20.9681 51.791C20.7101 52.7163 20.8864 53.675 20.9103 53.8669L26.8643 53.1248ZM27.5093 58.3L26.8643 53.1248L20.9103 53.8669L21.5553 59.0421L27.5093 58.3ZM27.4136 60.5975C27.6026 60.0108 27.6092 59.4912 27.5934 59.1488C27.5795 58.8461 27.5361 58.5149 27.5093 58.3L21.5553 59.0421C21.5724 59.1792 21.5836 59.269 21.5917 59.3432C21.5998 59.4173 21.6002 59.4355 21.5997 59.4245C21.5986 59.3991 21.5855 59.1216 21.7025 58.7582L27.4136 60.5975ZM26.3612 62.2791C26.8501 61.8115 27.2094 61.2318 27.4136 60.5975L21.7025 58.7582C21.8002 58.4549 21.9733 58.1734 22.2138 57.9434L26.3612 62.2791ZM24.3032 63.3635C24.5014 63.2999 24.8219 63.1994 25.1049 63.0822C25.4289 62.9481 25.9056 62.7149 26.3612 62.2791L22.2138 57.9433C22.5019 57.6678 22.7725 57.554 22.8099 57.5385C22.8257 57.532 22.8141 57.5375 22.7472 57.5602C22.68 57.5829 22.5976 57.6095 22.4687 57.6509L24.3032 63.3635ZM17.2694 65.6224L24.3032 63.3635L22.4687 57.6509L15.4348 59.9097L17.2694 65.6224ZM14.6689 65.9271C15.3799 66.0705 15.9828 65.9721 16.3522 65.8885C16.6827 65.8136 17.0399 65.6961 17.2694 65.6224L15.4348 59.9097C15.2875 59.957 15.191 59.9879 15.1112 60.0121C15.0312 60.0363 15.0128 60.0399 15.0273 60.0366C15.0539 60.0305 15.3923 59.9522 15.8551 60.0455L14.6689 65.9271ZM12.6878 64.8855C13.2313 65.4106 13.9167 65.7754 14.6689 65.9271L15.8551 60.0455C16.24 60.1231 16.5863 60.309 16.8573 60.5709L12.6878 64.8855ZM11.456 62.6062C11.5321 62.8437 11.644 63.201 11.7732 63.5111C11.916 63.854 12.1776 64.3924 12.6877 64.8854L16.8574 60.571C17.1833 60.886 17.3069 61.1921 17.3119 61.204C17.3153 61.2122 17.3058 61.1901 17.2779 61.1075C17.25 61.0251 17.2178 60.925 17.1698 60.775L11.456 62.6062ZM9.271 55.7884L11.456 62.6062L17.1698 60.775L14.9847 53.9572L9.271 55.7884ZM9.01272 54.6297C9.05629 55.1789 9.23654 55.6809 9.27101 55.7885L14.9847 53.9572C14.9644 53.8938 14.9521 53.8554 14.9424 53.8241C14.9329 53.7934 14.9325 53.7908 14.9357 53.8029C14.9395 53.8166 14.9507 53.8592 14.9625 53.921C14.975 53.9862 14.9868 54.0654 14.9939 54.1552L9.01272 54.6297ZM9.06519 53.5839C9.00267 53.9286 8.98498 54.2802 9.01272 54.6298L14.9939 54.1551C15.0072 54.3222 14.9987 54.4901 14.9689 54.6546L9.06519 53.5839ZM9.43762 52.4575C9.3924 52.5615 9.16337 53.0426 9.0652 53.5838L14.9689 54.6547C14.9528 54.743 14.9332 54.8205 14.9144 54.8839C14.8965 54.9439 14.8812 54.9849 14.8762 54.9979C14.8718 55.0094 14.8725 55.0067 14.8851 54.977C14.898 54.9467 14.9141 54.9095 14.9407 54.8484L9.43762 52.4575ZM16.3598 36.5251L9.43762 52.4575L14.9407 54.8484L21.8628 38.916L16.3598 36.5251ZM16.8856 35.4425C16.6595 35.8198 16.4699 36.2718 16.3598 36.5251L21.8628 38.916C21.9396 38.7394 21.9856 38.634 22.0235 38.552C22.062 38.4689 22.0615 38.4778 22.0326 38.5261L16.8856 35.4425ZM13.6334 17.6259C10.3961 25.0771 12.0693 33.5013 17.2729 39.0387L21.6453 34.9299C18.0572 31.1116 16.8689 25.2359 19.1364 20.0168L13.6334 17.6259Z" fill="white" mask="url(#path-1-outside-1_761_23483)"/>
</svg>
