<svg width="72" height="72" viewBox="0 0 72 72" fill="none" xmlns="http://www.w3.org/2000/svg">
<path d="M55.6153 8C53.848 8 52.4153 9.43269 52.4153 11.2V60.8C52.4153 62.5673 53.848 64 55.6153 64C57.3827 64 58.8153 62.5673 58.8153 60.8V11.2C58.8153 9.43269 57.3827 8 55.6153 8Z" fill="#3F4549"/>
<path d="M14.1609 63.0159C12.8591 61.7037 12.8591 59.5763 14.1609 58.2641L36.2483 36L14.1609 13.7359C12.8591 12.4237 12.8591 10.2963 14.1609 8.98412C15.4626 7.67196 17.5732 7.67196 18.8749 8.98412L43.3194 33.6241C44.6211 34.9363 44.6211 37.0637 43.3194 38.3759L18.8749 63.0159C17.5732 64.328 15.4626 64.328 14.1609 63.0159Z" fill="#3F4549"/>
</svg>
