<svg width="36" height="36" fill="none" xmlns="http://www.w3.org/2000/svg">
<path d="m1.95 22.667 5.157-2.987a5.861 5.861 0 0 1 5.835 0l5.158 2.987-5.158 2.986a5.86 5.86 0 0 1-5.835 0L1.95 22.667ZM18.113 13.333l5.158-2.986a5.86 5.86 0 0 1 5.835 0l5.158 2.986-5.158 2.987a5.86 5.86 0 0 1-5.835 0l-5.158-2.987ZM18.113 32v-5.96a5.87 5.87 0 0 1 2.918-5.06l5.158-2.987v5.96a5.87 5.87 0 0 1-2.918 5.06L18.113 32ZM10.025 18.007v-5.96a5.87 5.87 0 0 1 2.917-5.06L18.1 4v5.96a5.87 5.87 0 0 1-2.918 5.06l-5.157 2.987Z" fill="#00263E"/>
</svg>