<svg width="72" height="32" viewBox="0 0 72 32" fill="none" xmlns="http://www.w3.org/2000/svg">
<path d="M12.6078 10.3985C9.94409 10.752 8 13.1379 8 15.8394V23.9819H10.0703V19.9044C11.1686 20.7502 12.5951 21.192 14.1353 20.9774C16.4328 20.6492 18.2885 18.7934 18.6294 16.4959C19.147 12.9359 16.1425 9.91879 12.6078 10.3985ZM14.0974 18.8692C11.7115 19.3994 9.62849 17.3164 10.1587 14.9305C10.4238 13.7312 11.3959 12.7592 12.5951 12.4941C14.9811 11.9639 17.064 14.0468 16.5338 16.4328C16.2687 17.632 15.2967 18.6041 14.0974 18.8692Z" fill="#00263E"/>
<path d="M49.0785 21.0279C45.9351 21.0279 43.4229 18.3011 43.7764 15.0946C44.0415 12.6582 46.0109 10.6636 48.4473 10.3859C50.101 10.1965 51.7043 10.752 52.8531 11.9134L51.3887 13.3778C50.6439 12.633 49.6087 12.2921 48.5356 12.4562C47.2101 12.6708 46.1118 13.7186 45.8594 15.0441C45.4554 17.1271 47.0586 18.9576 49.0659 18.9576C49.9369 18.9576 50.7575 18.6167 51.376 17.9981L52.8404 19.4625C51.8558 20.4724 50.505 21.0279 49.0785 21.0279Z" fill="#00263E"/>
<path d="M25.9891 10.3986C22.4544 9.91886 19.4499 12.9486 19.9675 16.496C20.3083 18.7935 22.164 20.6492 24.4616 20.9775C25.9891 21.2047 27.4282 20.7629 28.5265 19.9044V20.8134H30.5969V15.8395C30.5969 13.138 28.6654 10.752 25.9891 10.3986ZM26.0017 18.8693C23.6158 19.3995 21.5328 17.3165 22.0631 14.9306C22.3282 13.7313 23.3002 12.7593 24.4995 12.4941C26.8854 11.9639 28.9684 14.0469 28.4382 16.4328C28.1731 17.6321 27.201 18.6042 26.0017 18.8693Z" fill="#00263E"/>
<path d="M37.9061 10.3986C34.3714 9.91886 31.3669 12.9486 31.8845 16.496C32.2253 18.7935 34.081 20.6492 36.3786 20.9775C37.9061 21.1921 39.3452 20.7629 40.4435 19.9044V20.8134H42.5139V15.8395C42.5139 13.138 40.5698 10.752 37.9061 10.3986ZM37.9187 18.8693C35.5328 19.3995 33.4498 17.3165 33.98 14.9306C34.2451 13.7313 35.2172 12.7593 36.4165 12.4941C38.8024 11.9639 40.8854 14.0469 40.3552 16.4328C40.0901 17.6321 39.118 18.6042 37.9187 18.8693Z" fill="#00263E"/>
<path d="M59.3164 14.7412L63.2046 11.0298H60.2127L56.11 14.9306V11.0298V8H54.0522V20.8638H55.0874H56.11V17.7836L57.8016 16.1803L61.3994 20.8638H63.9999L59.3164 14.7412Z" fill="#00263E"/>
</svg>
