<svg width="56" height="16" viewBox="0 0 56 16" fill="none" xmlns="http://www.w3.org/2000/svg">
<path d="M23.8274 4.50152C22.1599 4.72264 20.9429 6.21524 20.9429 7.90527V12.999H22.2389V10.4482C22.9265 10.9773 23.8195 11.2537 24.7837 11.1195C26.222 10.9142 27.3837 9.75324 27.5971 8.31593C27.9211 6.09678 26.0481 4.20932 23.8274 4.50152ZM24.76 9.80853C23.2663 10.1402 21.9623 8.83715 22.2943 7.34456C22.4602 6.59431 23.0688 5.98622 23.8195 5.82037C25.3132 5.48869 26.6172 6.79174 26.2852 8.28434C26.1193 9.03459 25.5108 9.64268 24.76 9.80853Z" fill="#00263E"/>
<path d="M46.6667 11.1589C44.6989 11.1589 43.1262 9.45304 43.3475 7.44711C43.5134 5.92293 44.7463 4.67515 46.2715 4.50141C47.3068 4.38295 48.3105 4.73043 49.0297 5.45698L48.1129 6.37308C47.6467 5.90713 46.9986 5.6939 46.3269 5.79657C45.4971 5.93082 44.8095 6.5863 44.6515 7.41552C44.3986 8.71858 45.4022 9.8637 46.6588 9.8637C47.2041 9.8637 47.7178 9.65047 48.105 9.2635L49.0218 10.1796C48.3974 10.8114 47.5518 11.1589 46.6667 11.1589Z" fill="#00263E"/>
<path d="M32.2046 4.5093C29.9918 4.2092 28.1109 6.10456 28.4349 8.32371C28.6483 9.76103 29.81 10.9219 31.2484 11.1273C32.2046 11.2694 33.1055 10.993 33.7931 10.456V11.0246H35.0892V7.91305C35.0892 6.22302 33.88 4.73042 32.2046 4.5093ZM32.2125 9.80841C30.7189 10.1401 29.4149 8.83704 29.7468 7.34444C29.9128 6.59419 30.5213 5.9861 31.2721 5.82025C32.7657 5.48857 34.0697 6.79163 33.7378 8.28422C33.5718 9.03447 32.9712 9.64257 32.2125 9.80841Z" fill="#00263E"/>
<path d="M39.6651 4.50148C37.4523 4.20138 35.5714 6.09674 35.8954 8.31589C36.1088 9.75321 37.2705 10.9141 38.7088 11.1194C39.6651 11.2537 40.566 10.9852 41.2536 10.4482V11.0168H42.5496V7.90523C42.5496 6.2231 41.3405 4.73051 39.6651 4.50148ZM39.673 9.80849C38.1793 10.1402 36.8753 8.83712 37.2073 7.34452C37.3732 6.59428 37.9817 5.98618 38.7325 5.82034C40.2262 5.48865 41.5302 6.79171 41.1982 8.28431C41.0323 9.03455 40.4237 9.64265 39.673 9.80849Z" fill="#00263E"/>
<path d="M53.068 7.22609L55.5021 4.90427H53.6291L51.0685 7.34455V4.90427V3.00891H49.7725V11.0563H50.4205H51.0685V9.12935L52.1275 8.12638L54.372 11.0563H56L53.068 7.22609Z" fill="#00263E"/>
<path d="M0 10.6694L2.94778 8.97145C3.98306 8.37915 5.25543 8.37915 6.28281 8.97145L9.23059 10.6773L6.28281 12.3831C5.24753 12.9754 3.97516 12.9754 2.94778 12.3831L0 10.6694Z" fill="#00263E"/>
<path d="M9.23828 5.33865L12.1861 3.63282C13.2213 3.04052 14.4937 3.04052 15.5211 3.63282L18.4689 5.33865L15.5211 7.04447C14.4858 7.63677 13.2134 7.63677 12.1861 7.04447L9.23828 5.33865Z" fill="#00263E"/>
<path d="M9.23828 16V12.5962C9.23828 11.4038 9.87842 10.306 10.9058 9.70582L13.8536 8V11.4038C13.8536 12.5962 13.2134 13.694 12.1861 14.2942L9.23828 16Z" fill="#00263E"/>
<path d="M4.61523 8V4.59625C4.61523 3.40375 5.25537 2.30602 6.28275 1.70582L9.23053 0V3.40375C9.23053 4.59625 8.5904 5.69398 7.56302 6.29418L4.61523 8Z" fill="#00263E"/>
</svg>
