<svg width="72" height="72" viewBox="0 0 72 72" fill="none" xmlns="http://www.w3.org/2000/svg">
<path d="M36 8C31.2872 8 27.4667 11.995 27.4667 16.9231V37.2308C27.4667 42.1588 31.2872 46.1538 36 46.1538C40.7128 46.1538 44.5333 42.1588 44.5333 37.2308V16.9231C44.5333 11.995 40.7128 8 36 8Z" fill="#3F4549"/>
<path d="M52 37.2308C52 45.7146 45.9613 52.7235 38.1333 53.8141V59.5385H46.6667C47.8449 59.5385 48.8 60.5372 48.8 61.7692C48.8 63.0012 47.8449 64 46.6667 64H25.3333C24.1551 64 23.2 63.0012 23.2 61.7692C23.2 60.5372 24.1551 59.5385 25.3333 59.5385H33.8667V53.8141C26.0387 52.7235 20 45.7146 20 37.2308V30.3077C20 29.0757 20.9551 28.0769 22.1333 28.0769C23.3115 28.0769 24.2667 29.0757 24.2667 30.3077V37.2308C24.2667 44.0069 29.5199 49.5 36 49.5C42.4801 49.5 47.7333 44.0069 47.7333 37.2308V30.3077C47.7333 29.0757 48.6885 28.0769 49.8667 28.0769C51.0449 28.0769 52 29.0757 52 30.3077V37.2308Z" fill="#3F4549"/>
</svg>
