<svg width="72" height="72" viewBox="0 0 72 72" fill="none" xmlns="http://www.w3.org/2000/svg">
<path d="M33.8666 53.8141C30.4749 53.3416 27.4191 51.758 25.0448 49.4247L28.1344 46.3351C30.2153 48.3021 32.9739 49.5 35.9999 49.5C42.4801 49.5 47.7333 44.0069 47.7333 37.2308V30.3077C47.7333 29.0757 48.6884 28.0769 49.8666 28.0769C51.0448 28.0769 51.9999 29.0757 51.9999 30.3077V37.2308C51.9999 45.7146 45.9612 52.7235 38.1333 53.8141V59.5385H46.6666C47.8448 59.5385 48.7999 60.5372 48.7999 61.7692C48.7999 63.0012 47.8448 64 46.6666 64H25.3333C24.1551 64 23.1999 63.0012 23.1999 61.7692C23.1999 60.5372 24.1551 59.5385 25.3333 59.5385H33.8666V53.8141Z" fill="#3F4549"/>
<path d="M35.9999 46.1538C33.8834 46.1538 31.9469 45.3481 30.4555 44.014L44.5333 29.9362V37.2308C44.5333 42.1588 40.7128 46.1538 35.9999 46.1538Z" fill="#3F4549"/>
<path d="M35.9999 8C40.367 8 43.9678 11.4303 44.4727 15.8546L27.4666 32.8608V16.9231C27.4666 11.995 31.2871 8 35.9999 8Z" fill="#3F4549"/>
<path d="M24.2666 30.3077V36.0608L20.2333 40.094C20.0799 39.1637 19.9999 38.207 19.9999 37.2308V30.3077C19.9999 29.0757 20.9551 28.0769 22.1333 28.0769C23.3115 28.0769 24.2666 29.0757 24.2666 30.3077Z" fill="#3F4549"/>
<path d="M13.5858 50.9842C12.8047 51.7653 12.8047 53.0316 13.5858 53.8127C14.3668 54.5937 15.6332 54.5937 16.4142 53.8127L56.8127 13.4142C57.5937 12.6331 57.5937 11.3668 56.8127 10.5857C56.0316 9.8047 54.7653 9.8047 53.9843 10.5857L13.5858 50.9842Z" fill="#3F4549"/>
</svg>
