<svg width="73" height="72" viewBox="0 0 73 72" fill="none" xmlns="http://www.w3.org/2000/svg">
<path d="M45.1435 9.62844L45.1435 9.62841C45.2103 9.5296 45.2784 9.43175 45.3479 9.33489C47.6614 6.10854 51.4499 4 55.7308 4C62.783 4 68.5 9.71698 68.5 16.7692C68.5 21.0501 66.3915 24.8386 63.1651 27.1521C61.4045 28.4146 59.3069 29.2418 57.0339 29.4726C57.0051 29.4756 56.9762 29.4784 56.9473 29.4811C56.9296 29.4828 56.9118 29.4844 56.8941 29.4861L45.1435 9.62844ZM45.1435 9.62844C43.9711 11.3638 43.2131 13.405 43.0139 15.6059L45.0058 15.7862M45.1435 9.62844L45.0058 15.7862M45.0058 15.7862L43.0139 15.6059C42.9792 15.9895 42.9615 16.3776 42.9615 16.7692M45.0058 15.7862L42.9615 16.7692M42.9615 16.7692C42.9615 23.8215 48.6785 29.5385 55.7308 29.5385M42.9615 16.7692L55.7308 29.5385M55.7308 29.5385C56.1224 29.5385 56.5104 29.5208 56.894 29.4861L55.7308 29.5385ZM43.9023 11.1848L45.2342 8.36932L42.1199 8.32968C40.3929 8.30769 38.4777 8.30769 36.3552 8.30769H36.3462H36.2381C31.292 8.30768 27.4339 8.30766 24.3588 8.6059C21.2305 8.90928 18.7023 9.53601 16.4915 10.9252C14.3192 12.2901 12.4824 14.1269 11.1175 16.2991C9.72832 18.51 9.10159 21.0382 8.79821 24.1664C8.49997 27.2416 8.49998 31.0997 8.5 36.0458V36.1538V36.2619C8.49998 41.208 8.49997 45.0661 8.79821 48.1412C9.10159 51.2695 9.72832 53.7977 11.1175 56.0085C12.4824 58.1808 14.3192 60.0176 16.4915 61.3825C18.7023 62.7717 21.2305 63.3984 24.3588 63.7018C27.4339 64 31.2919 64 36.2381 64H36.3462H36.4542C41.4004 64 45.2584 64 48.3336 63.7018C51.4618 63.3984 53.99 62.7717 56.2009 61.3825C58.3731 60.0176 60.2099 58.1808 61.5748 56.0085C62.964 53.7977 63.5907 51.2695 63.8941 48.1412C64.1923 45.0661 64.1923 41.2081 64.1923 36.2619V36.1538V36.145C64.1923 34.0224 64.1923 32.1072 64.1703 30.3801L64.1307 27.2658L61.3152 28.5977C59.8872 29.2733 58.3168 29.6978 56.659 29.8138L54.7862 29.9448L54.7986 31.8221C54.8071 33.1179 54.8077 34.5511 54.8077 36.1538C54.8077 41.3386 54.7996 44.6963 54.5533 47.2353C54.318 49.6617 53.921 50.5503 53.6286 51.0156C53.0138 51.9941 52.1864 52.8215 51.2079 53.4363C50.7426 53.7287 49.854 54.1257 47.4277 54.361C44.8886 54.6073 41.5309 54.6154 36.3462 54.6154C31.1614 54.6154 27.8037 54.6073 25.2647 54.361C22.8384 54.1257 21.9497 53.7287 21.4844 53.4363C20.5059 52.8215 19.6785 51.9941 19.0637 51.0156C18.7713 50.5503 18.3743 49.6616 18.139 47.2354C17.8927 44.6963 17.8846 41.3386 17.8846 36.1538C17.8846 30.9691 17.8927 27.6114 18.139 25.0723C18.3743 22.646 18.7713 21.7574 19.0637 21.2921C19.6785 20.3136 20.5059 19.4862 21.4844 18.8714C21.9497 18.579 22.8384 18.182 25.2646 17.9467C27.8037 17.7004 31.1614 17.6923 36.3462 17.6923C37.9489 17.6923 39.3821 17.6929 40.6779 17.7014L42.5552 17.7138L42.6862 15.8411C42.8022 14.1832 43.2267 12.6128 43.9023 11.1848Z" fill="#3F4549" stroke="white" stroke-width="4"/>
</svg>
