<svg width="72" height="72" viewBox="0 0 72 72" fill="none" xmlns="http://www.w3.org/2000/svg">
<path d="M55.2331 27.559C61.1864 27.559 66.0126 22.7328 66.0126 16.7795C66.0126 10.8261 61.1864 6 55.2331 6C49.2798 6 44.4536 10.8261 44.4536 16.7795C44.4536 22.7328 49.2798 27.559 55.2331 27.559Z" fill="#3F4549"/>
<path d="M41.5944 10.3295C39.8802 10.3077 37.9757 10.3077 35.8462 10.3077C25.7709 10.3077 20.7333 10.3077 17.0555 12.6186C15.1377 13.8237 13.516 15.4454 12.3109 17.3632C10 21.041 10 26.0786 10 36.1538C10 46.229 10 51.2666 12.3109 54.9445C13.516 56.8623 15.1377 58.484 17.0555 59.6891C20.7333 62 25.7709 62 35.8462 62C45.9214 62 50.959 62 54.6368 59.6891C56.5546 58.484 58.1763 56.8623 59.3814 54.9445C61.6923 51.2666 61.6923 46.229 61.6923 36.1538C61.6923 34.0243 61.6923 32.1198 61.6705 30.4056C60.0219 31.1855 58.2093 31.6752 56.2985 31.8089C56.3071 33.1124 56.3077 34.5521 56.3077 36.1538C56.3077 41.2979 56.3018 44.7701 56.044 47.4284C55.7942 50.0038 55.3484 51.2421 54.8221 52.0797C54.0474 53.3126 53.0049 54.3551 51.772 55.1298C50.9344 55.6561 49.6961 56.1019 47.1207 56.3516C44.4624 56.6095 40.9902 56.6154 35.8462 56.6154C30.7021 56.6154 27.2299 56.6095 24.5716 56.3516C21.9962 56.1019 20.7579 55.6561 19.9203 55.1298C18.6874 54.3551 17.6449 53.3126 16.8702 52.0797C16.3439 51.2421 15.8981 50.0038 15.6483 47.4284C15.3905 44.7701 15.3846 41.2979 15.3846 36.1538C15.3846 31.0097 15.3905 27.5376 15.6483 24.8793C15.8981 22.3038 16.3439 21.0656 16.8702 20.228C17.6449 18.9951 18.6874 17.9526 19.9203 17.1779C20.7579 16.6516 21.9962 16.2058 24.5716 15.956C27.2299 15.6982 30.7021 15.6923 35.8462 15.6923C37.4479 15.6923 38.8876 15.6929 40.1911 15.7014C40.3248 13.7907 40.8145 11.978 41.5944 10.3295Z" fill="#3F4549"/>
</svg>
