<svg width="72" height="72" viewBox="0 0 72 72" fill="none" xmlns="http://www.w3.org/2000/svg">
<path d="M49.6682 37.2703V38.431C49.6682 38.9573 49.7141 39.416 49.806 39.807C49.8979 40.1981 50.0357 40.5214 50.2195 40.7771C50.4032 41.0327 50.6291 41.2245 50.897 41.3523C51.1727 41.4801 51.4904 41.544 51.8502 41.544C52.1488 41.544 52.4245 41.4764 52.6771 41.341C52.9298 41.2057 53.148 41.0139 53.3317 40.7658C53.5231 40.5176 53.6686 40.2281 53.7681 39.8973C53.8677 39.5664 53.9174 39.2055 53.9174 38.8145C53.9174 38.3934 53.8638 38.0136 53.7567 37.6752C53.6495 37.3369 53.4963 37.0511 53.2973 36.818C53.1059 36.5774 52.8724 36.3969 52.5967 36.2766C52.3288 36.1488 52.034 36.0849 51.7124 36.0849C51.2224 36.0849 50.8052 36.1939 50.4606 36.412C50.1238 36.6225 49.8673 36.8932 49.6912 37.2241C49.6833 37.2395 49.6757 37.2549 49.6682 37.2703Z" fill="#3F4549"/>
<path d="M20.6462 33.1635L20.8989 32.7574V37.8332H17.89L20.6462 33.1635Z" fill="#3F4549"/>
<path fill-rule="evenodd" clip-rule="evenodd" d="M16.4 14C14.1024 14 11.9449 14.9672 10.3884 16.6136C8.83832 18.2531 8 20.4359 8 22.6731V49.3269C8 51.5641 8.83832 53.7469 10.3884 55.3864C11.9449 57.0328 14.1024 58 16.4 58H55.6C57.8976 58 60.0551 57.0328 61.6116 55.3864C63.1617 53.7469 64 51.5641 64 49.3269V22.6731C64 20.4359 63.1617 18.2531 61.6116 16.6136C60.0551 14.9672 57.8976 14 55.6 14H16.4ZM55.2037 27.5916H54.5835C53.4121 27.5916 52.2981 27.7908 51.2416 28.1894C50.185 28.5879 49.2471 29.1707 48.4279 29.9376C47.6163 30.6971 46.9732 31.6258 46.4985 32.7236C46.0315 33.8215 45.798 35.0735 45.798 36.4796V37.867C45.798 38.9047 45.9511 39.8334 46.2574 40.653C46.5713 41.4726 47.0038 42.1682 47.5551 42.7397C48.114 43.3036 48.7648 43.736 49.5074 44.0368C50.2577 44.33 51.0731 44.4767 51.9536 44.4767C52.8111 44.4767 53.5959 44.3338 54.3079 44.048C55.0199 43.7623 55.6363 43.3638 56.1569 42.8524C56.6775 42.3411 57.0795 41.7433 57.3627 41.059C57.6537 40.3672 57.7992 39.619 57.7992 38.8145C57.7992 38.0174 57.6958 37.2767 57.4891 36.5924C57.2824 35.9082 56.9761 35.3104 56.5703 34.799C56.1722 34.2877 55.6784 33.8892 55.0888 33.6034C54.507 33.3177 53.8332 33.1748 53.0676 33.1748C52.3096 33.1748 51.6435 33.3026 51.0693 33.5583C50.5556 33.787 50.1185 34.079 49.7579 34.4341C49.8247 34.0441 49.9288 33.6845 50.0702 33.3553C50.3458 32.7312 50.7248 32.2161 51.2071 31.81C51.6971 31.3964 52.2637 31.0881 52.9068 30.8851C53.5576 30.6821 54.2543 30.5806 54.997 30.5806H55.2037V27.5916ZM26.4573 37.8332V40.7658H24.7691V44.2511H20.8989V40.7658H14.4217L14.192 38.4422L20.8989 27.8466V27.8284H24.7691V37.8332H26.4573ZM33.5149 36.9308L30.4371 36.2202L31.4478 27.8284H41.221V30.7836H34.606L34.227 34.0433C34.4107 33.938 34.7208 33.814 35.1572 33.6711C35.6013 33.5207 36.0913 33.4455 36.6272 33.4455C37.4541 33.4455 38.1853 33.5696 38.8207 33.8177C39.4639 34.0584 40.0074 34.4155 40.4515 34.8893C40.8956 35.3555 41.2286 35.9307 41.4506 36.615C41.6803 37.2993 41.7952 38.0813 41.7952 38.9611C41.7952 39.6679 41.6765 40.3522 41.4392 41.0139C41.2095 41.6681 40.8535 42.2584 40.3711 42.7848C39.8964 43.3036 39.2954 43.7172 38.5681 44.0255C37.8407 44.3263 36.9794 44.4767 35.9841 44.4767C35.2414 44.4767 34.5179 44.3639 33.8135 44.1383C33.1092 43.9127 32.4737 43.5894 31.9071 43.1683C31.3482 42.7397 30.9042 42.2246 30.5749 41.623C30.2534 41.0139 30.0964 40.3334 30.1041 39.5814H33.9973C34.0203 39.98 34.116 40.3259 34.2844 40.6191C34.4528 40.9124 34.6787 41.1418 34.962 41.3072C35.2529 41.4651 35.586 41.544 35.9611 41.544C36.3439 41.544 36.6617 41.4689 36.9143 41.3185C37.167 41.1681 37.366 40.9613 37.5115 40.6981C37.657 40.4349 37.7603 40.1341 37.8216 39.7958C37.8828 39.4499 37.9135 39.0852 37.9135 38.7017C37.9135 38.2956 37.8675 37.9309 37.7757 37.6076C37.6914 37.2842 37.5536 37.0098 37.3622 36.7842C37.1708 36.5511 36.922 36.3744 36.6157 36.2541C36.3171 36.1337 35.9573 36.0736 35.5362 36.0736C34.9773 36.0736 34.5371 36.1676 34.2155 36.3556C33.8939 36.5436 33.6604 36.7353 33.5149 36.9308Z" fill="#3F4549"/>
</svg>
