<svg width="72" height="72" viewBox="0 0 72 72" fill="none" xmlns="http://www.w3.org/2000/svg">
<path d="M34.052 29.7899C28.0842 29.7899 23.2464 24.9121 23.2464 18.895C23.2464 12.8778 28.0842 8 34.052 8C40.0197 8 44.8576 12.8778 44.8576 18.895C44.8576 24.9121 40.0197 29.7899 34.052 29.7899Z" fill="#3F4549"/>
<path d="M38.2432 55.0019C38.2432 57.2764 38.7294 59.4376 39.6039 61.388C26.5623 62.4832 11 59.6501 11 52.8887C11 43.38 20.3084 32.9028 34.052 32.9028C41.0978 32.9028 46.9779 35.6454 51.0358 39.6054C43.753 40.9716 38.2432 47.3454 38.2432 55.0019Z" fill="#3F4549"/>
<path fill-rule="evenodd" clip-rule="evenodd" d="M67 55.0019C67 62.1806 61.162 68 53.9605 68C46.759 68 40.921 62.1806 40.921 55.0019C40.921 47.8233 46.759 42.0039 53.9605 42.0039C61.162 42.0039 67 47.8233 67 55.0019ZM47.4407 55.0019C47.4407 54.1046 48.1705 53.5814 49.0707 53.5814H58.8503C59.7505 53.5814 60.4802 54.1046 60.4802 55.0019C60.4802 55.8993 59.7505 56.4224 58.8503 56.4224H49.0707C48.1705 56.4224 47.4407 55.8993 47.4407 55.0019Z" fill="#3F4549"/>
</svg>
