<svg width="72" height="72" viewBox="0 0 72 72" fill="none" xmlns="http://www.w3.org/2000/svg">
<path d="M37.3309 29.224C31.5784 29.224 26.915 24.4728 26.915 18.612C26.915 12.7511 31.5784 8 37.3309 8C43.0835 8 47.7468 12.7511 47.7468 18.612C47.7468 24.4728 43.0835 29.224 37.3309 29.224Z" fill="#3F4549"/>
<path d="M15.1103 51.7227C15.1103 42.461 24.083 32.2559 37.3309 32.2559C44.452 32.2559 50.3378 35.1927 54.2588 39.3538C45.992 39.7609 39.4141 46.6111 39.4141 55.0019C39.4141 56.8081 39.7189 58.5429 40.2797 60.1575C28.2791 60.7048 15.1103 57.8932 15.1103 51.7227Z" fill="#3F4549"/>
<path d="M18.1404 27.0868C14.4797 27.0868 11.5121 24.163 11.5121 20.5563C11.5121 16.9497 14.4797 14.0259 18.1404 14.0259C21.8011 14.0259 24.7687 16.9497 24.7687 20.5563C24.7687 24.163 21.8011 27.0868 18.1404 27.0868Z" fill="#3F4549"/>
<path d="M4 40.9322C4 35.2327 9.70992 28.9526 18.1404 28.9526C21.4425 28.9526 24.3272 29.9122 26.6149 31.4237C19.8868 34.3334 15.0088 39.8234 13.0408 45.849C8.02646 45.2032 4 43.5643 4 40.9322Z" fill="#3F4549"/>
<path fill-rule="evenodd" clip-rule="evenodd" d="M64.2292 64.193C69.2912 59.131 69.2798 50.9125 64.2037 45.8364C59.1276 40.7603 50.9091 40.7489 45.8471 45.8109C40.7852 50.8729 40.7966 59.0914 45.8726 64.1675C50.9487 69.2435 59.1672 69.2549 64.2292 64.193ZM49.7884 51.3233C49.3533 50.8882 49.3523 50.1838 49.7862 49.7499C50.2201 49.316 50.9245 49.317 51.3596 49.7521L55.036 53.4285L58.7022 49.7623C59.1361 49.3284 59.8405 49.3294 60.2756 49.7645C60.7107 50.1996 60.7117 50.904 60.2778 51.3379L56.6116 55.0041L60.288 58.6805C60.7231 59.1156 60.7241 59.82 60.2902 60.2539C59.8563 60.6878 59.1519 60.6868 58.7168 60.2517L55.0404 56.5753L51.3741 60.2416C50.9403 60.6755 50.2358 60.6745 49.8007 60.2394C49.3656 59.8043 49.3647 59.0999 49.7985 58.666L53.4648 54.9997L49.7884 51.3233Z" fill="#3F4549"/>
</svg>
