<svg width="73" height="72" viewBox="0 0 73 72" fill="none" xmlns="http://www.w3.org/2000/svg">
<path d="M37.8309 29.224C32.0784 29.224 27.415 24.4728 27.415 18.612C27.415 12.7511 32.0784 8 37.8309 8C43.5835 8 48.2468 12.7511 48.2468 18.612C48.2468 24.4728 43.5835 29.224 37.8309 29.224Z" fill="#3F4549"/>
<path d="M15.6103 51.7227C15.6103 42.461 24.583 32.2559 37.8309 32.2559C44.952 32.2559 50.8378 35.1927 54.7588 39.3538C46.492 39.7609 39.9141 46.6111 39.9141 55.0019C39.9141 56.8081 40.2189 58.5429 40.7797 60.1575C28.7791 60.7048 15.6103 57.8932 15.6103 51.7227Z" fill="#3F4549"/>
<path d="M18.6404 27.0868C14.9797 27.0868 12.0121 24.163 12.0121 20.5563C12.0121 16.9497 14.9797 14.0259 18.6404 14.0259C22.3011 14.0259 25.2687 16.9497 25.2687 20.5563C25.2687 24.163 22.3011 27.0868 18.6404 27.0868Z" fill="#3F4549"/>
<path d="M4.5 40.9322C4.5 35.2327 10.2099 28.9526 18.6404 28.9526C21.9425 28.9526 24.8272 29.9122 27.1149 31.4237C20.3868 34.3334 15.5088 39.8234 13.5408 45.849C8.52646 45.2032 4.5 43.5643 4.5 40.9322Z" fill="#3F4549"/>
<path fill-rule="evenodd" clip-rule="evenodd" d="M64.7292 64.193C69.7912 59.131 69.7798 50.9125 64.7037 45.8364C59.6276 40.7603 51.4091 40.7489 46.3471 45.8109C41.2852 50.8729 41.2966 59.0914 46.3726 64.1675C51.4487 69.2435 59.6672 69.2549 64.7292 64.193ZM50.2884 51.3233C49.8533 50.8882 49.8523 50.1838 50.2862 49.7499C50.7201 49.316 51.4245 49.317 51.8596 49.7521L55.536 53.4285L59.2022 49.7623C59.6361 49.3284 60.3405 49.3294 60.7756 49.7645C61.2107 50.1996 61.2117 50.904 60.7778 51.3379L57.1116 55.0041L60.788 58.6805C61.2231 59.1156 61.2241 59.82 60.7902 60.2539C60.3563 60.6878 59.6519 60.6868 59.2168 60.2517L55.5404 56.5753L51.8741 60.2416C51.4403 60.6755 50.7358 60.6745 50.3007 60.2394C49.8656 59.8043 49.8647 59.0999 50.2985 58.666L53.9648 54.9997L50.2884 51.3233Z" fill="#3F4549"/>
</svg>
