<svg width="72" height="72" viewBox="0 0 72 72" fill="none" xmlns="http://www.w3.org/2000/svg">
<path fill-rule="evenodd" clip-rule="evenodd" d="M47.0998 17.8L34.2998 30.6C28.8998 29.8 24.7998 25.1 24.7998 19.4C24.7998 13.1 29.7998 8 35.9998 8C41.6998 8 46.3998 12.3 47.0998 17.8ZM17.8999 61.1L43.8999 35.2C53.6999 38.3 59.9999 46.9 59.9999 54.9C59.9999 64.4 30.7999 66.5 17.8999 61.1ZM30.3001 34.6C20.1001 36.8 13.2001 44.8 12.1001 52.8L30.3001 34.6ZM8.60633 63.3937C7.79789 62.5852 7.79789 61.3726 8.60633 60.5641L56.5641 12.6063C57.3726 11.7979 58.5852 11.7979 59.3937 12.6063C60.2021 13.4148 60.2021 14.6274 59.3937 15.4359L11.4359 63.3937C10.6274 64.2021 9.41476 64.2021 8.60633 63.3937Z" fill="#3F4549"/>
</svg>
