<svg width="72" height="72" viewBox="0 0 72 72" fill="none" xmlns="http://www.w3.org/2000/svg">
<path d="M34.0519 29.7899C28.0842 29.7899 23.2463 24.9121 23.2463 18.895C23.2463 12.8778 28.0842 8 34.0519 8C40.0197 8 44.8575 12.8778 44.8575 18.895C44.8575 24.9121 40.0197 29.7899 34.0519 29.7899Z" fill="#3F4549"/>
<path d="M38.2432 55.0019C38.2432 57.2764 38.7294 59.4376 39.6038 61.388C26.5623 62.4832 11 59.6501 11 52.8887C11 43.38 20.3084 32.9028 34.0519 32.9028C41.0977 32.9028 46.9779 35.6454 51.0357 39.6054C43.7529 40.9716 38.2432 47.3454 38.2432 55.0019Z" fill="#3F4549"/>
<path fill-rule="evenodd" clip-rule="evenodd" d="M67 55.0019C67 62.1806 61.162 68 53.9605 68C46.759 68 40.9211 62.1806 40.9211 55.0019C40.9211 47.8233 46.759 42.0039 53.9605 42.0039C61.162 42.0039 67 47.8233 67 55.0019ZM53.9605 47.5745C53.3433 47.5745 52.8429 48.0733 52.8429 48.6886V53.8878H47.6271C47.0098 53.8878 46.5094 54.3866 46.5094 55.0019C46.5094 55.6172 47.0098 56.116 47.6271 56.116H52.8429V61.3153C52.8429 61.9306 53.3433 62.4294 53.9605 62.4294C54.5778 62.4294 55.0782 61.9306 55.0782 61.3153V56.116H60.294C60.9113 56.116 61.4117 55.6172 61.4117 55.0019C61.4117 54.3866 60.9113 53.8878 60.294 53.8878H55.0782V48.6886C55.0782 48.0733 54.5778 47.5745 53.9605 47.5745Z" fill="#3F4549"/>
</svg>
