<svg width="72" height="72" viewBox="0 0 72 72" fill="none" xmlns="http://www.w3.org/2000/svg">
<path d="M23.2463 18.895C23.2463 24.9121 28.0842 29.7899 34.0519 29.7899C40.0197 29.7899 44.8575 24.9121 44.8575 18.895C44.8575 12.8778 40.0197 8 34.0519 8C28.0842 8 23.2463 12.8778 23.2463 18.895Z" fill="#3F4549"/>
<path d="M39.6038 61.388C38.7294 59.4376 38.2432 57.2764 38.2432 55.0019C38.2432 47.3454 43.7529 40.9716 51.0357 39.6054C46.9779 35.6454 41.0977 32.9028 34.0519 32.9028C20.3084 32.9028 11 43.38 11 52.8887C11 59.6501 26.5623 62.4832 39.6038 61.388Z" fill="#3F4549"/>
<path fill-rule="evenodd" clip-rule="evenodd" d="M63.1456 45.8145C68.2216 50.8906 68.2331 59.1091 63.1711 64.1711C58.1091 69.2331 49.8906 69.2216 44.8145 64.1456C39.7385 59.0695 39.7271 50.851 44.789 45.789C49.851 40.7271 58.0695 40.7385 63.1456 45.8145ZM48.7281 49.728C48.2942 50.1619 48.2952 50.8664 48.7302 51.3014L52.4067 54.9779L48.7404 58.6441C48.3065 59.078 48.3075 59.7824 48.7426 60.2175C49.1777 60.6526 49.8821 60.6536 50.316 60.2197L53.9823 56.5535L57.6587 60.2299C58.0938 60.665 58.7982 60.6659 59.2321 60.232C59.666 59.7982 59.665 59.0937 59.2299 58.6586L55.5535 54.9822L59.2197 51.316C59.6536 50.8821 59.6526 50.1777 59.2175 49.7426C58.7824 49.3075 58.078 49.3065 57.6441 49.7404L53.9779 53.4066L50.3015 49.7302C49.8664 49.2951 49.162 49.2941 48.7281 49.728Z" fill="#3F4549"/>
</svg>
