<svg width="72" height="72" viewBox="0 0 72 72" fill="none" xmlns="http://www.w3.org/2000/svg">
<path d="M47.6806 63.8824C43.8024 63.3273 40.1157 61.8623 36.9304 59.6103C33.2391 57.0738 29.8482 54.1364 26.8216 50.8533C23.1039 46.9339 19.318 43.065 16.0373 38.7424C13.4548 35.271 11.1447 31.6316 9.88462 27.4491C9.00838 24.7898 8.77894 21.9645 9.21486 19.2016C9.78245 15.9037 11.5533 13.2217 13.977 10.9765C14.9766 10.0947 16.0622 9.31258 17.2179 8.64168C17.906 8.21049 18.707 7.9876 19.522 8.00053C20.3371 8.01347 21.1304 8.26167 21.8041 8.71446C25.0311 10.6088 27.5045 13.5348 28.8138 17.0067C29.0383 17.4959 29.1257 18.0355 29.0668 18.5692C29.0079 19.103 28.8049 19.6114 28.479 20.0414C27.6673 21.1221 26.8216 22.1747 26.0043 23.2553C25.2834 24.2128 24.5342 25.1534 23.8928 26.1613C23.5627 26.6204 23.3877 27.1706 23.3928 27.7335C23.3979 28.2965 23.5828 28.8435 23.9212 29.2968C25.5388 31.5364 27.1054 33.8432 28.8649 35.9765C32.0486 39.8642 35.5738 43.4672 39.3995 46.7436C40.2508 47.4659 41.1647 48.1041 42.0728 48.7592C42.4596 49.0559 42.9247 49.2368 43.4126 49.2805C43.9006 49.3241 44.391 49.2287 44.8256 49.0056C45.7988 48.5324 46.7461 48.0091 47.6636 47.4379C48.935 46.6372 50.1837 45.8141 51.4324 45.0246C51.9472 44.6997 52.543 44.5214 53.154 44.5096C53.765 44.4977 54.3674 44.6527 54.8947 44.9575C58.115 46.5336 60.7402 49.084 62.387 52.2363C62.8499 53.0235 63.0588 53.9311 62.9858 54.8384C62.9128 55.7456 62.5613 56.6094 61.9783 57.3147C58.8395 61.3796 54.8266 63.888 49.4913 64C48.8861 63.9913 48.2817 63.9521 47.6806 63.8824Z" fill="#3F4549"/>
</svg>
