<svg width="72" height="72" viewBox="0 0 72 72" fill="none" xmlns="http://www.w3.org/2000/svg">
<path d="M9.85101 29.9687C12.6779 27.6825 16.0003 26.1038 19.5391 25.3655C23.5905 24.4633 27.7238 24.02 31.8611 24.0437C36.8663 24.001 41.8804 23.8799 46.8826 24.3902C50.8669 24.8356 54.7929 25.5728 58.4234 27.369C60.7791 28.4599 62.8387 30.0962 64.4355 32.1456C66.3116 34.6239 67.0099 37.5302 66.9999 40.6034C66.9658 41.8429 66.8098 43.0776 66.5341 44.2895C66.3915 45.0311 66.0363 45.7175 65.5125 46.2638C64.9887 46.81 64.3192 47.1923 63.5867 47.3633C60.2638 48.357 56.7181 48.1834 53.538 46.8715C53.0647 46.714 52.6438 46.4311 52.3194 46.0524C51.9949 45.6737 51.7786 45.213 51.6932 44.7185C51.4738 43.4807 51.2949 42.2376 51.0791 40.996C50.8858 39.8982 50.7218 38.7917 50.4442 37.716C50.3416 37.2001 50.0794 36.732 49.6947 36.3784C49.31 36.0247 48.8225 35.8035 48.3015 35.7461C45.7616 35.4258 43.2085 35.0281 40.651 34.8718C36.0048 34.5713 31.3357 34.6838 26.698 35.2079C25.6705 35.3289 24.6605 35.5456 23.6427 35.7479C23.1973 35.8229 22.7808 36.0244 22.4429 36.3287C22.1049 36.633 21.8597 37.0271 21.7362 37.4644C21.4419 38.4266 21.1979 39.4031 21.0053 40.3897C20.7444 41.7626 20.5131 43.1343 20.259 44.4846C20.1539 45.041 19.8982 45.5594 19.5202 45.9826C19.1421 46.4058 18.6564 46.7173 18.1167 46.8827C15.0137 48.0736 11.6265 48.2416 8.44982 47.3621C7.62384 47.1776 6.8768 46.7439 6.30816 46.1187C5.73952 45.4935 5.37626 44.7064 5.26674 43.8623C4.4956 39.1481 5.33158 34.8267 8.62718 31.126C9.01548 30.7197 9.42396 30.3335 9.85101 29.9687Z" fill="#3F4549"/>
</svg>
