<svg width="72" height="72" viewBox="0 0 72 72" fill="none" xmlns="http://www.w3.org/2000/svg">
<path fill-rule="evenodd" clip-rule="evenodd" d="M23.7533 16L45.4999 16.0022C46.3916 16.0186 46.8886 16.128 47.4042 16.4009C47.9243 16.676 48.3375 17.0849 48.6156 17.5994C48.9165 18.1559 49.0208 18.6905 49.0208 19.734V25.8592H50.62C52.143 25.8592 52.6953 26.016 53.2521 26.3106C53.8089 26.6053 54.2459 27.0376 54.5436 27.5884C54.8414 28.1393 55 28.6857 55 30.1925V38.4613C54.5663 37.7514 53.9685 37.1531 53.2518 36.7229C50.9991 35.3705 48.1917 35.9825 46.6419 37.9718H21.6875V52.266C21.6875 52.911 21.7229 53.2097 21.8182 53.4494L21.8522 53.5275L21.8908 53.6035C22.0097 53.8235 22.1791 53.9911 22.4014 54.1087C22.6027 54.2153 22.8003 54.2723 23.1887 54.2962L23.3674 54.3044L23.7533 54.3099H37.354L36.4 56H23.7533C22.6987 56 22.1583 55.8968 21.5958 55.5991C21.0757 55.324 20.6625 54.9151 20.3844 54.4006C20.1086 53.8905 19.9979 53.3987 19.9814 52.5166L19.9792 52.266V43.8873H18.38C16.857 43.8873 16.3047 43.7304 15.7479 43.4358C15.1911 43.1412 14.7541 42.7089 14.4564 42.158C14.1586 41.6072 14 41.0608 14 39.554V30.1925C14 28.6857 14.1586 28.1393 14.4564 27.5884C14.7541 27.0376 15.1911 26.6053 15.7479 26.3106C16.3047 26.016 16.857 25.8592 18.38 25.8592H19.9792L19.9814 19.4834C19.9963 18.6895 20.0874 18.2118 20.3065 17.7523L20.3844 17.5994C20.6625 17.0849 21.0757 16.676 21.5958 16.4009C22.1583 16.1032 22.6987 16 23.7533 16ZM51.5833 28.1127C50.9543 28.1127 50.4444 28.6171 50.4444 29.2394C50.4444 29.8617 50.9543 30.3662 51.5833 30.3662C52.2123 30.3662 52.7222 29.8617 52.7222 29.2394C52.7222 28.6171 52.2123 28.1127 51.5833 28.1127ZM45.2467 17.6901L23.5486 17.6915C22.9067 17.7005 22.657 17.756 22.4014 17.8913C22.1791 18.0089 22.0097 18.1765 21.8908 18.3965C21.7404 18.6746 21.6875 18.9457 21.6875 19.734V25.8592H47.3125V19.734C47.3125 19.0173 47.2688 18.7282 47.1478 18.4725L47.1092 18.3965C46.9903 18.1765 46.8209 18.0089 46.5986 17.8913C46.3174 17.7425 46.0434 17.6901 45.2467 17.6901Z" fill="#3F4549"/>
<path d="M25.3889 40.7887H44.9863L44.0323 42.4789H25.3889C24.9171 42.4789 24.5347 42.1005 24.5347 41.6338C24.5347 41.206 24.8561 40.8524 25.273 40.7964L25.3889 40.7887Z" fill="#3F4549"/>
<path d="M25.3889 45.2958H42.4422L41.4882 46.9859H25.3889C24.9171 46.9859 24.5347 46.6076 24.5347 46.1408C24.5347 45.713 24.8561 45.3594 25.273 45.3035L25.3889 45.2958Z" fill="#3F4549"/>
<path d="M25.3889 49.8028H39.8981L38.9441 51.493H25.3889C24.9171 51.493 24.5347 51.1146 24.5347 50.6479C24.5347 50.2201 24.8561 49.8665 25.273 49.8105L25.3889 49.8028Z" fill="#3F4549"/>
<path fill-rule="evenodd" clip-rule="evenodd" d="M65.7385 61.5477L53.3499 39.6004C53.078 39.1187 52.6895 38.718 52.2224 38.4376C50.7323 37.5431 48.8212 38.0637 47.9537 39.6004L35.5651 61.5477C35.195 62.2034 35 62.9486 35 63.7073C35 66.0781 36.8637 68 39.1626 68H62.1411C62.8768 68 63.5994 67.7989 64.2352 67.4172C66.222 66.2245 66.8951 63.5966 65.7385 61.5477ZM49.4866 56.3872L49.0911 47.5393C49.0911 46.6231 49.7899 45.8803 50.6518 45.8803C51.5138 45.8803 52.2126 46.6231 52.2126 47.5393L51.8177 56.3872C51.8177 57.3034 51.4292 57.9837 50.6521 57.9837C49.8751 57.9837 49.4866 57.3034 49.4866 56.3872ZM52.7328 62.4701C52.7328 63.6917 51.8011 64.6821 50.6518 64.6821C49.5025 64.6821 48.5709 63.6917 48.5709 62.4701C48.5709 61.2484 49.5025 60.2581 50.6518 60.2581C51.8011 60.2581 52.7328 61.2484 52.7328 62.4701Z" fill="#3F4549"/>
</svg>
