<svg width="72" height="72" viewBox="0 0 72 72" fill="none" xmlns="http://www.w3.org/2000/svg">
<path fill-rule="evenodd" clip-rule="evenodd" d="M8.24472 24.526C8 25.2791 8 26.0954 8 27.7279V44.2721C8 45.9046 8 46.7209 8.24472 47.474C8.32566 47.7231 8.42605 47.9655 8.54497 48.1989C8.90449 48.9045 9.48167 49.4817 10.636 50.636L21.3639 61.364C22.5183 62.5183 23.0955 63.0955 23.8011 63.455C24.0345 63.5739 24.2769 63.6743 24.526 63.7553C25.2791 64 26.0954 64 27.7279 64H44.272C45.9046 64 46.7208 64 47.474 63.7553C47.7231 63.6743 47.9655 63.5739 48.1989 63.455C48.9045 63.0955 49.4816 62.5183 50.636 61.364L61.3639 50.636C62.5183 49.4817 63.0955 48.9045 63.455 48.1989C63.5739 47.9655 63.6743 47.7231 63.7553 47.474C64 46.7209 64 45.9046 64 44.2721V27.6807C64 26.0442 64 25.2259 63.7542 24.4712C63.6729 24.2216 63.572 23.9787 63.4526 23.745C63.0915 23.0381 62.5119 22.4606 61.3527 21.3055L50.6341 10.6248C49.4805 9.47528 48.9037 8.90051 48.1993 8.54256C47.9663 8.42416 47.7244 8.32421 47.4758 8.24362C46.7242 8 45.9099 8 44.2814 8H27.7279C26.0954 8 25.2791 8 24.526 8.24472C24.2768 8.32566 24.0345 8.42605 23.8011 8.54497C23.0955 8.90449 22.5183 9.48168 21.3639 10.636L10.636 21.364C9.48167 22.5183 8.90449 23.0955 8.54497 23.8011C8.42605 24.0345 8.32566 24.2769 8.24472 24.526ZM33.4526 23L34.1769 39C34.1769 40.6568 34.8883 41.887 36.3111 41.887C37.7338 41.887 38.4452 40.6568 38.4452 39L39.1683 23C39.1683 21.3431 37.8888 20 36.3105 20C34.7321 20 33.4526 21.3431 33.4526 23ZM36.3105 54C38.4149 54 40.1209 52.2091 40.1209 50C40.1209 47.7909 38.4149 46 36.3105 46C34.206 46 32.5 47.7909 32.5 50C32.5 52.2091 34.206 54 36.3105 54Z" fill="#3F4549"/>
</svg>
