<svg width="72" height="72" viewBox="0 0 72 72" fill="none" xmlns="http://www.w3.org/2000/svg">
<path d="M41.0168 11.6154C37.8536 10.8887 34.5832 10.8044 31.3931 11.3688C28.203 11.9332 25.1585 13.1347 22.4338 14.9031C21.166 15.7259 19.9793 16.6637 18.887 17.703C17.6462 18.8836 17.7545 20.8399 18.9636 22.0531C20.0948 23.188 21.955 23.0539 23.1249 21.9594C23.919 21.2163 24.7768 20.5446 25.689 19.9525C27.7432 18.6194 30.035 17.7156 32.4339 17.2912C34.8327 16.8668 37.2944 16.9296 39.6792 17.4774C42.0641 18.0253 44.3272 19.048 46.3382 20.4903C48.3495 21.9327 50.0691 23.7665 51.3965 25.8888C52.5243 27.6922 53.3495 29.6727 53.8392 31.7473H49.4926C47.7078 31.7473 46.8186 33.9168 48.0872 35.1766L55.34 42.3791C56.1185 43.1522 57.3723 43.1522 58.1508 42.3791L65.4035 35.1766C66.6721 33.9168 65.783 31.7473 63.9981 31.7473H59.9584C59.3846 28.5312 58.2012 25.4552 56.4733 22.6923C54.7335 19.9106 52.4748 17.4993 49.8235 15.5979C47.1721 13.6964 44.18 12.342 41.0168 11.6154Z" fill="#3F4549"/>
<path d="M30.9832 60.3846C34.1464 61.1113 37.4168 61.1956 40.6069 60.6312C43.797 60.0668 46.8415 58.8653 49.5662 57.0969C50.834 56.2741 52.0207 55.3363 53.113 54.297C54.3538 53.1164 54.2455 51.1601 53.0364 49.9469C51.9052 48.812 50.045 48.9461 48.8751 50.0406C48.081 50.7837 47.2232 51.4554 46.311 52.0475C44.2568 53.3806 41.965 54.2844 39.5661 54.7088C37.1673 55.1332 34.7056 55.0704 32.3208 54.5226C29.9359 53.9747 27.6728 52.952 25.6618 51.5097C23.6505 50.0673 21.9309 48.2335 20.6035 46.1112C19.4757 44.3078 18.6505 42.3273 18.1608 40.2527H22.5074C24.2922 40.2527 25.1814 38.0832 23.9128 36.8234L16.66 29.6209C15.8815 28.8478 14.6277 28.8478 13.8492 29.6209L6.59647 36.8234C5.32788 38.0832 6.217 40.2527 8.00187 40.2527H12.0416C12.6154 43.4688 13.7988 46.5448 15.5267 49.3077C17.2665 52.0894 19.5252 54.5007 22.1765 56.4021C24.8279 58.3036 27.82 59.658 30.9832 60.3846Z" fill="#3F4549"/>
</svg>
