<svg width="72" height="72" viewBox="0 0 72 72" fill="none" xmlns="http://www.w3.org/2000/svg">
<path fill-rule="evenodd" clip-rule="evenodd" d="M25.5284 18.1742C26.6743 19.0121 26.9436 20.2515 26.9436 21.1015C26.9436 27.8923 24.5284 33.5531 21.3974 38.6676C20.8892 39.4976 20.3594 40.3177 19.8154 41.1289C20.4534 41.4339 21.1518 41.653 21.899 41.7818C24.2195 42.1818 26.9691 41.6858 29.493 40.1944C29.4156 38.6975 29.5816 37.0758 29.9811 35.3604C30.3853 33.6255 31.2539 32.0994 32.6706 31.1998C34.1269 30.275 35.9 30.2103 37.363 31.0153C38.8094 31.8111 39.681 33.296 39.8106 34.9383C39.9393 36.5691 39.3507 38.2142 38.259 39.702C37.5357 40.6878 36.7439 41.5848 35.8989 42.3909C36.3096 42.9349 36.8723 43.2368 37.5775 43.3348C39.5021 43.6023 43.0062 42.2189 45.295 37.7063C45.9521 36.4108 46.2455 35.6701 46.3618 35.3567C46.3917 35.2761 46.4127 35.2165 46.4312 35.1638L46.4329 35.1587C46.4404 35.1374 46.4553 35.0949 46.4696 35.0563C46.4774 35.0353 46.4943 34.9898 46.5167 34.9356L46.518 34.9325C46.5304 34.9023 46.5966 34.7408 46.7064 34.5566L46.7092 34.5519C46.7507 34.4821 46.933 34.1755 47.2675 33.8806C47.4421 33.7267 47.8396 33.4119 48.4494 33.2585C49.1763 33.0757 49.9967 33.1799 50.6936 33.6375C51.2825 34.0241 51.5662 34.521 51.6838 34.7619C51.813 35.0265 51.8728 35.2545 51.9006 35.3762C51.956 35.6193 51.9658 35.815 51.9688 35.8808C51.9758 36.0357 51.9682 36.1598 51.9668 36.1845C51.9642 36.23 51.961 36.2681 51.9595 36.2854C51.9549 36.3382 51.9533 36.3545 51.9522 36.3655C51.951 36.3765 51.9505 36.3821 51.9481 36.4131C51.9352 36.5853 51.8718 37.5214 52.7374 38.6387C53.6295 39.79 54.7282 40.921 55.8488 41.5838C56.6879 42.0801 57.3448 42.2164 57.9284 42.0977C57.8089 41.6479 57.7672 41.1669 57.8241 40.6637C57.9676 39.3955 58.686 38.465 59.3778 37.9061C60.0655 37.3506 61.0004 36.9327 62.038 36.9095C63.1687 36.8841 64.5383 37.3643 65.3385 38.7214C66.0441 39.9181 66.1708 41.2337 65.7874 42.4505C65.4433 43.5429 64.7536 44.3586 64.1707 44.9089C63.0142 46.0006 61.5225 46.744 60.7115 47.1093C57.7897 48.4256 55.026 47.6739 52.9673 46.4562C51.2781 45.4571 49.8656 44.0471 48.813 42.7891C45.6688 47.1636 41.0604 49.534 36.7984 48.9417C34.6087 48.6374 32.6295 47.5329 31.2798 45.6647C27.9522 47.3473 24.3057 47.9409 20.9376 47.3603C19.386 47.0929 17.8877 46.5723 16.5217 45.7886C16.457 45.8771 16.3922 45.9656 16.3275 46.054C16.0583 46.4217 15.7896 46.7877 15.5218 47.1524C14.0302 49.1837 12.5657 51.1781 11.182 53.2443C10.3122 54.5431 8.55427 54.8909 7.25557 54.021C5.95687 53.1511 5.60917 51.3931 6.47897 50.0943C7.93695 47.9172 9.4841 45.8105 10.9738 43.782C11.2382 43.4221 11.5007 43.0646 11.7606 42.7097C11.9624 42.4341 12.1628 42.1597 12.3616 41.8865C10.7558 39.4628 9.92732 36.3981 10.0231 32.8358C10.1527 28.0138 12.6217 24.3556 15.7266 21.4623C16.1888 21.0317 17.9968 19.6618 19.7084 18.7085C20.5023 18.2663 21.6759 17.679 22.8291 17.5351C23.403 17.4634 24.5116 17.4306 25.5284 18.1742ZM16.072 36.5102C16.2407 36.2445 16.4067 35.9784 16.5699 35.7118C18.7787 32.1037 20.4061 28.5017 21.0178 24.5548C20.8499 24.6688 20.6871 24.7823 20.5326 24.8923C20.0048 25.2683 19.6835 25.5256 19.6042 25.5892C19.5893 25.601 19.5829 25.6061 19.5853 25.604C17.1114 27.9091 15.7554 30.2324 15.6814 32.9879C15.6447 34.3509 15.7938 35.5176 16.072 36.5102Z" fill="#3F4549"/>
</svg>
