<svg width="72" height="72" viewBox="0 0 72 72" fill="none" xmlns="http://www.w3.org/2000/svg">
<path fill-rule="evenodd" clip-rule="evenodd" d="M62.4897 56.1754C63.3298 55.4461 63.7498 55.0814 63.9008 54.637C64.0331 54.2475 64.0331 53.8167 63.9008 53.4273C63.7498 52.9829 63.3298 52.6182 62.4897 51.8888L55.3294 45.6722C54.0893 44.5956 53.4692 44.0572 52.9491 44.0643C52.4966 44.0704 52.0708 44.3068 51.7904 44.7075C51.4682 45.168 51.4682 46.0505 51.4682 47.8155V51.2327C46.9715 51.2327 43.9314 49.5103 41.3709 46.5522C38.8071 43.5902 36.8012 39.5988 34.5295 35.0785L34.5295 35.0784C34.3344 34.6903 34.1374 34.2983 33.9379 33.9027C31.499 29.0663 28.7229 23.7835 24.7213 19.7572C20.6172 15.6277 15.3128 12.8964 8 12.8964V18.5314C14.0559 18.5314 18.1837 20.7308 21.3952 23.9621C24.5264 27.1126 26.862 31.3109 29.1876 35.8841C26.902 40.1635 24.5744 44.0872 21.5032 47.0546C18.2518 50.1961 14.0786 52.3416 8 52.3416V57.9766C15.29 57.9766 20.6115 55.3362 24.7538 51.334C27.7098 48.4779 30.0158 44.97 32.0088 41.4537C33.7029 44.7017 35.5551 47.8999 37.7957 50.4885C41.1752 54.393 45.4726 56.869 51.4682 56.869V60.2487C51.4682 62.0137 51.4682 62.8962 51.7904 63.3568C52.0708 63.7574 52.4966 63.9938 52.9491 64C53.4692 64.007 54.0893 63.4687 55.3294 62.392L62.4897 56.1754ZM62.4897 15.8246L62.4897 15.8246L55.3294 9.60799C54.0893 8.53135 53.4692 7.99303 52.9491 8.00007C52.4966 8.00619 52.0708 8.24257 51.7904 8.64325C51.4682 9.1038 51.4682 9.9863 51.4682 11.7513V15.1504C45.4726 15.1504 41.4946 17.4244 38.0271 21.3376C36.0003 23.625 34.2787 26.4068 32.6975 29.2671C33.4905 30.7374 34.2357 32.2031 34.9564 33.6203L35.0239 33.753C35.2052 34.1095 35.3847 34.4625 35.5628 34.8117C37.5209 31.0981 39.3382 27.8297 41.5611 25.321C44.174 22.3723 46.9715 20.7854 51.4682 20.7854V24.1845C51.4682 25.9495 51.4682 26.832 51.7904 27.2926C52.0708 27.6932 52.4966 27.9296 52.9491 27.9357C53.4692 27.9428 54.0893 27.4045 55.3294 26.3278L62.4897 20.1112C63.3298 19.3818 63.7498 19.0172 63.9008 18.5727C64.0331 18.1833 64.0331 17.7525 63.9008 17.3631C63.7498 16.9186 63.3298 16.554 62.4897 15.8246L62.4897 15.8246Z" fill="#3F4549"/>
</svg>
