<svg width="72" height="72" viewBox="0 0 72 72" fill="none" xmlns="http://www.w3.org/2000/svg">
<path fill-rule="evenodd" clip-rule="evenodd" d="M19.7451 17C18.8232 17 17.9549 17.4212 17.3998 18.1376L8.59225 29.505C8.2079 30.0011 8 30.6055 8 31.2268V44.9238C8 49.5598 9.31516 51 13.875 51H39.0074C39.2668 42.2847 46.2847 35.2668 55 35.0074V31.2268C55 30.6055 54.7921 30.0011 54.4078 29.505L45.6002 18.1376C45.0451 17.4212 44.1768 17 43.2549 17H19.7451ZM20.8719 19.8594H42.1281C42.817 19.8594 43.4653 20.7279 43.8814 21.2853L50.1696 29.7017C50.3461 29.938 50.1728 30.2694 49.8727 30.2694H13.1273C12.8272 30.2694 12.6539 29.938 12.8304 29.7017L19.1186 21.2852C19.5347 20.7279 20.183 19.8594 20.8719 19.8594Z" fill="#3F4549"/>
<path fill-rule="evenodd" clip-rule="evenodd" d="M69 51.5C69 58.9558 62.9558 65 55.5 65C48.0442 65 42 58.9558 42 51.5C42 44.0442 48.0442 38 55.5 38C62.9558 38 69 44.0442 69 51.5ZM65.2882 50.2371C65.2324 50.3776 65.0972 50.499 64.8267 50.7418L58.6286 56.3053C58.1304 56.7525 57.8812 56.9761 57.6714 56.9969C57.4451 57.0192 57.2238 56.9206 57.0892 56.7374C56.9645 56.5675 56.9645 56.2328 56.9645 55.5635V53.9416C55.934 53.4757 54.7901 53.2163 53.5856 53.2163C50.9447 53.2163 48.5951 54.4631 47.0942 56.4C46.9574 56.5765 46.6668 56.495 46.6668 56.2717C46.6668 50.6764 51.2052 46.1405 56.8036 46.1405C56.8573 46.1405 56.9109 46.1409 56.9645 46.1417V44.4365C56.9645 43.7672 56.9645 43.4325 57.0892 43.2626C57.2238 43.0794 57.4451 42.9808 57.6714 43.0031C57.8812 43.0239 58.1304 43.2475 58.6286 43.6947L64.8267 49.2582C65.0971 49.501 65.2324 49.6224 65.2882 49.7629C65.3486 49.9152 65.3486 50.0848 65.2882 50.2371Z" fill="#3F4549"/>
</svg>
