<svg width="56" height="51" viewBox="0 0 56 51" fill="none" xmlns="http://www.w3.org/2000/svg">
<path d="M55.7229 16.4973L52.782 4.25737C52.1658 1.73656 49.9811 0 47.4322 0H8.52772C6.00691 0 3.7942 1.76457 3.20601 4.25737L0.265065 16.4973C-0.407152 19.3542 0.209047 22.2672 2.00162 24.5639C2.2257 24.872 2.53379 25.0961 2.78588 25.3762V44.8144C2.78588 47.8954 5.30669 50.4162 8.38768 50.4162H47.6003C50.6813 50.4162 53.2021 47.8954 53.2021 44.8144V25.3762C53.4542 25.1241 53.7623 24.872 53.9864 24.5919C55.7789 22.2952 56.4231 19.3542 55.7229 16.4973ZM47.3482 5.57379L50.2892 17.8137C50.5693 18.9901 50.3172 20.1665 49.5889 21.0908C49.1968 21.5949 48.3565 22.4072 46.9561 22.4072C45.2475 22.4072 43.7631 21.0348 43.567 19.2142L41.9425 5.6018L47.3482 5.57379ZM30.7949 5.6018H36.2847L37.7971 18.2619C37.9372 19.3542 37.6011 20.4466 36.8728 21.2588C36.2566 21.9871 35.3604 22.4072 34.212 22.4072C32.3354 22.4072 30.7949 20.7547 30.7949 18.738V5.6018ZM18.1628 18.2619L19.7033 5.6018H25.1931V18.738C25.1931 20.7547 23.6526 22.4072 21.5799 22.4072C20.6276 22.4072 19.7593 21.9871 19.0871 21.2588C18.3869 20.4466 18.0508 19.3542 18.1628 18.2619ZM5.69881 17.8137L8.52772 5.6018H14.0455L12.421 19.2142C12.1969 21.0348 10.7404 22.4072 9.03189 22.4072C7.65944 22.4072 6.79117 21.5949 6.42705 21.0908C5.6708 20.1945 5.41872 18.9901 5.69881 17.8137ZM8.38768 44.8144V27.925C8.61175 27.953 8.80781 28.009 9.03189 28.009C11.4687 28.009 13.6814 27.0007 15.3059 25.3482C16.9864 27.0287 19.2272 28.009 21.776 28.009C24.2128 28.009 26.3975 27.0007 28.022 25.4042C29.6745 27.0007 31.9152 28.009 34.4361 28.009C36.7888 28.009 39.0295 27.0287 40.7101 25.3482C42.3346 27.0007 44.5473 28.009 46.9841 28.009C47.2082 28.009 47.4042 27.953 47.6283 27.925V44.8144H8.38768Z" fill="#3F4549"/>
</svg>
