<svg width="72" height="72" viewBox="0 0 72 72" fill="none" xmlns="http://www.w3.org/2000/svg">
<path d="M56.6636 25.6526C56.4748 25.3993 56.1775 25.25 55.8616 25.25H48.7273V17C48.7273 15.8954 47.8318 15 46.7273 15H13.0909C10.2909 15 8 17.3062 8 20.125V46.3125C8 47.4171 8.89543 48.3125 10 48.3125H13.0909C13.0909 52.5662 16.5018 56 20.7273 56C24.9527 56 28.3636 52.5662 28.3636 48.3125H43.6364C43.6364 52.5662 47.0473 56 51.2727 56C55.4982 56 58.9091 52.5662 58.9091 48.3125H62C63.1046 48.3125 64 47.4171 64 46.3125V35.8316C64 35.6163 63.9305 35.4068 63.8019 35.2341L56.6636 25.6526ZM54.6022 29.0938C54.9106 29.0938 55.2017 29.236 55.3912 29.4793L58.8227 33.8856C59.3342 34.5423 58.8662 35.5 58.0337 35.5H49.7273C49.175 35.5 48.7273 35.0523 48.7273 34.5V30.0938C48.7273 29.5415 49.175 29.0938 49.7273 29.0938H54.6022ZM20.7273 50.875C19.3273 50.875 18.1818 49.7219 18.1818 48.3125C18.1818 46.9031 19.3273 45.75 20.7273 45.75C22.1273 45.75 23.2727 46.9031 23.2727 48.3125C23.2727 49.7219 22.1273 50.875 20.7273 50.875ZM51.2727 50.875C49.8727 50.875 48.7273 49.7219 48.7273 48.3125C48.7273 46.9031 49.8727 45.75 51.2727 45.75C52.6727 45.75 53.8182 46.9031 53.8182 48.3125C53.8182 49.7219 52.6727 50.875 51.2727 50.875Z" fill="#3F4549"/>
</svg>
