<svg width="73" height="72" viewBox="0 0 73 72" fill="none" xmlns="http://www.w3.org/2000/svg">
<path d="M27.9651 14.8124C27.0783 14.5617 25.9936 15.2849 23.824 16.7313L12.993 23.952C11.2016 25.1462 10.306 25.7433 10.144 26.5567C10.0926 26.8146 10.0926 27.0801 10.144 27.3379C10.306 28.1514 11.2016 28.7485 12.993 29.9427L23.824 37.1634C25.9936 38.6098 27.0783 39.3329 27.9651 39.0822C28.2431 39.0036 28.5009 38.8657 28.7205 38.6779C29.421 38.0792 29.421 36.7755 29.421 34.168V29.5H48.4999C53.7466 29.5 57.9999 33.7533 57.9999 39C57.9999 44.2467 53.7466 48.5 48.4999 48.5H38.3213C36.9406 48.5 35.8213 49.6193 35.8213 51C35.8213 52.3807 36.9406 53.5 38.3213 53.5H48.4999C56.508 53.5 62.9999 47.0081 62.9999 39C62.9999 30.9918 56.508 24.5 48.4999 24.5H29.421V19.7266C29.421 17.1192 29.421 15.8155 28.7205 15.2167C28.5009 15.029 28.2431 14.891 27.9651 14.8124Z" fill="#3F4549"/>
</svg>
