<svg width="72" height="72" viewBox="0 0 72 72" fill="none" xmlns="http://www.w3.org/2000/svg">
<path d="M27.4651 14.8125C26.5783 14.5618 25.4936 15.285 23.324 16.7313L12.493 23.952C10.7016 25.1463 9.80596 25.7434 9.64398 26.5568C9.59263 26.8147 9.59263 27.0801 9.64398 27.338C9.80596 28.1514 10.7016 28.7485 12.493 29.9428L23.324 37.1635C25.4936 38.6098 26.5783 39.333 27.4651 39.0823C27.7431 39.0037 28.0009 38.8658 28.2205 38.678C28.921 38.0792 28.921 36.7755 28.921 34.1681V29.5H47.9999C53.2466 29.5 57.4999 33.7533 57.4999 39C57.4999 44.2467 53.2466 48.5 47.9999 48.5H37.8213C36.4406 48.5 35.3213 49.6193 35.3213 51C35.3213 52.3807 36.4406 53.5 37.8213 53.5H47.9999C56.008 53.5 62.4999 47.0082 62.4999 39C62.4999 30.9919 56.008 24.5 47.9999 24.5H28.921V19.7267C28.921 17.1193 28.921 15.8156 28.2205 15.2168C28.0009 15.029 27.7431 14.8911 27.4651 14.8125Z" fill="#3F4549"/>
</svg>
