<svg width="72" height="72" viewBox="0 0 72 72" fill="none" xmlns="http://www.w3.org/2000/svg">
<path d="M63.1354 19.5183C64.1861 20.7498 64.1128 22.5939 62.9121 23.6796C57.8382 28.2676 53.8915 30.1505 49.5189 29.9907C44.9113 29.8222 40.5001 27.7344 33.6738 23.1163C28.5504 19.6502 25.8774 18.3853 23.3708 18.3853C21.2993 18.3853 17.9056 19.4531 13.4632 23.1919C12.093 24.3452 10.0272 24.2696 8.86477 22.9071C7.81408 21.6757 7.8868 19.8303 9.10381 18.7629C14.5033 14.0271 19.3854 12 23.3708 12C27.7978 12 31.8158 14.3136 36.8406 17.713C43.5327 22.2404 46.7955 23.5021 49.7209 23.6091C51.9109 23.6891 54.3451 22.9606 58.5612 19.2608C59.9074 18.0795 61.9729 18.1559 63.1354 19.5183Z" fill="#3F4549"/>
<path d="M63.1354 34.5183C64.1861 35.7498 64.1128 37.5939 62.9121 38.6796C57.8382 43.2676 53.8915 45.1505 49.5189 44.9907C44.9113 44.8222 40.5001 42.7344 33.6738 38.1163C28.5504 34.6502 25.8774 33.3853 23.3708 33.3853C21.2993 33.3853 17.9056 34.4531 13.4632 38.1919C12.093 39.3452 10.0272 39.2696 8.86477 37.9071C7.81408 36.6757 7.8868 34.8303 9.10381 33.7629C14.5033 29.0271 19.3854 27 23.3708 27C27.7978 27 31.8158 29.3136 36.8406 32.713C43.5327 37.2404 46.7955 38.5021 49.7209 38.6091C51.9109 38.6891 54.3451 37.9606 58.5612 34.2608C59.9074 33.0795 61.9729 33.1559 63.1354 34.5183Z" fill="#3F4549"/>
<path d="M62.9121 53.6796C64.1128 52.5939 64.1861 50.7498 63.1354 49.5183C61.9729 48.1559 59.9074 48.0795 58.5612 49.2608C54.3451 52.9606 51.9109 53.6891 49.7209 53.6091C46.7955 53.5021 43.5327 52.2404 36.8406 47.713C31.8158 44.3136 27.7978 42 23.3708 42C19.3854 42 14.5033 44.0271 9.10381 48.7629C7.8868 49.8303 7.81408 51.6757 8.86477 52.9071C10.0272 54.2696 12.093 54.3452 13.4632 53.1919C17.9056 49.4531 21.2993 48.3853 23.3708 48.3853C25.8774 48.3853 28.5504 49.6502 33.6738 53.1163C40.5001 57.7344 44.9113 59.8222 49.5189 59.9907C53.8915 60.1505 57.8382 58.2676 62.9121 53.6796Z" fill="#3F4549"/>
</svg>
