<svg width="72" height="72" viewBox="0 0 72 72" fill="none" xmlns="http://www.w3.org/2000/svg">
<path d="M29.724 47.0534V9L43.7243 13.7919V48.6261L42.1854 51.3186L29.724 47.0534Z" fill="#3F4549"/>
<path d="M60.4548 36.5462L62.0483 39.3341V10.9364C62.0483 10.8049 62.0284 10.6742 61.9892 10.5489C61.7808 9.88186 61.0852 9.51462 60.4355 9.72864L48.048 13.8099V41.0616L50.6288 36.5462C52.1908 33.8135 55.6777 32.8482 58.4145 34.4707C59.2651 34.975 59.9664 35.6918 60.4548 36.5462Z" fill="#3F4549"/>
<path d="M25.4004 47.0534L11.626 51.768C10.9787 51.9895 10.2791 51.6304 10.0634 50.9658C10.0214 50.8364 10 50.701 10 50.5647V17.9631C10 16.5698 10.1017 16.0647 10.3103 15.5306C10.5188 14.9965 10.8343 14.5471 11.2618 14.1751C11.6893 13.803 12.1237 13.5442 13.411 13.1036L25.4004 9V47.0534Z" fill="#3F4549"/>
<path fill-rule="evenodd" clip-rule="evenodd" d="M69.4774 57.9507L58.034 37.9299C57.7829 37.4905 57.424 37.125 56.9926 36.8692C55.6162 36.0532 53.8508 36.5281 53.0496 37.9299L41.6063 57.9507C41.2644 58.5489 41.0843 59.2286 41.0843 59.9208C41.0843 62.0835 42.8057 63.8367 44.9292 63.8367H66.1544C66.834 63.8367 67.5014 63.6532 68.0888 63.305C69.924 62.217 70.5457 59.8198 69.4774 57.9507ZM54.4655 53.2432L54.1002 45.172C54.1002 44.3362 54.7456 43.6586 55.5418 43.6586C56.338 43.6586 56.9835 44.3362 56.9835 45.172L56.6187 53.2432C56.6187 54.079 56.2598 54.6996 55.5421 54.6996C54.8244 54.6996 54.4655 54.079 54.4655 53.2432ZM57.464 58.7922C57.464 59.9066 56.6034 60.81 55.5418 60.81C54.4802 60.81 53.6196 59.9066 53.6196 58.7922C53.6196 57.6778 54.4802 56.7744 55.5418 56.7744C56.6034 56.7744 57.464 57.6778 57.464 58.7922Z" fill="#3F4549"/>
</svg>
